<?xml version="1.0" encoding="UTF-8"?>
<svg id="Layer_1" xmlns="http://www.w3.org/2000/svg" version="1.1" viewBox="0 0 152.44 48">
  <!-- Generator: Adobe Illustrator 29.6.1, SVG Export Plug-In . SVG Version: 2.1.1 Build 9)  -->
  <defs>
    <style>
      .st0 {
        fill: #7e888e;
      }

      .st0, .st1, .st2, .st3 {
        fill-rule: evenodd;
      }

      .st1 {
        fill: #1f8ea8;
      }

      .st4 {
        isolation: isolate;
      }

      .st3 {
        fill: #0bb5dd;
      }
    </style>
  </defs>
  <path class="st2" d="M104.38,23.12c-.03.1-.08.2-.15.31-.06.09-.12.17-.18.24-.06.08-.13.15-.2.21-.05.05-.09.08-.12.1-.03.02-.06.03-.09.04-.02,0-.05,0-.06,0-.02,0-.03-.01-.05-.03-.12-.09-.24-.19-.36-.28-.12-.1-.24-.18-.38-.27-.02-.02-.03-.04-.03-.05s0-.03.03-.06l.79-1.17s.05-.04.07-.04c.02,0,.05.01.08.03.07.04.14.08.21.13.07.05.14.1.2.15.06.06.11.12.16.18.05.07.08.14.09.22.03.09.03.19,0,.29ZM104.13,16.36c-.03.09-.06.18-.09.29-.06.2-.13.37-.21.52-.08.15-.17.27-.26.37-.09.09-.19.17-.3.24-.11.07-.23.13-.35.18-.13.05-.24.11-.33.17-.09.06-.16.13-.22.2-.09.09-.17.22-.23.39-.07.17-.13.34-.21.52-.07.18-.15.36-.23.54-.09.18-.19.32-.32.43-.18.18-.44.3-.79.37l-.95.16s-.06,0-.1,0c-.04,0-.07,0-.09,0-.08-.02-.1-.07-.07-.15.03-.08.11-.16.24-.24.27-.17.48-.31.64-.41.16-.11.29-.19.39-.26.1-.07.18-.12.24-.17.06-.04.13-.09.2-.15.28-.2.48-.42.58-.64.06-.12.12-.23.17-.34.05-.11.11-.22.16-.33.06-.11.12-.21.18-.32.07-.11.14-.21.23-.32.09-.11.21-.21.36-.31.15-.1.34-.2.55-.3.25-.12.41-.28.48-.48.04-.09.09-.18.15-.27.06-.08.12-.13.18-.14.07,0,.09.08.05.22-.02.07-.04.14-.07.23ZM98.9,19.83c-.07.12-.15.22-.23.32-.09.1-.2.18-.36.25-.15.07-.49.18-1,.34-.01,0-.03,0-.04,0-.06.08-.11.16-.17.23-.06.08-.13.15-.2.21-.05.05-.09.08-.12.1-.03.02-.06.03-.09.04-.02,0-.05,0-.06,0-.02,0-.03-.01-.05-.03-.12-.09-.24-.19-.36-.28-.12-.1-.24-.18-.38-.27-.02-.02-.03-.04-.03-.05s0-.03.03-.06l.79-1.17s.05-.04.07-.04c.02,0,.05.01.08.03.07.04.14.08.21.13.07.05.14.1.2.15.06.06.11.12.16.18.05.07.08.14.09.22.03.09.03.19,0,.29,0,.02-.02.04-.02.06.05-.04.11-.08.17-.12.33-.24.61-.47.84-.7.22-.23.34-.41.36-.53.03-.14-.06-.33-.25-.55-.19-.22-.43-.42-.69-.61-.02-.02-.03-.03-.03-.05,0-.01,0-.03,0-.04l.24-.54.34-.74c.03-.06.05-.11.08-.15.02-.04.05-.05.08-.03.15.12.29.24.43.38.14.14.27.29.37.47s.16.4.16.68c0,.33-.05.64-.16.94-.11.3-.26.62-.45.94ZM96.44,13.77c0,.12,0,.24-.01.35,0,.12-.02.23-.05.34-.03.15-.08.3-.15.46-.07.16-.16.32-.26.47-.1.15-.2.29-.32.42-.11.13-.22.24-.33.32l-.02.02h0c-.1.08-.19.13-.29.16-.09.03-.15.04-.18.03-.03.01-.06.03-.08.05-.03.02-.06.04-.1.06-.04.02-.09.04-.15.06-.06.02-.14.03-.23.03-.05.04-.11.08-.17.11-.07.03-.14.06-.21.09-.07.03-.14.05-.21.07-.07.02-.13.04-.19.06l-.02.21c-.09,1.07-.31,2.03-.66,2.88-.23.56-.52,1.09-.88,1.58-.84,1.1-1.86,1.65-3.04,1.65-.58-.03-1.06-.22-1.46-.57-.4-.35-.6-.85-.63-1.49.01-1.02.35-2.14,1.01-3.36l.19-.37s.02,0,.03.03c0,.02,0,.06,0,.1,0,.04-.01.09-.03.14-.01.05-.03.11-.06.17l-.03.05c-.08.19-.16.38-.23.57-.07.19-.13.38-.18.57-.05.19-.09.37-.12.56-.03.18-.05.36-.04.52.06.5.27.87.64,1.1.37.24.81.36,1.31.39.68,0,1.33-.17,1.95-.52.47-.3.84-.67,1.12-1.12.43-.62.63-1.49.61-2.58,0-.13,0-.27,0-.4s0-.27-.01-.41c-.02-.16-.01-.29.03-.39.05-.1.13-.15.26-.16.03,0,.08,0,.12,0,.05,0,.1.01.15.02.05,0,.1.01.15.01.05,0,.09,0,.13,0,.18-.02.31-.1.41-.23.09-.1.17-.12.26-.04.23.09.4.01.51-.23.03-.08.08-.09.17-.02.04.01.1.01.16,0h0s.08-.07.12-.11c.05-.05.09-.09.13-.14.04-.05.08-.09.11-.14.03-.05.05-.09.06-.12.01-.05.01-.11.01-.18,0-.07,0-.13,0-.2,0-.07,0-.13,0-.2,0-.06.01-.12.03-.17.02-.05.05-.12.1-.22l.53-1.04s.04-.05.06-.03c.02.02.03.05.03.09-.02.11-.04.22-.04.34,0,.12,0,.24,0,.36ZM87.38,29.4c.07-.11.15-.22.24-.34.03-.05.06-.07.08-.07s.05.02.08.05c.07.07.15.18.24.31.09.14.17.28.25.43.05.14.06.26.04.35-.02.09-.05.17-.1.24-.02.04-.06.09-.11.15-.05.06-.11.12-.16.17-.06.05-.13.09-.2.12-.07.04-.17.05-.29.06-.07,0-.14,0-.2-.02-.06-.02-.12-.03-.18-.04-.06-.01-.12-.02-.17-.02-.06,0-.12-.09-.19.03-.09.03-.18.09-.26.17-.08.08-.26.16-.24.24-.07.07-.15.15-.23.23-.08.09-.18.17-.29.26-.11.09-.24.17-.38.25-.14.08-.31.15-.5.22-.23.06-.45.1-.66.12-.07.01-.13.02-.18.03-.1.05-.2.1-.29.14-.24.1-.5.15-.78.15-.23,0-.42-.02-.55-.06-.16-.04-.31-.11-.44-.21-.14-.1-.22-.19-.25-.27-.04.05-.06.09-.06.1-.07.08-.13.15-.18.21-.05.06-.08.1-.11.13-.09.11-.18.2-.26.27-.16.15-.31.23-.46.23-.02,0-.09-.02-.19-.07-.1-.05-.19-.07-.27-.07-.06,0-.19.09-.37.27l-.51.48c-.14.13-.28.22-.41.29-.04.13-.08.25-.12.35-.21.48-.38.83-.52,1.04-.14.21-.26.35-.36.43-.1.08-.24.14-.43.12-.19.16-.38.21-.59.26-.21.05-.36.07-.46.07-.04,0-.06,0-.06,0-.03-.03.12-.15.43-.34.31-.19.57-.36.78-.52.2-.16.39-.33.55-.52.16-.19.28-.38.35-.59-.04.02-.09.03-.14.05-.06.01-.11.03-.17.04-.06,0-.12.01-.17.02-.06,0-.1,0-.15,0-.2-.01-.36-.08-.49-.19-.13-.12-.19-.26-.18-.42.01-.08.03-.18.07-.3.04-.11.12-.29.24-.54.12-.25.25-.45.4-.61.14-.16.28-.24.4-.24.22,0,.39.09.54.26.14.18.23.39.26.63,0,.05,0,.11,0,.16.1-.07.22-.16.36-.29.1-.09.2-.19.32-.31.11-.14.23-.25.34-.35.02-.01.03-.03.05-.04.02-.02.05-.05.07-.07,0,0,0,0,0,.01.13-.09.24-.13.33-.13.07,0,.16.03.28.09.08.04.16.08.23.11.05.01.18-.13.38-.41.11-.18.22-.33.32-.43.14-.16.26-.24.38-.24.03,0,.14.03.33.08.19.06.32.09.41.09.03,0,.13-.12.31-.36.11-.15.22-.3.33-.46.11-.16.23-.31.35-.46.17-.2.37-.39.61-.57.22-.17.47-.26.73-.26.23,0,.4.06.49.17.1.11.15.26.15.46-.02.18-.05.34-.08.48-.06.18-.14.37-.24.57-.14.26-.27.48-.41.66-.11.15-.24.3-.39.43.09-.04.19-.08.29-.12.2-.09.37-.2.51-.31.14-.11.27-.22.39-.34.11-.12.22-.24.31-.36.09-.12.19-.24.29-.35.1-.11.21-.22.32-.32s.25-.19.41-.27c.08-.12.15-.24.21-.34ZM84.87,30.6c.23-.15.34-.28.34-.4,0-.03-.07-.07-.21-.13-.14-.06-.24-.09-.32-.09-.19,0-.37.05-.53.16-.17.12-.32.25-.45.39-.13.14-.21.24-.26.29-.11.14-.18.25-.22.34.07,0,.2-.02.41-.05.21-.03.42-.1.64-.19.23-.09.43-.2.59-.32ZM79.34,26.1s.05.01.08.03c.07.04.15.09.22.14.07.05.14.1.2.16.06.06.12.12.16.19.05.07.08.14.1.23.03.1.03.2,0,.3-.03.1-.08.21-.16.33-.05.08-.1.15-.15.21-.05.06-.11.12-.17.18-.02.02-.05.05-.08.08-.04.03-.08.06-.12.09-.04.03-.08.05-.12.06-.04.01-.07,0-.08-.01-.12-.1-.25-.2-.37-.3-.12-.1-.26-.19-.4-.28-.02-.02-.04-.03-.03-.05,0-.02.01-.04.03-.07l.83-1.22s.05-.05.07-.05ZM84.92,14.03c-.06.13-.14.28-.24.46-.18.32-.39.63-.62.94-.56.72-1.19,1.09-1.89,1.09-.47,0-.82-.18-1.04-.53,0,0-.01-.02-.02-.03l-.58.89s0,0,0,0c0,0,0,0,0,0-.05.08-.08.13-.09.15h.04c.27.07.49.13.64.2.18.08.29.19.32.34,0,.11-.02.21-.05.31-.03.1-.09.22-.16.36-.08.15-.16.28-.26.4-.1.12-.2.21-.32.27-.11.06-.26.11-.44.15-.43.05-.81.14-1.14.27-.33.13-.6.27-.83.44s-.41.33-.55.5c-.14.17-.24.33-.3.46-.15.32-.25.62-.31.91-.06.29-.14.7-.22,1.22-.09.52-.15,1.24-.19,2.16-.04.92-.06,1.49-.07,1.73,0,.03-.02.05-.03.05-.01,0-.02,0-.03-.03-.03-.46-.05-.89-.06-1.31-.01-.42,0-1.06.02-1.93.05-.86.18-1.67.4-2.42.07-.23.17-.49.29-.78.12-.29.28-.56.47-.82.19-.26.44-.51.73-.74.3-.23.62-.43.99-.59.34-.64.59-1.08.76-1.29,0,0,0,0,0,0,0,0,0,0,0,0l.56-.91c.09-.26.15-.57.18-.95,0-.02,0-.04,0-.06,0-.02,0-.03,0-.05,0-.03,0-.06.02-.1.03-.31.08-.63.14-.95.08-.4.14-.65.17-.76.05-.15.11-.33.2-.54.09-.21.19-.49.3-.83.03-.05.06-.07.08-.07s.03.03.03.1c-.08.38-.14.74-.18,1.08-.04.34-.07.65-.1.93,0,.35.05.63.14.82.07.14.18.24.34.3.16.06.31.08.45.07.14-.34.28-.68.44-1.03.19-.42.37-.71.54-.89.26-.3.55-.43.87-.41.14,0,.26.03.36.09.1.06.15.13.16.22,0,.09-.02.18-.09.26-.04.05-.09.07-.15.07-.01,0-.07-.01-.19-.03-.12-.02-.22-.03-.33-.03-.27.01-.48.12-.65.32-.14.2-.22.39-.23.56-.02.17.03.31.13.41.1.1.25.16.44.16.25,0,.47-.12.67-.33.09-.1.21-.26.36-.49.15-.23.23-.33.25-.3.06.02.05.11,0,.28-.03.07-.07.16-.12.27ZM75.84,30.19c-.12.15-.27.29-.44.41-.17.12-.46.3-.88.54-.17.11-.4.25-.7.43-.36.24-.66.49-.87.76-.22.27-.34.45-.37.54,0,0,0,0,0,0,0,.05.03.1.1.15.08.05.22.11.44.19.21.07.35.13.4.17.17.11.26.31.26.61,0,.45-.09.96-.27,1.54-.18.58-.43,1.08-.76,1.51-.14.2-.3.39-.5.59-.2.19-.41.36-.65.49-.45.3-.96.45-1.55.45-.66-.01-1.17-.22-1.51-.63-.16-.21-.26-.43-.32-.66-.06-.23-.09-.45-.09-.66.01-.38.06-.76.16-1.15.09-.38.21-.76.36-1.14.15-.37.31-.74.5-1.1.19-.36.38-.7.57-1.03.03-.05.05-.08.05-.09.04-.06.08-.09.11-.08h0s.01.03,0,.06c0,.03-.03.08-.06.16-.15.31-.31.63-.46.95-.15.32-.28.63-.38.92-.23.65-.32,1.17-.28,1.55.03.4.2.71.49.95.3.23.72.35,1.27.35.46,0,.9-.09,1.33-.28.32-.14.6-.31.85-.51.25-.2.44-.41.57-.62.13-.21.2-.39.2-.54,0-.07-.03-.12-.1-.17-.07-.05-.16-.09-.26-.12-.1-.03-.2-.06-.31-.09-.11-.03-.19-.05-.26-.08-.16-.06-.29-.14-.39-.25-.1-.11-.15-.28-.14-.5,0-.27.09-.58.28-.95,0,0,0-.01.01-.02.12-.23.27-.47.46-.73.19-.27.45-.58.78-.93-.16-.03-.3-.08-.42-.15-.12-.07-.19-.18-.19-.32,0-.09.09-.27.27-.54.19-.27.33-.45.4-.53.27-.31.44-.5.5-.56.24-.21.46-.32.67-.32.12,0,.24.04.35.13.09.09.14.18.14.28,0,.04-.01.1-.03.18-.05.12-.13.19-.24.19-.05,0-.11-.03-.19-.08-.09-.05-.18-.08-.26-.08-.15,0-.29.06-.42.17-.15.1-.22.2-.22.28,0,.15.09.27.28.35.19.09.39.13.6.13.12,0,.27-.03.44-.1.17-.07.34-.17.52-.3.17-.13.28-.2.32-.21.07-.02.1,0,.09.06-.04.13-.12.27-.25.43ZM74.47,18.16c-.02.08-.05.19-.09.32-.04.13-.08.25-.12.36-.21.48-.38.83-.52,1.04-.14.21-.26.35-.36.43-.1.08-.24.14-.43.21-.19.06-.38.12-.59.17-.21.05-.36.07-.46.07-.04,0-.06,0-.06,0-.03-.03.12-.15.43-.34.31-.19.57-.36.78-.52.2-.16.39-.33.55-.52.16-.19.28-.38.35-.59-.04.02-.09.03-.14.05-.06.01-.11.03-.17.04-.06,0-.12.01-.17.02-.06,0-.1,0-.15,0-.2-.01-.36-.08-.49-.19s-.19-.26-.18-.42c.01-.08.03-.18.07-.3.04-.11.12-.29.24-.54.12-.25.25-.45.4-.61.14-.16.28-.24.4-.24.22,0,.39.09.54.26s.23.39.26.63c0,.12,0,.25,0,.37-.01.12-.03.23-.05.31ZM70.46,12.39c-.05.08-.1.15-.15.21-.05.06-.11.12-.17.18-.02.02-.05.05-.08.08-.04.03-.08.06-.12.09-.04.03-.08.05-.12.06-.04.01-.07,0-.08-.01-.12-.1-.25-.2-.37-.3-.12-.1-.26-.19-.4-.28-.02-.02-.04-.03-.03-.05,0-.01.01-.04.03-.07l.83-1.22s.05-.05.07-.05c.02,0,.05.01.08.03.07.04.15.09.22.14.07.05.14.1.2.16.06.06.12.12.16.19.05.07.08.14.1.23.03.1.03.2,0,.3-.03.1-.08.21-.16.33ZM69.02,15.67c.23.01.45.12.67.32.29.27.44.61.44,1.02,0,.2-.03.4-.08.61-.05.24-.13.46-.24.67-.16.29-.34.55-.52.76-.18.2-.34.3-.48.3l-.19-.03c-.16-.03-.27-.03-.35,0-.21.08-.45.32-.72.71-.33.48-.68.72-1.04.72-.39,0-.68-.16-.87-.48-.2-.32-.3-.7-.3-1.15,0-.13.04-.52.13-1.18.09-.66.15-1.13.19-1.42.04-.29.09-.59.15-.91.06-.32.11-.58.16-.78.06-.16.12-.33.19-.5.07-.17.14-.33.21-.5.05-.07.08-.06.09.04-.09.55-.17,1.13-.24,1.73-.07.6-.12,1.02-.15,1.28-.03.26-.04.41-.04.45-.02.27-.03.47-.03.59,0,0,0,0,0,0,0,0,0,0,0,0-.01.81.33,1.21,1.03,1.21.28,0,.53-.08.74-.26.21-.18.37-.31.47-.4.14-.1.27-.14.38-.14.21.07.36.1.46.09.1,0,.19-.04.26-.09.07-.05.11-.14.11-.27,0-.08-.04-.17-.11-.27-.07-.08-.15-.13-.22-.13-.1.06-.23.09-.37.1-.16,0-.31-.04-.46-.1-.14-.06-.21-.16-.21-.29,0-.09.03-.21.08-.34.06-.15.14-.34.26-.57.11-.23.22-.43.33-.59.1-.15.19-.23.28-.23ZM68.33,14.83c-.05.08-.1.15-.15.21-.05.06-.11.12-.17.18-.02.02-.05.05-.08.08-.04.03-.08.06-.12.09-.04.03-.08.05-.12.06-.04.01-.07,0-.08-.01-.12-.1-.25-.2-.37-.3-.12-.1-.26-.19-.4-.28-.02-.02-.04-.03-.03-.05,0-.01.01-.04.03-.07l.83-1.22s.05-.05.07-.05c.02,0,.05.01.08.03.07.04.15.09.22.14.07.05.14.1.2.16.06.06.12.12.16.19.05.07.08.14.1.23.03.1.03.2,0,.3-.03.1-.08.21-.16.33ZM65.66,31.97c.22,0,.39.09.54.26s.23.39.26.63c0,.12,0,.25,0,.37-.01.12-.03.23-.05.31-.02.08-.05.19-.09.32-.04.13-.08.25-.12.36-.21.48-.38.83-.52,1.04-.14.21-.26.35-.36.43-.1.08-.24.14-.43.12-.19.16-.38.21-.59.26-.21.05-.36.07-.46.07-.04,0-.06,0-.06,0-.03-.03.12-.15.43-.34.31-.19.57-.36.78-.52.2-.16.39-.33.55-.52.16-.19.28-.38.35-.59-.04.02-.09.03-.14.05-.06.01-.11.03-.17.04-.06,0-.12.01-.17.02-.06,0-.1,0-.15,0-.2-.01-.36-.08-.49-.19-.13-.12-.19-.26-.18-.42.01-.08.03-.18.07-.3.04-.11.12-.29.24-.54.12-.25.25-.45.4-.61.14-.16.28-.24.4-.24ZM64.75,18.16c-.02.08-.05.19-.09.32-.04.13-.08.25-.12.36-.21.48-.38.83-.52,1.04-.14.21-.26.35-.36.43-.1.08-.24.14-.43.21-.19.06-.38.12-.59.17s-.36.07-.46.07c-.04,0-.06,0-.06,0-.03-.03.12-.15.43-.34.31-.19.57-.36.78-.52.2-.16.39-.33.55-.52.16-.19.28-.38.35-.59-.04.02-.09.03-.14.05-.06.01-.11.03-.17.04-.06,0-.12.01-.17.02-.06,0-.1,0-.15,0-.2-.01-.36-.08-.49-.19-.13-.12-.19-.26-.18-.42.01-.08.03-.18.07-.3.04-.11.12-.29.24-.54.12-.25.25-.45.4-.61.14-.16.28-.24.4-.24.22,0,.39.09.54.26.14.18.23.39.26.63,0,.12,0,.25,0,.37-.01.12-.03.23-.05.31ZM62.45,26.42c.05.07.08.14.1.23.03.1.03.2,0,.3-.03.1-.08.21-.16.33-.05.08-.1.15-.15.21-.05.06-.11.12-.17.18-.02.02-.05.05-.08.08s-.08.06-.12.09c-.04.03-.08.05-.12.06-.04.01-.07,0-.08-.01-.12-.1-.25-.2-.37-.3-.12-.1-.26-.19-.4-.28-.02-.02-.04-.03-.03-.05,0-.02.01-.04.03-.07l.83-1.22s.05-.05.07-.05c.02,0,.05.01.08.03.07.04.15.09.22.14.07.05.14.1.2.16.06.06.12.12.16.19ZM61.55,18.58c-.12.43-.23.77-.33.99-.1.23-.2.4-.32.52-.12.12-.33.23-.64.34s-.57.18-.78.23c-.21.04-.34.07-.39.07-.05,0-.09-.01-.1-.03-.01-.01,0-.05.04-.11.07-.09.2-.21.41-.37.21-.16.46-.35.74-.59.29-.23.5-.44.64-.62.14-.18.27-.42.38-.73.11-.31.22-.63.32-.97.1-.34.18-.57.23-.69.05-.12.09-.18.14-.18.06,0,.07.06.05.14-.15.88-.28,1.54-.4,1.97ZM60.07,25.4s.09-.07.13-.12c.05-.05.09-.09.14-.14.04-.04.08-.08.12-.11.03-.03.06-.04.07-.04.03,0,.05.02.06.07,0,.05-.01.12-.05.19-.08.16-.2.35-.35.56-.15.22-.32.41-.5.58-.33.32-.65.56-.95.72-.3.16-.66.24-1.07.26-.18,0-.35,0-.49-.01-.14,0-.33,0-.58,0-.24.01-.47.06-.67.15-.21.09-.39.18-.54.29-.02,0-.05,0-.07,0-.02,0-.04,0-.04-.02-.01-.01,0-.07.06-.16.06-.13.18-.29.34-.48.16-.19.38-.38.65-.57.27-.19.52-.32.76-.4.24-.07.54-.1.89-.09.18.02.35.02.51.01.16,0,.33-.04.5-.09.17-.05.34-.12.52-.22.18-.1.37-.23.57-.4ZM58.48,15.05c-.04.09-.08.19-.12.28-.04.09-.08.17-.12.25-.04.07-.07.13-.1.18-.03.05-.05.07-.07.06-.01,0-.03,0-.05-.01-.02-.02-.06-.03-.11-.03-.13,0-.32.04-.57.12-.25.08-.51.23-.79.45-.28.22-.49.42-.63.62-.15.19-.22.32-.22.4-.02.11.02.2.11.28.08.06.23.13.44.2.21.07.35.13.4.17.17.11.26.31.26.61,0,.45-.09.96-.27,1.54-.18.58-.43,1.08-.76,1.51-.14.2-.3.39-.5.59-.2.19-.41.36-.65.49-.45.3-.96.45-1.55.45-.66-.01-1.17-.22-1.51-.63-.16-.21-.26-.43-.32-.66-.06-.23-.09-.45-.09-.66.01-.38.06-.76.16-1.15.09-.38.21-.76.36-1.14.15-.37.31-.74.5-1.1.19-.36.38-.7.57-1.03.03-.05.05-.08.05-.09.04-.05.07-.08.11-.08h0s.01.03,0,.06c0,.03-.03.08-.06.16-.15.31-.31.63-.46.95-.15.32-.28.63-.38.92-.23.65-.32,1.17-.28,1.55.03.4.2.71.49.95.3.23.72.35,1.27.35.46,0,.9-.09,1.33-.28.32-.14.6-.31.85-.51.25-.2.44-.41.57-.62.13-.21.2-.39.2-.54,0-.16-.03-.12-.1-.17-.07-.05-.16-.09-.26-.12-.1-.03-.2-.06-.31-.09-.11-.03-.19-.05-.26-.08-.16-.06-.29-.14-.39-.25-.1-.11-.15-.28-.14-.5,0-.29.1-.63.29-1.03.19-.4.47-.81.81-1.24.31-.34.57-.6.78-.77.22-.18.42-.34.62-.48.2-.14.39-.25.59-.35.08-.04.15-.07.22-.1.09-.02.16-.03.2-.02.04.01.07.05.08.1-.02.06-.04.13-.07.22-.03.09-.07.18-.1.27ZM51.42,31.86c.06,0,.07.06.05.14-.15.88-.28,1.54-.4,1.97-.12.43-.23.77-.33.99-.1.23-.2.4-.32.52s-.33.23-.64.34c-.31.11-.57.18-.78.23-.21.04-.34.07-.39.07-.05,0-.09-.01-.1-.03-.01-.01,0-.05.04-.11.07-.09.2-.21.41-.37.21-.16.46-.35.74-.59.29-.23.5-.44.64-.62.14-.18.27-.42.38-.73.11-.31.22-.63.32-.97.1-.34.18-.57.23-.69.05-.12.09-.18.14-.18ZM47.99,30.44c-.04.09-.08.19-.12.28-.04.09-.08.17-.12.25-.04.07-.07.13-.1.18-.03.05-.05.07-.07.06-.01,0-.03,0-.05-.01-.02-.02-.06-.03-.11-.03-.13,0-.32.04-.57.12-.25.08-.51.23-.79.45-.28.22-.49.42-.63.62-.15.19-.22.32-.22.4-.02.11.02.2.11.28.08.06.23.13.44.2.21.07.35.13.4.17.17.11.26.31.26.61,0,.45-.09.96-.27,1.54-.18.58-.43,1.08-.76,1.51-.14.2-.3.39-.5.59-.2.19-.41.36-.65.49-.45.3-.96.45-1.55.45-.66-.01-1.17-.22-1.51-.63-.16-.21-.26-.43-.32-.66-.06-.23-.09-.45-.09-.66.01-.38.06-.76.16-1.15.09-.38.21-.76.36-1.14.15-.37.31-.74.5-1.1.19-.36.38-.7.57-1.03.03-.05.05-.08.05-.09.04-.05.07-.08.11-.08h0s.01.03,0,.06c0,.03-.03.08-.06.16-.15.31-.31.63-.46.95-.15.32-.28.63-.38.92-.23.65-.32,1.17-.28,1.55.03.4.2.71.49.95.3.23.72.35,1.27.35.46,0,.9-.09,1.33-.28.32-.14.6-.31.85-.51.25-.2.44-.41.57-.62.13-.21.2-.39.2-.54,0-.16-.03-.12-.1-.17-.07-.05-.16-.09-.26-.12-.1-.03-.2-.06-.31-.09-.11-.03-.19-.05-.26-.08-.16-.06-.29-.14-.39-.25-.1-.11-.15-.28-.14-.5,0-.29.1-.63.29-1.03.19-.4.47-.81.81-1.24.31-.34.57-.6.78-.77.22-.18.42-.34.62-.48.2-.14.39-.25.59-.35.08-.04.15-.07.22-.1.09-.02.16-.03.2-.02.04.01.07.05.08.1-.02.06-.04.13-.07.22-.03.09-.07.18-.1.27ZM38.69,35.22c-.07.12-.15.22-.23.32-.09.1-.2.18-.36.25-.15.07-.49.18-1,.34-.06.02-.11.02-.13,0,0,0,0-.02,0-.05,0-.03.03-.06.07-.09.09-.07.2-.15.32-.24.33-.24.61-.47.84-.7.22-.23.34-.41.36-.53.03-.14-.06-.33-.25-.55-.19-.22-.43-.42-.69-.61-.02-.02-.03-.03-.03-.05,0-.01,0-.03,0-.04l.24-.54.34-.74c.03-.06.05-.11.08-.15.02-.04.05-.05.08-.03.15.12.29.24.43.38.14.14.27.29.37.47.1.18.16.4.16.68,0,.33-.05.64-.16.94-.11.3-.26.62-.45.94ZM36.52,35.05c-.06.09-.12.17-.18.24-.06.08-.13.15-.2.21-.05.05-.09.08-.12.1-.03.02-.06.03-.09.04-.02,0-.05,0-.06,0-.02,0-.03-.02-.05-.03-.12-.09-.24-.19-.36-.28-.12-.1-.24-.18-.38-.27-.02-.02-.03-.04-.03-.05s0-.03.03-.06l.79-1.17s.05-.04.07-.04c.02,0,.05.01.08.03.07.04.14.08.21.13.07.05.14.1.2.15.06.06.11.12.16.18.05.07.08.14.09.22.03.09.03.19,0,.29-.03.1-.08.2-.15.31ZM36.25,28.63c-.11.16-.24.32-.39.48-.1.11-.21.2-.32.27-.11.07-.26.15-.45.24-.51.24-1.03.49-1.56.76-.53.27-.91.52-1.14.77h0l-.15.18c.47,0,.79,0,.96-.02.18-.02.29-.03.34-.04.13-.02.24-.04.33-.07.11-.02.18-.03.21-.03.1,0,.14.07.11.22-.02.1-.11.23-.26.37-.2.19-.34.35-.43.49-.14.23-.24.39-.3.48-.11.16-.22.3-.32.43-.51.62-1.06.93-1.66.93h0c-.16.03-.33,0-.52-.07-.04,0-.21.14-.51.4-.3.26-.59.36-.87.3h0c-.16-.03-.27-.03-.35,0-.21.08-.45.32-.72.71-.33.39-.68.72-1.04.72-.39,0-.68-.16-.87-.48-.2-.32-.3-.7-.3-1.15h0c0-.13.04-.52.13-1.18.09-.66.15-1.13.19-1.42.04-.29.09-.59.15-.91.06-.32.11-.58.16-.78.06-.16.12-.33.19-.5.07-.17.14-.33.21-.5.05-.07.08-.06.09.04-.09.55-.17,1.13-.24,1.73-.07.6-.12,1.02-.15,1.28-.03.26-.04.41-.04.45-.02.27-.03.47-.03.59,0,0,0,0,0,0,0,0,0,0,0,0-.01.81.33,1.21,1.03,1.21.28,0,.53-.08.74-.26.21-.18.37-.31.47-.4.14-.1.27-.14.38-.14h0c.1,0,.23.04.4.13.17.09.3.12.4.11.08-.01.14-.04.19-.09.05-.05.09-.09.12-.14-.15-.52-.07-1.04.26-1.57l.11-.17s.05-.05.07-.05c.02,0,.03.02.03.05-.02.17,0,.32.06.45.06.13.14.22.25.27h0c.1.03.3.04.61.01.32-.03.67-.17,1.05-.43.3-.21.45-.38.45-.5-.1.03-.23.04-.37.05-.1,0-.29.01-.58.01h-.4c-.15,0-.24,0-.3-.02-.06-.01-.08-.04-.06-.1.04-.13.14-.32.31-.57.13-.18.29-.35.47-.49,0,0,0,0,0,0,.13-.13.35-.33.66-.58s.68-.51,1.09-.75c.42-.25.83-.46,1.22-.64.4-.18.76-.38,1.09-.6.04-.03.07-.04.09-.03.02.01.02.03,0,.07-.09.16-.19.32-.3.48ZM29.69,28.23c-.06.09-.12.17-.18.24-.06.08-.13.15-.2.21-.05.05-.09.08-.12.1-.03.02-.06.03-.09.04-.02,0-.05,0-.06,0-.02,0-.03-.02-.05-.03-.12-.09-.24-.19-.36-.28-.12-.1-.24-.18-.38-.27-.02-.02-.03-.04-.03-.05s0-.03.03-.06l.79-1.17s.05-.04.07-.04c.02,0,.05.01.08.03.07.04.14.08.21.13.07.05.14.1.2.15.06.06.11.12.16.18.05.07.08.14.09.22.03.09.03.19,0,.29-.03.1-.08.2-.15.31ZM28.27,27.94l-.02.06s0,.01,0,.02c0,0,0,0,0,.01l-.02.06s-.01.03-.02.04c0,.01-.01.03-.02.04,0,0,0,0,0,0,0,0,0,0,0,0l-.03.05s-.02.03-.03.04c-.01.01-.02.02-.03.04,0,0-.01.01-.01.02l-.06.09-.03.04s-.01.01-.02.03c0,0-.01.02-.02.03-.01.02-.03.04-.04.05l-.08.1s-.01.01-.01.01c0,0-.01.02-.02.03,0,.01-.02.02-.03.03l-.03.03s-.02.03-.04.04l-.05.05-.03.02s-.07.05-.1.06h-.03s-.04,0-.04,0c-.03,0-.05,0-.07-.03-.08-.06-.15-.12-.22-.18-.07-.06-.15-.12-.23-.18-.02-.02-.05-.04-.07-.06-.07-.05-.14-.1-.21-.15,0,0,0,0,0,0-.02-.02-.03-.03-.03-.05s0-.03.03-.06l.8-1.17s0,0,0,0c.02-.03.05-.04.08-.04h.01s0,0,.01,0l.04.02s.01.01.02.01c0,0,.01,0,.02.01,0,0,.01,0,.02.01,0,0,.01,0,.02.01.01,0,.03.02.04.03.02.01.04.03.06.04.02.01.04.03.06.04h.02s.06.06.09.09c.03.02.06.05.08.08l.06.07.05.06s.04.07.06.1c0,.01.01.03.02.05l.02.05s0,0,0,.01,0,0,0,.01c0,.01,0,.02,0,.02,0,.01,0,.02,0,.03,0,.01,0,.02,0,.03,0,0,0,.01,0,.02,0,0,0,.02,0,.02v.07s0,.01,0,.02c0,0,0,.02,0,.02ZM25.54,27.78c-.01.21-.02.44-.03.69-.01.25-.02.5-.03.75-.01.25-.02.5-.03.75-.01.25-.02.48-.03.69-.04,1.02-.07,1.68-.1,1.98-.02.18-.04.36-.07.53-.11.86-.31,1.64-.59,2.35-.23.56-.52,1.09-.88,1.58-.84,1.1-1.86,1.65-3.04,1.64-.57-.02-1.04-.21-1.43-.56-.4-.35-.6-.85-.63-1.49,0-1.02.32-2.14.98-3.36l.2-.37s.03.03.03.12c0,.09-.05.21-.11.37-.08.19-.16.38-.24.57-.08.19-.15.38-.21.57-.06.19-.11.37-.14.56-.03.18-.04.36-.03.52.07.5.29.87.67,1.1s.82.36,1.32.38c.68,0,1.33-.16,1.95-.51.47-.3.84-.67,1.11-1.12.31-.47.5-1.24.56-2.31.01-.16.02-.35.02-.55.02-.54.04-1.08.05-1.61.01-.53.02-1.05.04-1.57.02-.52.04-.86.08-1.03.04-.17.07-.31.11-.43l.46-1.27s.06-.07.08-.06c.02,0,.03.05.03.13-.02.09-.03.22-.05.38-.01.17-.03.35-.04.57ZM16.68,30.19c-.03.17-.05.31-.06.4-.02.17-.04.36-.06.58-.02.21-.04.43-.06.66-.02.23-.03.45-.05.66-.02.21-.04.41-.06.58-.06.52-.14.94-.26,1.28-.11.34-.25.65-.4.93-.15.29-.28.44-.37.45-.02,0-.02-.06.02-.18.05-.11.09-.26.13-.43.04-.17.08-.35.11-.55.03-.2.06-.4.08-.6s.05-.4.06-.58c.02-.17.05-.43.06-.78.02-.35.04-.64.08-.88.03-.24.09-.45.16-.62l.54-1.23c.05-.1.08-.15.11-.15.05,0,.06.03.04.1-.02.07-.05.19-.07.36ZM14.84,31.75c-.03.09-.06.18-.09.29-.06.2-.12.37-.21.52-.08.15-.17.27-.26.37-.09.09-.19.17-.3.24-.11.07-.23.13-.35.18-.13.05-.24.11-.33.17-.09.06-.16.13-.22.2-.09.09-.17.22-.23.39-.07.17-.13.34-.21.52-.07.18-.15.36-.23.54-.09.18-.19.32-.32.43-.18.18-.44.3-.79.37l-.95.16s-.06,0-.1,0c-.04,0-.07,0-.09,0-.08-.02-.1-.07-.07-.15.03-.08.11-.16.24-.24.27-.17.48-.31.64-.41.16-.11.29-.19.39-.26.1-.07.18-.12.24-.17.06-.04.13-.09.2-.15.28-.2.48-.42.58-.64.06-.12.12-.23.17-.34.05-.11.11-.22.16-.33.06-.11.12-.21.18-.32.07-.11.14-.21.23-.32.09-.11.21-.21.36-.31.15-.1.34-.2.55-.3.25-.12.41-.28.48-.48.04-.09.09-.18.15-.27.06-.08.12-.13.18-.14.07,0,.09.08.05.22-.02.07-.04.14-.07.23ZM10,30.19c-.03.17-.05.31-.06.4-.02.17-.04.36-.06.58-.02.21-.04.43-.06.66-.02.23-.03.45-.05.66-.02.21-.04.41-.06.58-.06.52-.14.94-.26,1.28-.11.34-.25.65-.4.93-.15.29-.28.44-.37.45-.02,0-.02-.06.02-.18.05-.11.09-.26.13-.43.04-.17.08-.35.11-.55.03-.2.06-.4.08-.6.02-.21.05-.4.06-.58.02-.17.05-.43.06-.78.02-.35.04-.64.08-.88.03-.24.09-.45.16-.62l.54-1.23c.05-.1.08-.15.11-.15.05,0,.06.03.04.1-.02.07-.05.19-.07.36ZM7.88,31.63l-.08.75c-.01.08-.02.17-.03.25-.1,1.07-.32,2.03-.67,2.88-.23.56-.52,1.09-.88,1.58-.84,1.1-1.86,1.65-3.04,1.64-.57-.02-1.04-.21-1.43-.56-.4-.35-.6-.85-.62-1.49,0-1.02.32-2.14.98-3.36l.2-.37s.03.03.03.12c0,.09-.05.21-.11.37-.08.19-.16.38-.24.57-.08.19-.15.38-.21.57-.06.19-.1.37-.14.56s-.04.36-.03.52c.07.5.29.87.67,1.1.38.24.82.36,1.32.38.68,0,1.33-.16,1.95-.51.47-.3.84-.67,1.12-1.12.46-.6.66-1.43.59-2.48,0-.22.02-.42.07-.6.05-.18.2-.58.44-1.19.05-.14.09-.23.13-.26.03-.03.05-.03.07-.01.01.02.01.07,0,.15l-.08.52ZM5.3,34.21c-.05.07-.09.14-.14.19-.04.05-.08.1-.12.15-.04.04-.08.08-.12.12-.04.04-.18.08-.14.12-.02.02-.03.03-.05.03-.01,0-.02,0-.03,0-.05,0-.09-.02-.1-.05-.03-.04-.08-.08-.14-.14-.06-.06-.14-.12-.23-.19l-.43-.34s-.04-.05-.03-.08c.01-.03.02-.04.03-.06.11-.19.23-.39.36-.59.13-.2.24-.39.35-.56.02-.03.03-.05.04-.06.01-.01.02-.02.03-.02.01,0,.02,0,.04.01.01,0,.03.02.06.04.07.05.14.1.23.16.09.06.17.13.26.2.17.15.28.3.32.45.02.09.01.18-.02.28-.03.1-.08.21-.16.33ZM12.26,38.2s0,0,0-.01c.02-.03.05-.04.08-.04h.01s0,0,.01.01l.04.02s.01.01.02.01c0,0,.01,0,.02.01,0,0,.01,0,.02,0,0,0,.01,0,.02.02.01,0,.03.01.04.03.02.01.04.03.06.04.02.01.04.03.06.04l.02.02s.06.05.09.07.06.05.08.08l.06.07.05.06s.04.07.06.1c0,.01.01.03.02.05l.02.05s0,0,0,0,0,0,0,.02c0,.01,0,.02,0,.02,0,.01,0,.02,0,.03,0,.01,0,.02,0,.03,0,0,0,.01,0,.02,0,0,0,.02,0,.02v.07s0,.01,0,.02c0,0,0,.02,0,.02l-.02.06s0,.01,0,.01c0,0,0,0,0,.02l-.02.06s-.01.03-.02.04c0,.01-.01.03-.02.04,0,0,0,0,0,0,0,0,0,0,0,0l-.03.05s-.02.03-.03.04c-.01.01-.02.02-.03.04,0,0-.01.01-.01.02l-.06.09-.03.03s-.01.02-.02.03c0,.01-.01.02-.02.03-.01.02-.03.03-.04.05l-.08.1s-.01.01-.01.01c0,0-.01.02-.02.03,0,.01-.02.02-.03.03l-.03.03s-.02.03-.04.04l-.05.05-.03.02s-.07.05-.1.06h-.03s-.04,0-.04,0c-.03,0-.05,0-.07-.03-.08-.06-.15-.12-.22-.18-.07-.06-.15-.12-.23-.18-.02-.02-.05-.04-.07-.06-.07-.05-.14-.1-.21-.15,0,0,0,0,0,0-.02-.02-.03-.03-.03-.05s0-.03.03-.06l.8-1.17ZM13.85,38.1s.05-.04.07-.04.05.01.08.03c.07.04.14.08.21.13.07.05.14.1.2.15.06.06.11.12.16.18.05.07.08.14.09.22.03.09.03.19,0,.29-.03.1-.08.2-.15.31-.06.09-.12.17-.18.24s-.13.15-.2.21c-.05.05-.09.08-.12.1-.03.02-.06.03-.09.04-.02,0-.05,0-.06,0-.02,0-.03-.02-.05-.03-.12-.09-.24-.19-.36-.28-.12-.1-.24-.18-.38-.27-.02-.02-.03-.04-.03-.05s0-.03.03-.06l.79-1.17ZM29.83,39.17s0,0,0-.01c.02-.03.05-.04.08-.04h.01s0,0,.01.01h.04s.01.03.02.03c0,0,.01,0,.02.01,0,0,.01,0,.02,0,0,0,.01,0,.02.02.01,0,.03.01.04.03.02.01.04.03.06.04.02.01.04.03.06.04l.02.02s.06.05.09.07c.03.02.06.05.08.08l.06.07.05.06s.04.07.06.1c0,0,.01.03.02.05l.02.05s0,0,0,0,0,0,0,.02c0,0,0,.02,0,.02,0,.01,0,.02,0,.03,0,.01,0,.02,0,.03,0,0,0,.01,0,.02,0,0,0,.02,0,.02v.07s0,.01,0,.02c0,0,0,.02,0,.02l-.02.06s0,.01,0,.01c0,0,0,0,0,.02l-.02.06s-.01.03-.02.04-.01.03-.02.04c0,0,0,0,0,0,0,0,0,0,0,0l-.03.05s-.02.03-.03.04c-.01.01-.02.02-.03.04,0,0-.01.01-.01.01l-.06.09-.03.04s-.01.02-.02.03c0,.01-.01.02-.02.03-.01.02-.03.04-.04.05l-.08.1s-.01.01-.01.02c0,0-.01.01-.02.03,0,.01-.02.02-.03.03l-.03.03s-.02.03-.04.04l-.05.05-.03.02s-.07.05-.1.06l-.03-.08h-.04s-.05.08-.07.06c-.08-.06-.15-.12-.22-.18-.07-.06-.15-.12-.23-.18-.02-.02-.05-.04-.07-.06-.07-.05-.14-.1-.21-.15,0,0,0,0,0,0-.02-.02-.03-.03-.03-.05s0-.03.03-.06l.8-1.17ZM31.42,39.07s.05-.04.07-.04c.02,0,.05.01.08.03.07.04.14.08.21.13.07.05.14.1.2.15.06.06.11.12.16.18.05.07.08.14.09.22.03.09.03.19,0,.29-.03.1-.08.2-.15.31-.06.09-.12.17-.18.24-.06.08-.13.15-.2.21-.05.05-.09.08-.12.1-.03.02-.06.03-.09.04-.02,0-.05,0-.06,0-.02,0-.03-.01-.05-.03-.12-.09-.24-.19-.36-.28-.12-.1-.24-.18-.38-.27-.02-.02-.03-.04-.03-.05s0-.03.03-.06l.79-1.17ZM31.54,38.53s-.04-.03-.03-.05c0-.02.01-.04.03-.07l.83-1.22s.05-.05.07-.05c.02,0,.05.01.08.03.07.04.15.09.22.14.07.05.14.1.2.16.06.06.12.12.16.19s.08.14.1.23c.03.1.03.2,0,.3-.03.1-.08.21-.16.33-.05.08-.1.15-.15.21-.05.06-.11.12-.17.18-.02.02-.05.05-.08.08-.04.03-.08.06-.12.09-.04.03-.08.05-.12.06-.04.01-.07,0-.08-.01-.12-.1-.25-.2-.37-.3-.12-.1-.26-.19-.4-.28ZM34.28,33.88s0,0,0-.01c.02-.03.05-.04.08-.03h.01s0,0,.01,0l.04.02s.01.01.02.01c0,0,.01,0,.02.01,0,0,.01,0,.02.01,0,0,.01,0,.02.01.01,0,.03.02.04.03.02.01.04.03.06.04s.04.03.06.04l.02.02s.06.05.09.07c.03.02.06.05.08.08l.06.07.05.06s.04.07.06.1c0,.01.01.03.02.05l.02.05s0,0,0,.01,0,0,0,.01c0,.01,0,.02,0,.02,0,.01,0,.02,0,.03,0,.01,0,.02,0,.03,0,0,0,.01,0,.02,0,0,0,.02,0,.02v.07s0,.01,0,.02,0,.02,0,.02l-.02.06s0,.01,0,.01,0,0,0,.02l-.02.06s-.01.03-.02.04c0,.01-.01.03-.02.04,0,0,0,0,0,0,0,0,0,0,0,0l-.03.05s-.02.03-.03.04c-.01.01-.02.02-.03.04,0,0-.01.01-.01.02l-.06.09-.03.03s-.01.02-.02.03c0,0-.01.02-.02.03-.01.02-.03.04-.04.05l-.08.1s-.01.01-.01.01c0,0-.01.02-.02.03,0,.01-.02.02-.03.03l-.03.03s-.02.03-.04.04l-.05.05-.03.02s-.07.05-.1.06h-.03s-.04,0-.04,0c-.03,0-.05,0-.07-.03-.08-.06-.15-.12-.22-.18-.07-.06-.15-.12-.23-.18-.02-.02-.05-.04-.07-.06-.07-.05-.14-.1-.21-.15,0,0,0,0,0,0-.02-.02-.03-.03-.03-.05s0-.03.03-.06l.8-1.17ZM52.83,35.28c.2-.16.39-.33.55-.52.16-.19.28-.38.35-.59-.04.02-.09.03-.14.05-.06.01-.11.03-.17.04-.06,0-.12.01-.17.02-.06,0-.1,0-.15,0-.2-.01-.36-.08-.49-.19-.13-.12-.19-.26-.18-.42.01-.08.03-.18.07-.3.04-.11.12-.29.24-.54.12-.25.25-.45.4-.61.14-.16.28-.24.4-.24.22,0,.39.09.54.26s.23.39.26.63c0,.12,0,.25,0,.37-.01.12-.03.23-.05.31-.02.08-.05.19-.09.32-.04.13-.08.25-.12.36-.21.48-.38.83-.52,1.04-.14.21-.26.35-.36.43-.1.08-.24.14-.43.12-.19.16-.38.21-.59.26-.21.05-.36.07-.46.07-.04,0-.06,0-.06,0-.03-.03.12-.15.43-.34.31-.19.57-.36.78-.52ZM56.06,35.12c.04-.17.08-.35.11-.55.03-.2.06-.4.08-.6.02-.21.05-.4.06-.58.02-.17.05-.43.06-.78.02-.35.04-.64.08-.88.03-.24.09-.45.16-.62l.54-1.23c.05-.1.08-.15.11-.15.05,0,.06.03.04.1-.02.07-.05.19-.07.36-.03.17-.05.31-.06.4-.02.17-.04.36-.06.58-.02.21-.04.43-.06.66-.02.23-.03.45-.05.66-.02.21-.04.41-.06.58-.06.52-.14.94-.26,1.28-.11.34-.25.65-.4.93-.15.29-.28.44-.37.45-.02,0-.02-.06.02-.18.05-.11.09-.26.13-.43ZM59.52,35.28c.2-.16.39-.33.55-.52.16-.19.28-.38.35-.59-.04.02-.09.03-.14.05-.06.01-.11.03-.17.04-.06,0-.12.01-.17.02-.06,0-.1,0-.15,0-.2-.01-.36-.08-.49-.19-.13-.12-.19-.26-.18-.42.01-.08.03-.18.07-.3.04-.11.12-.29.24-.54.12-.25.25-.45.4-.61.14-.16.28-.24.4-.24.22,0,.39.09.54.26.13.16.2.34.24.55.12-.06.23-.12.31-.19.12-.09.18-.28.2-.28.02-.07.02-.14.02-.21,0-.07-.02-.14-.03-.22-.01-.08-.02-.16-.02-.23s0-.13.02-.17c.01-.06.17-.53.49-1.41.03-.05.06-.05.09,0,.02.03.03.09.03.18l-.02,1.19c-.01.42-.11.83-.3,1.21-.19.38-.37.67-.55.86-.16.17-.27.29-.36.36-.04.13-.08.25-.12.35-.21.48-.38.83-.52,1.04-.14.21-.26.35-.36.43-.1.08-.24.14-.43.12-.19.16-.38.21-.59.26-.21.05-.36.07-.46.07-.04,0-.06,0-.06,0-.03-.03.12-.15.43-.34.31-.19.57-.36.78-.52ZM90.98,32.78s.02,0,.03.03c0,.02,0,.06,0,.1,0,.04-.01.09-.03.14-.01.05-.03.11-.06.17l-.03.05c-.08.19-.16.38-.23.57-.07.19-.13.38-.18.57-.05.19-.09.37-.13.56-.03.18-.05.36-.04.52.06.5.27.87.64,1.1.37.24.81.36,1.31.39.68,0,1.33-.17,1.95-.52.47-.3.84-.67,1.12-1.12.43-.62.63-1.49.61-2.58,0-.14,0-.29,0-.43s0-.29-.01-.43c0-.07,0-.14.02-.19.05-.25.21-.37.48-.35.08.01.15.01.23.01.08,0,.14,0,.17-.02.13-.02.25-.07.36-.13.11-.07.2-.16.28-.28,0,0,.01-.01.02-.02.02-.01.04-.02.06-.01.05.02.1.03.14.03.04,0,.08,0,.12-.03.04-.03.09-.07.14-.23.05.03.11-.07.17-.2.05-.12.1-.17.14-.15.03.01.04.08.02.21-.05.28-.13.52-.24.71-.11.19-.22.33-.33.41-.11.08-.26.12-.43.12-.08.12-.19.23-.31.32-.12.09-.3.15-.52.18-.01.06-.02.13-.03.2-.09,1.07-.31,2.03-.66,2.88-.23.47-.52,1.09-.88,1.58-.84,1.1-1.86,1.65-3.04,1.65-.58-.03-1.06-.22-1.46-.57-.4-.35-.6-.85-.63-1.49.01-1.02.35-2.14,1.01-3.36l.19-.37ZM97.02,25.22s.05-.04.07-.04c.02,0,.05.01.08.03.07.04.14.08.21.13.07.05.14.1.2.15.06.06.11.12.16.18.05.07.08.14.09.22.03.09.03.19,0,.29-.03.1-.08.2-.15.31-.06.09-.12.17-.18.24-.06.08-.13.15-.2.21-.05.05-.09.08-.12.1-.03.02-.06.03-.09.04-.02,0-.05,0-.06,0-.02,0-.03-.02-.05-.03-.12-.09-.24-.19-.36-.28-.12-.1-.24-.18-.38-.27-.02-.02-.03-.04-.03-.05s0-.03.03-.06l.79-1.17ZM95.78,20.68s0,0,0,0l-.03.05s-.02.03-.03.04c-.01.01-.02.02-.03.04,0,0-.01.01-.01.01l-.06.09-.03.04s-.01.01-.02.03c0,.01-.01.02-.02.03-.01.02-.03.04-.04.05l-.08.1s-.01.01-.01.02c0,0-.01.01-.02.03,0,0-.02.02-.03.03l-.03.03s-.02.03-.04.04l-.05.05-.03.02s-.07.05-.1.06h-.03s-.04.01-.04.01c-.03,0-.05-.01-.07-.03-.08-.06-.15-.12-.22-.18-.07-.06-.15-.12-.23-.18-.02-.02-.05-.04-.07-.06-.07-.05-.14-.1-.21-.15,0,0,0,0,0,0-.02-.02-.03-.03-.03-.05s0-.03.03-.06l.8-1.17s0,0,0,0c.02-.03.05-.04.08-.04h.01s0,0,.01.01h.04s.01.03.02.03c0,0,.01,0,.02.01,0,0,.01,0,.02.01,0,0,.01,0,.02.01.01,0,.03.02.04.03.02.01.04.03.06.04.02.01.04.03.06.04h.02s.06.06.09.09c.03.02.06.05.08.08l.06.07.05.06s.04.07.06.1c0,.01.01.03.02.05l.02.05s0,0,0,.01,0,0,0,.01c0,.01,0,.02,0,.02,0,.01,0,.02,0,.03,0,0,0,.02,0,.03,0,0,0,.01,0,.02,0,0,0,.02,0,.02v.07s0,.01,0,.02c0,0,0,.02,0,.02l-.02.06s0,.01,0,.02c0,0,0,0,0,.01l-.02.06s-.01.03-.02.04c0,.01-.01.03-.02.04,0,0,0,0,0,0ZM96.23,27.08h.01s.01,0,.03.02c0,0,.01.01.02.01.05.03.09.05.14.08.05.03.09.06.14.09l.06.05s.07.06.1.09c.03.03.06.06.09.1l.03.04.05.08v.02s.02.03.03.05c0,.01.01.03.02.05l.02.05s0,.02,0,.03c0,0,0,.01,0,.02,0,0,0,.01,0,.02s0,.01,0,.01c0,0,0,0,0,.02,0,.06,0,.12-.02.18,0,0,0,.01,0,.01,0,0,0,0,0,.02l-.02.06-.02.03s0,.01,0,.03c0,0,0,.02-.01.03l-.03.06-.06.1-.09.13s-.04.05-.06.08-.04.05-.06.08c-.03.03-.06.06-.08.09-.03.03-.06.06-.09.09l-.05.05-.03.02s-.08.06-.11.07c-.03.01-.05.01-.08,0-.01,0-.03,0-.03-.01,0,0-.02-.01-.02-.02l-.12-.1-.05-.05-.31-.24-.04-.03c-.07-.05-.14-.1-.21-.15-.02-.02-.03-.03-.03-.05s0-.04.03-.06l.8-1.17s.05-.05.08-.05ZM98.01,28.75s-.09.08-.12.1c-.03.02-.06.03-.09.04-.02,0-.05,0-.06,0-.02,0-.03-.02-.05-.03-.12-.09-.24-.19-.36-.28-.12-.1-.24-.18-.38-.27-.02-.02-.03-.04-.03-.05s0-.03.03-.06l.79-1.17s.05-.04.07-.04c.02,0,.05.01.08.03.07.04.14.08.21.13.07.05.14.1.2.15.06.06.11.12.16.18.05.07.08.14.09.22.03.09.03.19,0,.29-.03.1-.08.2-.15.31-.06.09-.12.17-.18.24-.06.08-.13.15-.2.21ZM102.72,23.38l-.03.05-.06.1s-.01.01-.02.02c0,0-.01.02-.02.03,0,.01-.01.03-.02.04,0,.01-.02.02-.03.04-.01.02-.03.04-.04.05,0,0-.01.01-.02.03,0,0-.01.02-.02.03l-.05.06-.04.05-.06.07s-.02.03-.03.04c-.01.01-.03.02-.04.04-.06.06-.11.09-.14.11,0,0-.01.01-.02.01,0,0-.01,0-.02,0-.03.01-.05.01-.07.01-.03,0-.05-.01-.07-.03l-.04-.03s-.06-.04-.09-.07l-.05-.04s-.1-.08-.15-.12c-.05-.04-.1-.08-.16-.12l-.04-.03s-.07-.05-.1-.07c-.03-.02-.07-.04-.11-.07-.02-.02-.03-.03-.03-.05s0-.04.03-.06l.8-1.17.02-.02h.02s.03-.03.06-.03c0,0,0,0,.01,0h.02s.02.02.02.02l.08.05.04.03s.04.03.06.04c.02.01.04.03.06.05l.02.02.11.09.09.09.03.04s.06.08.09.14c0,.01.01.02.02.03,0,.01,0,.02.01.03l.02.05.02.05v.07s.01.01.01.01c0,0,0,0,0,.01v.15s-.02.03-.02.03c0,.02-.01.04-.02.06,0,.02-.01.04-.02.06v.03s-.03.03-.03.03ZM102.83,24.09c.07.04.14.08.21.13.07.05.14.1.2.15.06.06.11.12.16.18.05.07.08.14.09.22.03.09.03.19,0,.29-.03.1-.08.2-.15.31-.06.09-.12.17-.18.24-.06.08-.13.15-.2.21-.05.05-.09.08-.12.1-.03.02-.06.03-.09.04-.02,0-.05,0-.06,0-.02,0-.03-.02-.05-.03-.12-.09-.24-.19-.36-.28-.12-.1-.24-.18-.38-.27-.02-.02-.03-.04-.03-.05s0-.03.03-.06l.79-1.17s.05-.04.07-.04c.02,0,.05.01.08.03ZM100.01,35.28c.2-.16.39-.33.55-.52.16-.19.28-.38.35-.59-.04.02-.09.03-.14.05-.06.01-.11.03-.17.04-.06,0-.12.01-.17.02-.06,0-.1,0-.15,0-.2-.01-.36-.08-.49-.19-.13-.12-.19-.26-.18-.42.01-.08.03-.18.07-.3.04-.11.12-.29.24-.54.12-.25.25-.45.4-.61.14-.16.28-.24.4-.24.22,0,.39.09.54.26.12.14.19.31.23.5,0,0,0,0,.01-.01.11-.09.19-.15.22-.18.06-.06.13-.16.21-.31.08-.16.15-.31.19-.44.1-.22.18-.38.23-.49.06-.11.14-.21.23-.3.14-.13.27-.2.41-.2.09,0,.2.04.32.11.07.05.14.11.19.18.02-.02.09-.13.21-.34.06-.1.11-.16.16-.16.06,0,.13.06.22.18.09.11.14.21.14.3,0,.26-.08.49-.23.69-.17.2-.36.31-.58.31-.07,0-.17-.03-.31-.08-.14-.05-.24-.08-.3-.08-.16,0-.29.1-.4.31-.28.55-.43.82-.44.83-.2.31-.39.57-.58.77,0,.01,0,.02,0,.03-.04.13-.08.25-.13.36-.21.48-.38.83-.52,1.04-.14.21-.26.35-.36.43-.1.08-.24.14-.43.12-.19.16-.38.21-.59.26-.21.05-.36.07-.46.07-.04,0-.06,0-.06,0-.03-.03.12-.15.43-.34.31-.19.57-.36.78-.52ZM103.83,34.4c-.44.66-.7,1.27-.79,1.83.32.17.49.36.5.57,0,.15-.05.28-.14.41-.09.13-.2.19-.33.19s-.23-.06-.29-.19c-.06-.12-.09-.26-.09-.41,0-.35.14-.83.42-1.43.28-.6.52-.93.72-.97Z"/>
  <g>
    <g id="a" class="st4">
      <g id="b">
        <path class="st0" d="M131.01,32.02c-.75-.34-1.53-.61-2.34-.82-1.34-.33-3.54-.49-5.99-.26-.79.08-1.58.19-2.38.35-.79.15-1.57.35-2.35.58-1.19,2.76-2.42,5.52-3.61,8.28,1.86-1.47,3.96-2.58,6.19-3.28,1.95-.61,4.29-.96,7-.71,1.77.17,3.61.66,4.73,1.88.41.45.64.89.77,1.3.21.68.18,1.46-.1,2.24-.64,1.79-2.44,2.62-2.42,2.65.02.03,2.19-.88,3.73-3.22.3-.46.56-.93.77-1.43-1.33-2.52-2.65-5.04-3.98-7.56h0Z"/>
      </g>
    </g>
    <g id="c" class="st4">
      <g id="d">
        <path class="st0" d="M129.53,3.02c-.45.44-1.2,1.21-1.82,2.04-.25.33-.4.57-.46.66-.25.4-.47.81-.67,1.25.15.42.26.86.34,1.3.09.55.03.99.1,1.55.07.59.31,1.3.56,1.86,1.05,2.38,12.54,23.75,16.91,31.85.59.18,1.57.4,2.79.29,1.43-.13,2.49-.67,3.04-1L129.53,3.02Z"/>
      </g>
    </g>
    <g id="e" class="st4">
      <g id="f">
        <path class="st1" d="M127.78,12.1c-.06-.12-.12-.27-.12-.27-.06-.14-.1-.21-.14-.31-.02-.05-.08-.19-.15-.37-.09-.23-.14-.42-.17-.51-.04-.14-.07-.24-.08-.3-.02-.07-.03-.12-.03-.15,0-.03-.02-.09-.03-.16-.01-.07-.03-.16-.04-.27-.02.22-.06.5-.11.83,0,0-.11.72-.29,1.44-.34,1.37-1.49,3.96-2.75,6.28,2.93,5.68,10.84,21.14,12.37,23.59.14.22.29.43.45.63,1.01,1.23,2.46,1.98,3.86,2.29,1.48.32,3.02.15,4.41-.46-.88-1.64-17.03-31.96-17.19-32.28h0Z"/>
      </g>
    </g>
    <g id="g" class="st4">
      <g id="h">
        <path class="st3" d="M126.6,6.98c-.57-1.64-1.72-3.01-3.19-3.98-6.19,13.82-12.38,27.64-18.57,41.46,1.77.62,3.7.59,5.44-.12,1.47-.6,2.7-1.64,3.55-2.98,3.33-7.63,6.66-15.26,9.99-22.89.96-1.79,1.92-3.75,2.52-5.42.41-1.12.65-2.08.67-3.22.02-1.12-.14-2.05-.41-2.85h0Z"/>
      </g>
    </g>
  </g>
</svg>