<?xml version="1.0" encoding="UTF-8"?>
<svg id="Layer_1" xmlns="http://www.w3.org/2000/svg" version="1.1" viewBox="0 0 195.31 48">
  <!-- Generator: Adobe Illustrator 29.6.1, SVG Export Plug-In . SVG Version: 2.1.1 Build 9)  -->
  <defs>
    <style>
      .st0 {
        fill: #319e59;
      }

      .st1 {
        fill: #f6978e;
      }

      .st2 {
        fill: #f68e88;
      }

      .st3 {
        fill: #fdfdfe;
      }

      .st4 {
        fill: #f8cdc6;
      }

      .st5 {
        fill: #f7cec6;
      }

      .st6 {
        fill: #2c2b87;
      }

      .st7 {
        fill: #39a362;
      }

      .st8 {
        fill: #f35854;
      }

      .st9 {
        fill: #f6968d;
      }

      .st10 {
        fill: #fefeff;
      }

      .st11 {
        fill: #4ba667;
      }

      .st12 {
        fill: #ed1c24;
      }

      .st13 {
        fill: #f69891;
      }

      .st14 {
        fill: #f13b3b;
      }

      .st15 {
        fill: #99cfad;
      }

      .st16 {
        fill: #f24d49;
      }

      .st17 {
        fill-rule: evenodd;
      }

      .st18 {
        fill: #90c7a1;
      }

      .st19 {
        fill: #009344;
      }

      .st20 {
        fill: #fff;
      }

      .st21 {
        fill: #f03b3d;
      }

      .st22 {
        fill: #a6d2b4;
      }

      .st23 {
        fill: #f13a39;
      }

      .st24 {
        fill: #fefefe;
      }

      .st25 {
        fill: #2c2c87;
      }

      .st26 {
        fill: #facbc3;
      }

      .st27 {
        fill: #ef3a3c;
      }

      .st28 {
        fill: #f24e4b;
      }

      .st29 {
        fill: #94cca9;
      }

      .st30 {
        fill: #f7a49c;
      }

      .st31 {
        fill: #ef3237;
      }

      .st32 {
        fill: #feffff;
      }

      .st33 {
        fill: #91caa5;
      }

      .st34 {
        fill: #fdfefe;
      }

      .st35 {
        fill: #2b2c88;
      }

      .st36 {
        fill: #58ac72;
      }

      .st37 {
        fill: #f36661;
      }
    </style>
  </defs>
  <g>
    <path class="st35" d="M193.65,6.28c.07.1.04.21.04.31.01,3.13.02,6.27.03,9.4,0,.66,0,1.32.02,1.98,0,.19-.05.27-.24.32-.83.23-1.67.36-2.52.45-1.11.12-2.23.2-3.35.15-1.29-.05-2.56-.2-3.8-.57-.04-.01-.09-.04-.14-.01-.07.08-.03.18-.03.27,0,8.17,0,16.33,0,24.5,0,.54,0,.54-.53.54-.26,0-.53-.02-.79,0-2.47.18-4.94.05-7.41.08-2.48.02-4.95,0-7.43,0h-14.82c-2.48,0-4.95,0-7.43,0-.19,0-.38,0-.56-.08-.12-.04-.15-.1-.14-.2,0-.08,0-.17,0-.25,0-12.66,0-25.32,0-37.97,0-.47-.07-.43.42-.43,8.3,0,16.61,0,24.91,0,.31,0,.54-.08.75-.31.29-.33.64-.61.99-.88,1.6-1.23,3.36-1.5,5.27-.85.82.28,1.6.66,2.35,1.09,1.13.64,2.24,1.3,3.38,1.93,1.18.65,2.42,1.18,3.75,1.44,1.28.26,2.57.38,3.87.18,1.08-.16,2.1-.51,3.08-.97.09-.04.17-.08.26-.12.02,0,.05,0,.07,0Z"/>
    <path class="st20" d="M183.34,17.86v1.17c0,7.93,0,15.85,0,23.78,0,.54.08.48-.47.48-12.51,0-25.02,0-37.53,0-.55,0-.47.05-.47-.49,0-12.42,0-24.84,0-37.25,0-.55-.06-.47.49-.47,8.23,0,16.47,0,24.7,0,.25,0,.43-.06.61-.23.29-.29.59-.57.9-.83.81-.67,1.71-1.16,2.77-1.3.85-.11,1.67.03,2.48.3.9.3,1.74.75,2.57,1.22,1.22.69,2.41,1.44,3.67,2.08,1.75.9,3.6,1.39,5.56,1.46,1.51.06,2.96-.28,4.34-.87.13-.06.25-.14.44-.16,0,.13,0,.26,0,.39,0,2.35.01,4.71.02,7.06,0,1.18.01,2.35.02,3.53,0,.28,0,.29-.27.37-.7.2-1.41.3-2.13.36-1.33.12-2.66.16-4,.07-1.21-.08-2.42-.21-3.56-.67-.02,0-.05,0-.12,0Z"/>
    <path d="M170.44,16.77c.54-.39,1.02-.74,1.51-1.09.55-.39,1.12-.75,1.71-1.07,1.24-.69,2.5-.67,3.77-.11.59.26,1.11.62,1.63.99.58.41,1.14.84,1.74,1.22.48.31.96.6,1.48.82.24.1.28.23.28.46-.01,1.33,0,2.67,0,4,0,6.71,0,13.43,0,20.14,0,.49.07.44-.44.44-12.02,0-24.03,0-36.05,0-.5,0-.43.05-.43-.45,0-11.95,0-23.9,0-35.84,0-.55-.07-.47.48-.47,7.94,0,15.89,0,23.83,0,.48,0,.44-.08.44.44.02,3.4.03,6.8.04,10.19,0,.09,0,.19.01.34Z"/>
    <path class="st19" d="M171.36,5.63c.66-.61,1.38-1.12,2.19-1.49,1.14-.52,2.29-.55,3.47-.11.72.27,1.39.65,2.04,1.06.79.51,1.56,1.03,2.35,1.53,1.24.79,2.55,1.44,3.97,1.82,1.85.5,3.72.52,5.6.18.51-.09,1.01-.21,1.51-.32.1.25.04.51.04.77.01.52,0,1.05,0,1.58,0,.24-.1.34-.36.38-.35.06-.74.04-1.05.28-.06.05-.14.06-.21.03-.3-.11-.59-.02-.88.01-.29,0-.58-.03-.86.06-.13.01-.26,0-.38.02-.5.05-.99-.02-1.49,0-.08,0-.15-.04-.23-.07-.36-.01-.7-.11-1.07-.09-.24.01-.46-.19-.71-.21-.53-.1-.98-.42-1.52-.5-.03,0-.07-.02-.1-.04-.66-.41-1.41-.66-2.05-1.11-.68-.48-1.43-.86-2.11-1.35-.59-.42-1.25-.73-1.89-1.07-.58-.31-1.2-.46-1.85-.54-.34-.04-.67-.01-1-.06-.25-.04-.42.14-.64.19-.56.11-1.04.39-1.52.67-.31.18-.58.42-.88.61-.32.2-.42.14-.42-.23,0-.67-.02-1.34.02-2.02Z"/>
    <path class="st12" d="M192.51,17.24c-.38.16-.79.2-1.18.27-1.08.19-2.17.27-3.26.25-2.14-.04-4.14-.6-6.03-1.6-1.15-.61-2.21-1.35-3.31-2.04-.63-.4-1.27-.77-1.98-1.01-1.04-.36-2.05-.31-3.04.15-.85.39-1.57.97-2.25,1.6-.08.01-.1-.04-.1-.1.01-.85-.04-1.69.03-2.54.49-.62,1.13-1.05,1.81-1.43.16-.07.33-.13.47-.24,1.14-.63,2.29-.44,3.44-.02.37.14.75.25,1.06.51.05.02.09.04.14.05.33.07.49.38.78.54,1.05.55,1.99,1.31,3.05,1.85.74.37,1.45.83,2.25,1.07.47.16.94.35,1.43.44.54.1,1.08.26,1.64.21.03,0,.07,0,.1,0,.39.03.78,0,1.17.05.03,0,.07,0,.1,0,.03,0,.07,0,.1,0,.07,0,.14,0,.21,0,.09,0,.18,0,.27,0,.07,0,.14,0,.21,0,.12,0,.24-.01.34-.08.43-.1.86-.23,1.32-.25.25,0,.49-.06.73-.16.19-.08.37-.09.51.09h0c.06.79.06,1.58,0,2.37Z"/>
    <path class="st33" d="M171.36,5.63v2.25c.2-.01.33-.12.45-.21.37-.3.78-.54,1.2-.77.79-.44,1.62-.68,2.53-.6.15.01.29.06.46.02.15-.04.35.06.52.12.17.06.33.12.5.17.45.11.82.4,1.22.59.58.27,1.11.63,1.64.98.84.54,1.7,1.06,2.55,1.59.37.23.81.36,1.19.57.09.05.18.08.15.21-.01.25-.16.23-.32.15-.36-.16-.7-.36-1.06-.5h0c-.88-.51-1.73-1.06-2.6-1.59h0c-.05-.08-.15-.09-.22-.15h0c-.23-.23-.52-.35-.8-.5h0c-.07-.06-.15-.11-.23-.16-.05,0-.11.04-.13-.04-.11-.19-.32-.24-.51-.31h0c-.08-.08-.2-.1-.29-.14h0c-1.24-.65-2.5-.81-3.85-.32-.79.29-1.44.78-2.11,1.24-.1.07-.17.22-.33.15-.08-.18-.06-.38-.07-.56-.01-.65,0-1.29,0-1.94,0-.08-.02-.17.06-.23Z"/>
    <path class="st13" d="M184.36,14.66c-.32-.03-.57-.25-.88-.33-.18-.05-.4-.11-.51-.24-.22-.25-.56-.2-.8-.4-.24-.19-.53-.32-.79-.48-.27-.17-.54-.35-.81-.52-.26-.16-.53-.33-.79-.49-.11-.07-.25-.1-.27-.26,0-.04-.03-.08-.07-.07-.36.04-.55-.3-.85-.4-.09-.03-.15-.1-.17-.21-.02-.12-.11-.01-.17-.02-.1-.11-.05-.2.04-.27.1-.09.2-.05.29.01.48.32.97.63,1.47.91h0c.25.17.46.4.78.45.41.25.83.5,1.24.74.09.05.12.14.2.19.67.38,1.35.73,2.08.99.02.02.04.04.04.07,0,.06.03.11.04.16,0,.07,0,.13-.07.16Z"/>
    <path class="st1" d="M178.16,11.18c-.25-.12-.52-.21-.76-.35-.3-.18-.64-.26-.97-.35-.31-.08-.62-.15-.95-.16-.63-.02-1.22.09-1.77.38-.05.02-.09.02-.14.01-.12-.02-.26-.01-.3-.15-.06-.17.17-.14.2-.25.91-.47,1.87-.54,2.86-.33.57.12,1.12.32,1.63.62.02.07.07.12.14.15.25.11.23.25.07.43Z"/>
    <path class="st31" d="M182.4,12.47c.11.02.19.03.33.06-.4.15-.74.12-1.12.03.09-.09.2-.03.25-.11-.52-.54-.59-1.03-.14-1.59-.15.53-.16.97.19,1.33.12-.02.09-.11.09-.17,0-.38-.02-.77,0-1.15,0-.14-.13-.16-.13-.28h.52c-.11.13-.14.27-.14.44.02.39,0,.78,0,1.2.38-.32.43-.56.31-1.29.41.42.35.95-.18,1.54Z"/>
    <path class="st2" d="M189.62,15.36c-.07,0-.15-.01-.22-.02-.06-.06-.06-.12-.04-.2.03-.07.1-.1.16-.14.03-.02.06-.03.1-.03.14-.05.32,0,.43-.13.21-.1.45-.07.67-.12.37.05.72-.08,1.06-.18.25-.03.5-.02.72-.18.07.05.06.12.04.18-.04.1-.03.2-.03.31-.18,0-.36.02-.53.08-.28.1-.58.15-.87.16-.27.01-.5.18-.78.11-.1-.02-.22.06-.34.09-.12.05-.26-.03-.37.04Z"/>
    <path class="st28" d="M190.04,14.85s.12,0,.07.07c-.07.09-.28,0-.29.19-.06-.05-.12-.12-.2-.03-.18-.08-.38,0-.56-.04-.05,0,0,.08-.01.03,0,0,0-.01.02-.01.16,0,.32-.06.47.04-.05.02-.1.05-.14.07-.05.13-.12.21-.27.15-.11-.06-.21-.06-.29.05-.02,0-.04.01-.07.01-.32-.25-.89-.29-1.25-.07h-.02s-.02,0-.02,0c-.47-.17-.94-.33-1.45-.21-.02,0-.05.01-.07,0-.42-.33-.97-.32-1.42-.57-.07-.04-.13-.11-.16-.19-.25-.12-.25-.12-.51-.08-.04,0-.05,0-.08-.04-.28-.29-.65-.44-1.01-.59-.19-.08-.4-.15-.51-.35.13-.02.22.08.32.13,1.15.61,2.34,1.08,3.62,1.33,1.14.22,2.28.26,3.43.14.13-.01.26-.02.39-.03Z"/>
    <path class="st0" d="M171.37,8.37c.31-.22.67-.39.91-.71.04-.05.06-.06.11-.04.08.04.14-.01.2-.05.12-.09.25-.25.36-.28.19-.04.29-.14.39-.27.02-.03.06-.06.09-.06.46.01.84-.23,1.25-.39.04-.02.06-.02.08,0,.09.13.23.03.33.07.14.06.22-.13.36-.04.13.09.28-.03.42,0,.28.06.55.15.83.23.08.02.17.08.24.07.36-.07.49.26.74.39-.17,0-.32-.11-.47-.17-1.32-.54-2.62-.49-3.89.14-.59.29-1.14.66-1.65,1.08-.07.05-.13.11-.2.16-.04.03-.09.04-.12-.02-.02-.05,0-.09.04-.13Z"/>
    <path class="st15" d="M190.05,11.26c.32-.07.63-.16.96-.08.06.01.04-.02.06-.03.36-.13.73-.2,1.11-.23.3-.02.32-.05.33-.34,0-.75,0-1.51,0-2.26.11.08.07.2.07.3,0,.72,0,1.43,0,2.15,0,.19-.05.32-.21.42-.09.23-.32.13-.47.18-.26.08-.53.1-.8.16-.14.03-.31.09-.42-.09,0,.11-.05.19-.16.17-.18-.02-.35,0-.52.07-.07-.01-.13-.03-.18-.09-.17-.28.09-.27.23-.34Z"/>
    <path class="st7" d="M189.98,11.61c.14-.04.25-.17.43-.07.07.04.21.03.22-.1.02-.18-.15-.08-.23-.13.08-.06.22-.05.23-.01.09.29.31.16.47.15.11,0,.24-.04.35-.13.11-.09.23.08.35,0,.1-.06.24,0,.31-.13.07-.11.17.15.24-.02.04,0,.1-.02.13.04.03.06-.02.09-.07.1-.17.04-.35.08-.52.12-1.54.33-3.09.49-4.66.31-.02-.03-.02-.06-.01-.1.1-.2.2-.28.47-.2.39.11.81.1,1.21.04.35.12.73-.08,1.07.12Z"/>
    <path class="st30" d="M173.25,10.9c-.54.31-1.05.68-1.53,1.08-.08.07-.16.15-.27.17-.03-.04-.03-.08,0-.12v-.03c0-.06-.03-.12-.07-.16-.04-.01-.06-.04-.06-.08.56-.35,1.03-.84,1.65-1.11.09-.04.17-.1.26-.03.11.08.1.18.02.28Z"/>
    <path class="st37" d="M173.25,10.9c-.04-.25-.04-.25-.25-.12-.12.08-.29.03-.38.11-.15.14-.44.13-.43.44,0,.07-.15.03-.23.1-.18.15-.4.25-.63.32.09-.18.27-.27.41-.38.53-.42,1.09-.8,1.72-1.06.05.14-.13.1-.15.2.1.1.25.13.39.18-.15.07-.3.13-.45.2Z"/>
    <path class="st11" d="M182.41,10.19c.16-.03.28-.08.44.11.17.2.49.27.75.37.1.04.12-.1.19-.14h0c.33.16.65.32.99.44.11.04.22.07.34.06.13.03.19.11.16.24-.01.04-.04.06-.07.08-.78-.17-1.51-.49-2.23-.83-.2-.09-.42-.15-.57-.34Z"/>
    <path class="st11" d="M179.81,8.6c.08,0,.21-.18.24.06,0,.04.06.08.1.09.28.11.48.35.76.46.24.1.4.35.69.33.17.34.61.35.81.64-.09.02-.16-.04-.23-.08-.79-.44-1.55-.93-2.3-1.43-.03-.02-.05-.05-.07-.08Z"/>
    <path class="st8" d="M178.16,11.18c.05-.15.13-.31-.12-.37-.03,0-.19-.08-.09-.2.7.34,1.35.77,2.01,1.19.04.02.08.05.08.11-.25-.11-.51-.17-.72-.36-.12-.11-.42-.06-.43-.17,0-.25-.2-.22-.31-.3-.2-.14-.25-.11-.34.18-.04,0-.07-.03-.08-.07Z"/>
    <path class="st11" d="M187.25,11.69s0,.04,0,.06c-.02,0-.05,0-.07,0-.09-.05-.2,0-.29-.05-.57-.07-1.13-.16-1.67-.36l.02-.02c.11-.14.26-.17.42-.12.48.18.96.15,1.45.05.06,0,.11,0,.16.04-.03.12,0,.25,0,.37Z"/>
    <path class="st27" d="M182.67,10.79c.64.29.72.99.18,1.49.08-.28.17-.51.15-.77-.02-.27-.16-.48-.33-.72Z"/>
    <path class="st21" d="M181.53,10.81c-.34.72-.35.85-.11,1.43-.26-.15-.4-.38-.37-.68.03-.32.14-.59.48-.75Z"/>
    <path class="st37" d="M171.45,12.03s0,.08,0,.12c-.04.11-.07.23-.07.35,0,.71,0,1.42,0,2.13,0,.08,0,.17.06.23-.03.04-.07.08-.11.03-.02-.03-.03-.09-.03-.13,0-.82,0-1.65,0-2.47,0-.1-.02-.23.13-.25Z"/>
    <path class="st2" d="M192.51,17.24c0-.79,0-1.58,0-2.37.06.06.06.13.06.2,0,.66,0,1.31,0,1.97,0,.07,0,.14-.05.2Z"/>
    <path class="st36" d="M178.8,7.95s.08-.13.13-.05c.06.11.14.19.24.19.27,0,.35.16.43.36-.29-.12-.56-.3-.8-.5Z"/>
    <path class="st16" d="M180.82,12.35c-.19.08-.32-.03-.46-.14-.12-.09-.25-.17-.32-.31.3.08.51.32.78.45Z"/>
    <path class="st23" d="M191.79,14.59c-.22.06-.45.13-.67.19-.14.04-.28.04-.41-.04.36-.07.71-.14,1.07-.21.05.02.05.04,0,.07Z"/>
    <path class="st14" d="M191.79,14.59s0-.05,0-.07c.24-.05.48-.1.71-.15-.05.2-.23.17-.36.19-.11.02-.23.02-.35.02Z"/>
    <path class="st0" d="M177.94,7.45c.06,0,.12.02.17.01.22-.02.3.11.34.3-.17-.1-.37-.16-.51-.31Z"/>
    <path class="st37" d="M171.38,11.84c.06.02.15.03.16.1,0,.04-.06.04-.1.06-.12-.02-.09-.09-.05-.16Z"/>
    <path class="st36" d="M178.58,7.79c.14-.03.19.06.23.16-.1-.01-.2-.04-.23-.16Z"/>
    <path class="st0" d="M177.65,7.3c.13-.01.23.02.29.15-.12,0-.22-.05-.29-.15Z"/>
    <path class="st11" d="M179.59,8.45c.1,0,.21,0,.22.15-.1-.01-.17-.06-.22-.15Z"/>
    <path class="st18" d="M186.88,11.71c.1-.02.2-.02.29.05-.1.02-.2,0-.29-.05Z"/>
    <path class="st20" d="M155.56,25.96c2.7-.04,5.07-.29,7.39-.93,1.26-.35,2.47-.8,3.56-1.52.16-.11.34-.18.53-.23.23-.06.45-.06.66.06.16.09.32.17.49.23.22.08.46,0,.6-.21.11-.17.1-.34-.05-.53-.09-.12-.18-.17-.34-.12-.22.08-.4-.03-.53-.2-.14-.17-.06-.34.02-.5.14-.29.3-.57.51-.83.29-.35.67-.37.99-.05.23.23.35.51.34.84-.03.48-.17.92-.43,1.32-.23.37-.53.68-.86.96-.24.21-.52.25-.8.1-.39-.21-.73-.14-1.08.08-.22.14-.46.26-.68.41-1.62,1.05-3.41,1.7-5.31,2.05-2.13.39-4.28.61-6.45.51-1.05-.05-2.08-.16-3.08-.5-.45-.15-.87-.35-1.25-.62-.69-.49-1-1.14-.93-1.98.04-.4.09-.79.18-1.17.13-.55.29-1.09.51-1.61.04-.09.07-.18.12-.26.06-.11.11-.29.27-.22.16.07.08.23.04.35-.14.46-.29.91-.38,1.39-.16.88.12,1.58.86,2.09.72.5,1.53.74,2.38.88,1.01.17,2.03.22,2.75.21Z"/>
    <path class="st20" d="M153.78,15.27c.08.21-.02.36-.1.52-.36.69-.94,1.11-1.67,1.32-.47.14-.95.27-1.38.52-.19.11-.37.22-.52.38-.29.32-.23.58.17.75.09.04.18.06.27.09,1.2.34,2.42.49,3.66.56,2.44.14,4.87,0,7.3-.27,2.32-.26,4.61-.64,6.87-1.24.45-.12.9-.27,1.35-.38.18-.05.44-.15.52.04.07.16-.19.27-.34.37-.81.57-1.71.96-2.65,1.26-1.55.49-3.14.81-4.74,1.06-2.9.44-5.82.67-8.76.58-1.31-.04-2.61-.13-3.89-.49-.14-.04-.28-.08-.41-.14-.51-.21-.75-.69-.62-1.23.06-.24.18-.44.32-.64.59-.81,1.38-1.36,2.3-1.73.3-.12.61-.22.92-.32.43-.13.78-.36,1.05-.72.09-.12.17-.26.35-.31Z"/>
    <path class="st20" d="M148.98,10.04c.2.36.55.45.87.58.94.36,1.92.51,2.91.65,2.63.37,5.27.28,7.91.09,1.54-.11,3.06-.31,4.54-.73.59-.17,1.16-.38,1.71-.65.49-.24.92-.56,1.27-.99.05-.06.11-.13.17-.18.01-.01.04-.02.09-.03.05.16-.01.3-.07.43-.13.34-.35.63-.6.89-.73.77-1.61,1.28-2.58,1.67-1.13.46-2.32.71-3.52.9-1.66.25-3.33.45-5.02.46-1.86,0-3.72-.09-5.56-.42-.47-.08-.94-.19-1.4-.34-.68-.23-.93-.58-.9-1.29.01-.33.03-.67.16-1.03Z"/>
    <path class="st20" d="M168.47,35.43c.04.22-.06.4-.14.58-.22.47-.58.82-.96,1.15-.81.7-1.76,1.15-2.77,1.49-1.18.4-2.39.61-3.62.78-1.15.16-2.31.28-3.48.33-1.18.06-2.36,0-3.53-.06-1.07-.06-2.13-.18-3.18-.4-.36-.08-.73-.16-1.08-.28-.65-.22-.91-.58-.89-1.27.01-.34.04-.67.15-1.03.28.4.7.5,1.1.64.89.31,1.81.45,2.74.58,2.85.38,5.71.27,8.56.02,1.45-.13,2.88-.36,4.27-.8.41-.13.81-.3,1.2-.48.53-.25.99-.58,1.36-1.04.06-.08.11-.19.26-.2Z"/>
    <path class="st20" d="M149.01,30.25c.21.35.52.44.82.56.87.35,1.78.5,2.69.64,2.38.36,4.77.33,7.16.2,1.28-.07,2.57-.18,3.83-.41,1.1-.2,2.18-.47,3.2-.94.59-.27,1.11-.62,1.52-1.13.06-.07.1-.17.24-.17.05.17-.03.32-.09.47-.21.5-.58.88-.98,1.23-.72.63-1.57,1.06-2.46,1.39-1.15.43-2.36.67-3.57.84-1.51.21-3.03.39-4.56.4-1.96,0-3.92-.08-5.85-.45-.39-.07-.77-.17-1.15-.29-.23-.07-.44-.19-.63-.35-.14-.12-.25-.27-.28-.45-.08-.5-.03-1,.11-1.55Z"/>
    <path class="st20" d="M161.14,13.68c.11.07.1.13.1.19-.08.58-.14,1.17-.24,1.75-.1.57-.32,1.1-.63,1.6-.1.15-.22.28-.35.41-.15.16-.13.22.09.28.19.05.38.02.57-.05.53-.2.89-.57.99-1.14.09-.5.1-1,.2-1.5.11-.55.22-1.11.47-1.62.07-.14.11-.29.29-.39.09.2.04.38.01.56-.07.38-.16.75-.23,1.13-.03.19-.04.38-.05.57-.01.2.09.34.24.46.26.21.38.18.59-.08.33-.4.53-.84.6-1.36.07-.56.19-1.11.46-1.62.06-.11.09-.24.28-.31-.04.74-.16,1.43-.34,2.13.16-.02.25-.13.35-.19.2-.12.41-.21.65-.17.37.06.55.29.5.66-.04.29-.15.56-.31.8-.18.27-.39.52-.64.73-.43.36-.92.61-1.45.78-.44.14-.88.15-1.28-.11-.18.18-.27.39-.39.58-.22.35-.48.66-.85.86-.38.21-.78.15-1.09-.15-.2-.2-.24-.43-.11-.69.08-.16.2-.3.32-.44.24-.29.4-.62.46-1,.07-.45.16-.9.26-1.34.1-.47.29-.91.57-1.32Z"/>
    <path class="st32" d="M169.69,28.19c.07.2.01.35-.03.5-.09.31-.19.62-.27.93-.06.23-.09.47-.05.71.03.21.13.38.3.51.23.18.3.16.48-.07.12-.16.25-.32.39-.47.24-.24.37-.52.45-.84.14-.61.32-1.21.59-1.77.06-.12.12-.35.25-.3.18.06.03.25,0,.38-.11.45-.24.9-.36,1.35-.03.1-.06.21-.04.34.16-.08.3-.17.45-.23.22-.08.44-.13.64.06.19.17.24.39.17.62-.37,1.18-1.07,2.05-2.3,2.42-.21.06-.43.06-.64.06-.54-.01-.87-.31-.93-.85-.03-.34,0-.67.06-1,.11-.65.25-1.29.51-1.91.07-.16.13-.33.34-.43Z"/>
    <path class="st32" d="M156.84,13.96c.1.05.09.12.08.21-.05.27-.13.54-.22.8-.12.38-.23.76-.29,1.15-.03.24-.02.48.05.71.05.19.15.35.32.46.27.17.39.13.5-.17.12-.33.23-.66.43-.95.19-.28.42-.49.76-.56.21-.04.41,0,.58.12.1.08.16.18.1.31-.05.13-.16.13-.27.11-.06,0-.12-.03-.17-.04-.33-.07-.6.05-.76.34-.12.21-.09.4.09.54.19.15.42.15.58-.02.09-.09.15-.21.23-.32.07-.1.11-.25.26-.28.08.02.08.09.07.15-.1,1.02-1.02,2-2.02,2.18-.72.13-1.26-.26-1.38-.97-.05-.31,0-.62.05-.93.18-.93.5-1.82.89-2.69.03-.06.06-.13.13-.16Z"/>
    <path class="st10" d="M173.82,28.24c.03.26-.05.45-.11.65-.08.27-.17.53-.22.8-.12.71.26,1.23.94,1.31.25.03.48-.02.67-.18.14-.12.28-.23.41-.35.19-.17.42-.29.68-.3.26,0,.42-.13.54-.35.06-.11.12-.24.25-.3.13.05.09.16.07.25-.09.44-.29.81-.61,1.12-.14.13-.31.19-.5.14-.35-.1-.61.06-.81.32-.11.14-.2.3-.31.44-.25.33-.58.53-1.01.53-.41,0-.68-.18-.84-.56-.16-.39-.16-.8-.07-1.2.15-.67.35-1.32.63-1.95.06-.13.11-.26.29-.35Z"/>
    <path class="st10" d="M167.34,26.82c-.02.53-.25.97-.55,1.38-.38.52-.84.96-1.5,1.1-.12.03-.24.05-.36.02-.07-.01-.15-.03-.17-.11-.03-.08.04-.13.09-.18.12-.09.25-.18.38-.27.25-.17.5-.33.75-.5.07-.05.14-.1.2-.16.08-.08.2-.16.17-.3-.03-.13-.17-.11-.27-.13-.39-.1-.45-.22-.29-.6.1-.24.23-.48.37-.7.19-.29.41-.39.66-.33.27.07.51.36.53.66,0,.04,0,.07,0,.11Z"/>
    <path class="st24" d="M158.77,24.68c.09-.18.24-.26.38-.36.25-.19.5-.37.75-.56.1-.08.2-.17.27-.29.05-.09.02-.16-.07-.2-.02,0-.05-.01-.07-.02-.51-.14-.54-.19-.34-.68.07-.18.16-.35.25-.52.12-.21.28-.36.55-.33.23.03.46.24.52.48.04.17.05.33,0,.5-.18.72-.55,1.32-1.14,1.78-.2.16-.44.25-.69.3-.15.03-.28.04-.41-.1Z"/>
    <path class="st10" d="M175.72,36.83c0,.48-.23.88-.49,1.25-.35.48-.77.89-1.39,1.01-.04,0-.07.02-.11.02-.13.02-.3.03-.36-.1-.06-.13.1-.2.19-.26.28-.19.56-.37.84-.56.08-.05.16-.11.23-.18.09-.08.21-.16.18-.29-.03-.13-.17-.1-.27-.13-.32-.1-.38-.21-.24-.53.09-.22.21-.43.34-.63.18-.28.38-.37.63-.3.23.07.43.33.46.59,0,.03,0,.07,0,.11Z"/>
    <path class="st24" d="M167.2,12.22s.04.07.04.09c-.23.81-.16,1.64-.26,2.46-.11.92-.38,1.78-.92,2.55-.1.15-.21.29-.36.39-.06.04-.14.07-.2.01-.07-.06-.02-.13.01-.19.12-.19.24-.39.37-.58.25-.38.37-.8.39-1.25.02-.54.07-1.08.13-1.61.07-.63.35-1.19.65-1.74.02-.03.04-.06.07-.08.02-.01.04-.02.08-.04Z"/>
    <path class="st24" d="M171.21,34.21c.11.13.04.23.01.33-.09.35-.12.7-.13,1.07-.04.97-.15,1.94-.65,2.81-.14.25-.29.5-.48.71-.08.09-.16.18-.28.22-.05.02-.09.03-.14,0-.06-.05-.05-.11-.01-.16.1-.15.2-.3.3-.45.31-.42.47-.88.48-1.4,0-.38.07-.76.09-1.15.04-.65.32-1.22.62-1.78.02-.04.05-.08.08-.12.02-.02.06-.04.1-.08Z"/>
    <path class="st24" d="M180.21,27.4c-.21.94-.14,1.89-.33,2.82-.14.71-.44,1.34-.87,1.91-.09.12-.2.24-.34.32-.06.03-.14.07-.2,0-.05-.05-.02-.11.02-.16.1-.15.2-.3.31-.44.28-.39.44-.81.46-1.3.02-.46.07-.91.11-1.36.06-.63.35-1.17.66-1.69.03-.05.07-.1.18-.08Z"/>
    <path class="st3" d="M166.64,39.21c.04-.14.17-.16.27-.22.55-.32,1.08-.66,1.55-1.1.42-.4.77-.85,1.04-1.37.03-.05.05-.11.09-.16.07-.08.2-.05.22.06.03.13,0,.26-.04.39-.27,1.17-1.42,2.25-2.61,2.45-.17.03-.36.07-.52-.06Z"/>
    <path class="st34" d="M175.62,32.27c.15-.16.33-.24.49-.34.81-.53,1.53-1.15,2.03-2,.1-.18.2-.35.27-.55.03-.07.07-.13.15-.12.11.01.12.1.12.19,0,.18-.03.36-.08.53-.4,1.24-1.23,2.02-2.49,2.36-.15.04-.31.07-.49-.06Z"/>
    <path class="st34" d="M155.91,24.77c.03-.17.16-.2.25-.26.5-.33.99-.68,1.41-1.11.43-.44.79-.93,1.04-1.5.02-.05.04-.11.08-.16.07-.09.19-.07.22.04.02.07.01.14,0,.21-.02.27-.08.52-.19.76-.46,1-1.2,1.68-2.27,2-.18.05-.37.08-.55,0Z"/>
    <path class="st3" d="M170.79,39.26c.07-.16.21-.2.31-.27.8-.55,1.52-1.17,2-2.03.1-.18.19-.36.26-.55.02-.06.06-.11.13-.1.08,0,.13.07.12.15,0,.14,0,.29-.04.43-.3,1.21-1.06,1.98-2.23,2.38-.2.07-.25.06-.56,0Z"/>
    <path class="st34" d="M164.62,21.14c.21.1.34.22.47.34.3.29.34.51.18.91-.09.23-.22.42-.4.59-.11.1-.19.1-.31.01-.66-.47-.68-.49-.31-1.22.11-.21.24-.41.36-.63Z"/>
    <path class="st24" d="M173.85,33.19c.2.09.35.23.5.37.24.22.28.49.18.79-.09.26-.23.5-.45.68-.1.08-.18.09-.28,0-.16-.14-.33-.27-.5-.41-.07-.06-.14-.13-.09-.25.19-.41.36-.83.64-1.19Z"/>
    <path class="st24" d="M168.8,14.84c.27.11.45.29.62.49.09.11.15.26.13.4-.05.38-.22.7-.51.96-.08.07-.17.08-.26.01-.02-.01-.04-.03-.06-.04-.73-.62-.66-.35-.28-1.19.1-.22.23-.41.36-.63Z"/>
    <path class="st24" d="M176.5,27.75c-.06.33-.22.67-.54.92-.06.05-.13.05-.2.01-.02-.01-.04-.03-.06-.04-.65-.44-.66-.48-.31-1.19.05-.1.1-.19.16-.28q.24-.41.6-.08c.25.23.34.38.34.66Z"/>
    <path class="st24" d="M158.84,28.56c.17.07.27.15.37.24.51.44.43,1.26-.16,1.61-.07.04-.13.05-.2.01-.03-.02-.06-.04-.09-.06-.73-.61-.64-.34-.28-1.16.1-.22.23-.42.36-.63Z"/>
    <path class="st24" d="M157.43,35c.21.11.35.24.49.37.23.21.28.47.18.75-.09.25-.21.48-.41.66-.11.1-.21.14-.34.02-.75-.64-.66-.36-.29-1.19.1-.22.22-.42.37-.62Z"/>
    <path class="st24" d="M157.4,8.42c.15.05.24.12.32.19.57.46.52,1.26-.11,1.65-.07.04-.13.06-.2.01-.04-.03-.08-.06-.11-.09-.69-.58-.62-.33-.26-1.14.1-.22.23-.41.36-.63Z"/>
    <path class="st24" d="M158.86,8.34c.14.04.24.13.34.21.54.45.46,1.28-.15,1.63-.07.04-.13.05-.2,0-.19-.15-.37-.3-.55-.46-.08-.07-.1-.15-.05-.25.18-.39.35-.78.61-1.13Z"/>
    <path class="st24" d="M158.86,34.92c.11.04.2.1.28.17.58.47.55,1.23-.07,1.66-.09.06-.17.06-.26,0-.17-.14-.33-.27-.5-.41-.09-.07-.13-.15-.07-.28.18-.39.36-.78.61-1.13Z"/>
    <path class="st10" d="M157.41,28.63c.12.08.2.13.27.18.53.41.59.76.24,1.33-.06.09-.13.17-.2.25-.19.19-.22.19-.42.03-.7-.58-.62-.34-.27-1.14.1-.22.23-.42.37-.65Z"/>
    <path class="st24" d="M177.94,27.64c-.07.35-.23.68-.52.93-.09.08-.17.07-.26,0-.17-.14-.33-.27-.5-.41-.09-.08-.13-.16-.07-.28.16-.35.32-.69.53-1.02.04-.06.08-.14.16-.08.27.18.54.36.64.7.01.05.01.09.02.17Z"/>
    <path class="st18" d="M187.25,11.69c-.07-.06-.15-.08-.23-.07-.06,0-.12-.02-.13-.09-.01-.1.06-.11.13-.13.08-.02.16-.05.23-.08.53.01,1.05.02,1.58.03.02.01.04.03.05.05.02.02.03.04.03.06,0,.04,0,.07,0,.11.02.1-.04.11-.12.12-.16.01-.33.04-.47-.09-.11.16-.28.05-.41.09-.06.02-.11-.04-.16-.07-.06-.04-.28.01-.34.04-.05.03-.11.02-.17.03Z"/>
    <path class="st29" d="M187.1,11.27c-.06.12-.28.03-.29.25,0,.12-.19.07-.24.02-.1-.11-.21-.08-.32-.09-.12-.01-.22.09-.34,0-.11-.08-.25-.06-.37-.12-.09-.04-.21,0-.32,0,0-.1,0-.2-.13-.21-.07.04-.09,0-.1-.07.05-.1.15-.08.23-.11.04,0,.07,0,.11.01.07,0,.15,0,.21.03.5.22,1.04.19,1.55.28Z"/>
    <path class="st33" d="M185.33,10.96s-.09.01-.13.02c-.05.04-.13.01-.18.05.03.03.05.06.08.09-.05.04-.11.07-.16.05-.32-.14-.7-.14-.96-.43-.06-.07-.23-.03-.18-.2.08-.1.18-.1.28-.05.2.08.4.15.59.25.21.11.46.13.67.23Z"/>
    <path class="st22" d="M188.92,11.56s-.06-.05-.08-.08c.11-.08.23-.02.33-.02-.1-.04-.23.03-.33-.06,0-.02,0-.04,0-.06.12,0,.24-.02.36-.03.15-.03.31,0,.46,0,.17,0,.15.12.16.22.06.02.12.03.17.09-.25.03-.51,0-.76.07-.15.05-.18-.14-.31-.13Z"/>
    <path class="st7" d="M189.82,11.53c-.04-.07-.03-.17-.17-.18-.15-.01-.3,0-.45-.03.28-.11.57-.03.86-.06-.04.03.07.14-.05.1-.17-.05-.16.07-.18.17Z"/>
    <path class="st9" d="M184.38,14.34c.43.18.88.32,1.33.41.03,0,.08.05.1.04.13-.08.07.27.25.11.08-.07.2.04.32.03.32-.04.63.09.95.13.16.02.11.16.13.26-.06.1-.17.09-.26.07-.26-.05-.53-.07-.8-.12-.3-.07-.62-.06-.91-.18-.38-.16-.81-.17-1.16-.41,0-.09,0-.17-.01-.26v-.02s.02-.03.04-.05Z"/>
    <path class="st9" d="M187.52,15.31c.02-.2.12-.28.33-.29.24,0,.47.02.7.05.22.03.25.14.23.31-.38.02-.76.02-1.15,0-.05,0-.09-.02-.11-.07Z"/>
    <path class="st26" d="M189.12,15.3c.02-.06.22.09.14-.12-.01-.03.09-.03.14-.02,0,.06,0,.12,0,.18-.09,0-.19.01-.28.02,0-.01-.02-.02-.03-.03,0-.01.02-.02.03-.04Z"/>
    <path class="st4" d="M188.84,15.37c0-.09-.03-.2.11-.21.11-.01.19.01.17.15h0c-.07.04-.17-.01-.23.06h-.03s-.03,0-.03,0Z"/>
    <path class="st28" d="M189.62,15.36c.11-.16.25,0,.37-.04-.12.07-.25.05-.37.04Z"/>
    <path class="st28" d="M188.9,15.37c.02-.21.12-.14.23-.07,0,.02,0,.05,0,.07-.07,0-.15,0-.22,0Z"/>
    <path class="st28" d="M184.34,14.39v.02s-.06.02-.09.03c-.03,0-.06.03-.06-.03,0,0,.03-.02.05-.02.03,0,.07,0,.1,0Z"/>
    <path class="st5" d="M189.54,15.09h-.6s0-.05,0-.08c.23.03.46-.08.68.06-.03,0-.05,0-.08.01Z"/>
    <path class="st25" d="M163.32,16.11c.34-.42.63-.75.99-1.03.22-.17.46-.19.71-.1.24.09.26.16.1.36-.44.54-1.03.74-1.8.77Z"/>
    <path class="st6" d="M170.23,31.05c.34-.47.69-.84,1.13-1.1.12-.07.25-.09.38-.06.19.04.42.06.47.26.06.2-.16.3-.29.41-.47.38-1,.59-1.7.49Z"/>
    <path class="st7" d="M188.83,11.4c.18,0,.35.02.51.03-.14.08-.14.08-.34.04-.06-.01-.12,0-.17,0-.05-.03-.05-.05,0-.08Z"/>
    <path class="st11" d="M185.02,11.03c.05-.05.12-.04.18-.05-.05.06-.12.04-.18.05Z"/>
  </g>
  <path class="st17" d="M143.2,23.86c-.02.17-.04.32-.07.43-.03.12-.07.26-.12.44-.05.18-.11.35-.18.5-.29.68-.54,1.17-.74,1.47-.2.3-.37.5-.51.6-.14.11-.34.2-.6.29-.26.09-.54.17-.83.24-.29.07-.51.1-.65.1-.06,0-.09,0-.09,0-.04-.05.16-.2.6-.47.44-.27.81-.51,1.1-.73.29-.22.55-.46.77-.73.23-.26.39-.54.49-.82-.05.02-.12.05-.2.07-.08.02-.16.04-.25.05-.09.01-.17.02-.25.02-.08,0-.15,0-.21,0-.28-.02-.51-.11-.69-.27-.18-.16-.27-.36-.26-.6.01-.12.05-.26.1-.42.05-.16.17-.41.34-.76.17-.35.36-.63.56-.86.2-.23.39-.34.57-.34.3,0,.55.12.75.37.2.25.32.54.36.89,0,.17,0,.35-.01.52ZM139.48,19.16c-.07.11-.14.21-.22.29-.08.09-.16.17-.24.25-.02.03-.06.06-.12.11-.05.04-.11.08-.17.12-.06.04-.11.06-.17.08-.05.02-.09.01-.12-.02-.18-.14-.35-.27-.52-.42-.17-.14-.36-.27-.56-.39-.03-.02-.05-.05-.05-.07,0-.02.02-.05.04-.1l1.17-1.72s.07-.07.1-.07c.03,0,.07.02.11.04.1.06.21.12.31.19.1.07.2.15.29.23.09.08.16.17.23.27.07.1.11.2.14.32.04.14.04.28,0,.42-.04.15-.12.3-.23.46ZM138.16,24.5c.15-.43.3-.89.45-1.36.15-.47.25-.8.32-.97.07-.17.13-.25.2-.25.08.01.1.08.07.2-.21,1.24-.4,2.17-.57,2.78-.17.61-.32,1.08-.46,1.4-.14.32-.29.57-.45.74-.16.17-.46.33-.9.48-.44.15-.8.26-1.1.32-.29.06-.48.09-.55.1-.07,0-.12-.02-.14-.04-.02-.02,0-.07.05-.15.09-.13.29-.3.58-.52.3-.22.64-.5,1.05-.82.4-.33.7-.62.9-.87.2-.25.38-.59.53-1.03ZM134.04,19.57c-.04.24-.07.43-.09.57-.03.24-.06.51-.09.81s-.06.61-.08.93c-.02.32-.05.63-.07.93-.02.3-.05.57-.08.81-.08.73-.2,1.33-.36,1.8-.16.47-.35.91-.56,1.31-.21.4-.39.61-.52.63-.03,0-.02-.08.03-.25.06-.16.12-.36.18-.6.06-.24.11-.5.15-.77.04-.27.08-.56.12-.85.03-.29.06-.56.09-.82.03-.24.06-.61.09-1.1.02-.49.06-.9.11-1.24.05-.34.12-.63.22-.87l.76-1.73c.06-.14.11-.21.15-.21.06,0,.08.04.06.13-.03.1-.06.27-.1.51ZM130.76,24.9c-.17.61-.32,1.08-.46,1.4-.14.32-.29.57-.45.74-.16.17-.46.33-.9.48-.44.15-.8.26-1.1.32-.29.06-.48.09-.55.1-.07,0-.12-.02-.14-.04-.02-.02,0-.07.05-.15.09-.13.29-.3.58-.52.3-.22.64-.5,1.05-.82.4-.33.7-.62.9-.87.2-.25.38-.59.53-1.03.15-.43.3-.89.45-1.36.15-.47.25-.8.32-.97.07-.17.13-.25.2-.25.08.01.1.08.07.2-.21,1.24-.4,2.17-.57,2.78ZM126.21,24.44c-.17.32-.35.62-.56.9-.21.28-.46.53-.76.73-.42.29-.89.53-1.39.74-.5.21-1.11.4-1.81.58-.7.18-1.47.32-2.3.41-.83.09-1.63.14-2.41.14-.9,0-1.59-.04-2.07-.11-.78-.12-1.34-.34-1.67-.68-.3-.26-.45-.61-.45-1.06,0-.17.02-.42.05-.75.03-.32.08-.65.14-.97.02-.14.05-.26.07-.37.01-.08.03-.14.06-.18.02-.05.05-.07.08-.08.03,0,.06.01.08.06.03.04.05.12.08.23.02.12.05.24.08.37.08.31.29.53.64.68.88.36,2.22.55,4.03.56.63,0,1.34-.03,2.12-.08.78-.06,1.56-.17,2.34-.33.78-.17,1.43-.36,1.97-.58.53-.22.91-.4,1.14-.55.22-.15.42-.33.6-.54.13-.17.21-.26.23-.27,0,0,.03-.01.05-.01.02,0,.04.02.05.04.02.05,0,.15-.04.31-.07.22-.19.49-.35.81ZM121.11,20.68c-.08.12-.17.24-.25.34-.09.11-.18.21-.28.3-.06.07-.12.11-.17.14-.05.03-.09.05-.12.05-.03,0-.06,0-.09,0-.02,0-.05-.02-.07-.04-.17-.13-.34-.26-.5-.4-.16-.13-.34-.26-.54-.38-.02-.03-.04-.06-.04-.07s.01-.04.04-.08l1.11-1.65s.07-.06.1-.06c.03,0,.07.02.11.04.1.06.2.12.3.18.1.06.19.14.27.21.08.08.16.17.22.26.06.09.11.19.13.31.04.13.04.27,0,.41-.04.14-.11.29-.22.44ZM119.1,20.27l-.02.08s0,.02,0,.02c0,0,0,.01,0,.02l-.03.08s-.02.04-.03.06c0,.02-.02.04-.03.06,0,0,0,0,0,.01,0,0,0,0,0,.01l-.04.06s-.02.04-.04.06c-.01.02-.03.03-.04.05,0,0-.01.02-.01.02l-.09.13-.04.05s-.02.02-.03.04c0,.01-.02.03-.03.04-.02.03-.04.05-.05.06l-.12.14s-.01.02-.01.02c0,0-.02.02-.03.04-.01.01-.03.03-.04.04l-.04.04s-.03.04-.06.06l-.07.07-.04.03c-.05.04-.1.07-.14.08h-.04s-.05.01-.05.01c-.04,0-.07-.01-.1-.04-.11-.08-.21-.16-.31-.25-.1-.08-.21-.17-.32-.25-.03-.03-.07-.05-.1-.08-.1-.08-.2-.14-.3-.2,0,0,0,0,0,0-.02-.02-.04-.04-.04-.06s.01-.05.04-.08l1.12-1.64s0,0,0-.01c.03-.04.07-.06.11-.05h.01s0,0,.01.01l.05.02s.02.02.03.02c0,0,.02,0,.03.02,0,0,.02,0,.03.01,0,0,.02.01.03.02.02,0,.04.02.06.04.03.02.06.04.09.05.03.02.06.04.09.06l.03.02s.09.07.12.1c.04.03.08.07.12.11l.09.1.07.08s.06.09.08.14c0,.01.02.04.03.06l.02.06s0,0,0,.01,0,.01,0,.02c0,.01,0,.02,0,.03,0,.02,0,.03,0,.04,0,.01,0,.03,0,.04,0,0,0,.02,0,.03,0,.01,0,.02,0,.03v.1s0,.02,0,.03c0,.01,0,.02,0,.03ZM110.34,19.57c-.04.24-.07.43-.09.57-.03.24-.06.51-.09.81s-.06.61-.08.93c-.02.32-.05.63-.07.93-.02.3-.05.57-.08.81-.08.73-.2,1.33-.36,1.8-.16.47-.35.91-.56,1.31-.21.4-.39.61-.52.63-.03,0-.02-.08.03-.25.06-.16.12-.36.18-.6.06-.24.11-.5.15-.77.04-.27.08-.56.12-.85.03-.29.06-.56.09-.82.03-.24.06-.61.09-1.1.02-.49.06-.9.11-1.24.05-.34.12-.63.22-.87l.76-1.73c.06-.14.11-.21.15-.21.06,0,.08.04.06.13-.03.1-.06.27-.1.51ZM107.06,24.9c-.17.61-.32,1.08-.46,1.4-.14.32-.29.57-.45.74-.16.17-.46.33-.9.48-.44.15-.8.26-1.1.32-.29.06-.48.09-.55.1-.07,0-.12-.02-.14-.04-.02-.02,0-.07.05-.15.09-.13.29-.3.58-.52.3-.22.64-.5,1.05-.82.4-.33.7-.62.9-.87.2-.25.38-.59.53-1.03.15-.43.3-.89.45-1.36.15-.47.25-.8.32-.97.07-.17.13-.25.2-.25.08.01.1.08.07.2-.21,1.24-.4,2.17-.57,2.78ZM104.37,18.36c-.08.12-.17.24-.25.34-.09.11-.18.21-.28.3-.06.07-.12.11-.17.14-.05.03-.09.05-.12.05s-.06,0-.09,0c-.02,0-.05-.02-.07-.04-.17-.13-.34-.26-.5-.4-.16-.13-.34-.26-.54-.38-.02-.03-.04-.06-.04-.07s.01-.04.04-.08l1.11-1.65s.07-.06.1-.06c.03,0,.07.02.11.04.1.06.2.12.3.18.1.06.19.14.27.22.08.08.16.17.22.26.06.09.11.19.13.31.04.13.04.27,0,.41-.04.14-.11.29-.22.44ZM102.37,17.95l-.02.08s0,.02,0,.02c0,0,0,.01,0,.02l-.03.08s-.02.04-.03.06c0,.02-.02.04-.03.06,0,0,0,0,0,.01,0,0,0,0,0,.01l-.04.06s-.02.04-.04.06c-.01.02-.03.03-.04.05,0,0-.01.02-.01.02l-.09.13-.04.05s-.02.02-.03.04c0,.01-.02.03-.03.04-.02.03-.04.05-.05.06l-.12.14s-.01.02-.01.02c0,0-.02.02-.03.04-.01.01-.03.03-.04.04l-.04.04s-.03.04-.06.06l-.07.07-.04.03c-.05.04-.1.07-.14.08h-.04s-.05.01-.05.01c-.04,0-.07-.01-.1-.04-.11-.08-.21-.16-.31-.25-.1-.08-.21-.17-.32-.25-.03-.03-.07-.05-.1-.08-.1-.08-.2-.14-.3-.2,0,0,0,0,0,0-.02-.02-.04-.04-.04-.06s.01-.05.04-.08l1.12-1.64s0,0,0-.01c.03-.04.07-.06.11-.05h.01s0,0,.01.01l.05.02s.02.02.03.02c0,0,.02,0,.03.02,0,0,.02,0,.03.01,0,0,.02.01.03.02.02,0,.04.02.06.04.03.02.06.04.09.05.03.02.06.04.09.06l.03.02c.08.06.16.12.24.2l.09.1.07.08s.06.09.08.14c0,.01.02.04.03.06l.02.06s0,0,0,.01,0,.01,0,.02c0,.01,0,.02,0,.03,0,.02,0,.03,0,.04,0,.01,0,.03,0,.04,0,0,0,.02,0,.03,0,.01,0,.02,0,.03v.1s0,.02,0,.03c0,.01,0,.02,0,.03ZM100.89,24.74c.2-.14.38-.2.53-.2h0c.4.16.65.17.78.02.01-.01.16-.22.43-.61.07-.11.12-.17.15-.17.05,0,.07.02.07.07,0,.06,0,.15-.04.28-.03.13-.1.35-.2.64-.1.3-.25.58-.46.83-.21.26-.46.36-.74.31h0c-.22-.04-.39-.04-.5,0-.3.11-.63.45-1.01,1-.47.68-.96,1.01-1.47,1.01-.54,0-.95-.23-1.23-.68-.28-.45-.42-.99-.42-1.61,0-.18.06-.73.18-1.66.12-.93.21-1.6.27-2,.06-.4.13-.83.21-1.28.08-.45.15-.82.23-1.09.08-.23.17-.46.27-.7.1-.23.19-.47.3-.7.07-.1.11-.09.13.05-.12.78-.23,1.59-.34,2.43-.1.84-.17,1.44-.21,1.8-.04.36-.05.57-.05.63-.02.39-.04.66-.04.82,0,0,0,0,0,0,0,0,0,0,0,0-.02,1.14.46,1.71,1.44,1.71.4,0,.75-.12,1.04-.36.3-.25.51-.44.66-.57ZM95.67,23.92c-.04.11-.07.21-.11.31-.14.32-.3.64-.49.96-.18.32-.39.62-.62.91-.23.29-.47.55-.74.79-.27.24-.56.45-.87.61-.31.17-.64.29-1,.37-.35.08-.73.09-1.12.05-.25-.05-.47-.14-.66-.29-.19-.14-.35-.32-.48-.52s-.22-.44-.29-.69c-.06-.25-.22-.51-.09-.77,0-.18.06-.73.18-1.66.12-.93.21-1.6.27-2,.06-.4.13-.83.21-1.28.08-.45.15-.82.23-1.09.08-.23.17-.46.27-.7.1-.23.19-.47.3-.7.07-.1.11-.09.13.05-.12.78-.23,1.59-.34,2.43-.1.84-.17,1.44-.21,1.8-.04.36-.05.57-.05.63-.02.39-.04.66-.04.82v.19c0,.21.02.41.07.6.09.3.25.54.48.73.23.19.51.3.83.32.1-.13.21-.27.32-.41.11-.14.21-.28.32-.41.1-.14.19-.27.27-.41.08-.13.14-.26.18-.39,0-.04.02-.08.03-.12.01-.04.02-.09.04-.15.01-.06.03-.15.04-.25.01-.1.03-.23.05-.4.02-.17.04-.37.07-.61.02-.24.05-.54.09-.88.03-.23.08-.5.14-.81.07-.31.16-.64.3-.98.09-.2.17-.4.25-.59.08-.19.16-.38.24-.57.08-.19.16-.38.25-.57.08-.19.17-.39.27-.6.02-.05.05-.07.09-.06.04,0,.06.05.06.12-.06.25-.13.53-.19.82-.06.29-.12.59-.17.9-.05.31-.11.61-.15.91-.05.3-.09.57-.14.82-.04.25-.08.47-.11.67-.03.19-.05.34-.07.43-.02.13-.05.27-.09.42-.04.15-.09.31-.15.49-.05.16-.11.32-.15.46-.05.14-.09.27-.13.39.07-.1.15-.21.25-.34.1-.13.21-.25.33-.37.12-.12.24-.23.37-.33.13-.1.26-.18.38-.23.47-.19.83-.12,1.08.2.07.1.12.2.14.31.02.11.02.22.01.33,0,.11-.03.22-.07.33ZM93.69,24.13c-.18.08-.39.25-.64.52-.25.27-.54.64-.86,1.1.54-.03,1.06-.16,1.57-.4.5-.24.94-.6,1.32-1.08-.56-.26-1.02-.31-1.38-.15ZM87.96,24.44c-.17.32-.35.62-.56.9-.21.28-.46.53-.76.73-.42.29-.89.53-1.39.74-.5.21-1.11.4-1.81.58-.7.18-1.47.32-2.3.41-.83.09-1.63.14-2.41.14-.9,0-1.59-.04-2.07-.11-.78-.12-1.34-.34-1.67-.68-.3-.26-.45-.61-.45-1.06,0-.17.02-.42.05-.75.03-.32.08-.65.14-.97.02-.14.05-.26.07-.37.01-.08.03-.14.06-.18.02-.05.05-.07.08-.08.03,0,.06.01.08.06s.05.12.08.23c.02.12.05.24.08.37.08.31.29.53.64.68.88.36,2.22.55,4.03.56.63,0,1.34-.03,2.12-.08.78-.06,1.56-.17,2.34-.33.78-.17,1.43-.36,1.97-.58.53-.22.91-.4,1.14-.55.22-.15.42-.33.6-.54.13-.17.21-.26.23-.27,0,0,.03-.01.05-.01.02,0,.04.02.05.04.02.05,0,.15-.04.31-.07.22-.19.49-.35.81ZM82.86,20.68c-.08.12-.17.24-.25.34-.09.11-.18.21-.28.3-.06.07-.12.11-.17.14-.05.03-.09.05-.12.05-.03,0-.06,0-.09,0-.02,0-.05-.02-.07-.04-.17-.13-.34-.26-.5-.4-.16-.13-.34-.26-.54-.38-.02-.03-.04-.06-.04-.07s.01-.04.04-.08l1.11-1.65s.07-.06.1-.06c.03,0,.07.02.11.04.1.06.2.12.3.18.1.06.19.14.27.21.08.08.16.17.22.26.06.09.11.19.13.31.04.13.04.27,0,.41-.04.14-.11.29-.22.44ZM80.85,20.27l-.02.08s0,.02,0,.02c0,0,0,.01,0,.02l-.03.08s-.02.04-.03.06-.02.04-.03.06c0,0,0,0,0,.01,0,0,0,0,0,.01l-.04.06s-.02.04-.04.06c-.01.02-.03.03-.04.05,0,0-.01.02-.01.02l-.09.13-.04.05s-.02.02-.03.04c0,.01-.02.03-.03.04-.02.03-.04.05-.05.06l-.12.14s-.01.02-.01.02c0,0-.02.02-.03.04-.01.01-.03.03-.04.04l-.04.04s-.03.04-.06.06l-.07.07-.04.03c-.05.04-.1.07-.14.08h-.04s-.05.01-.05.01c-.04,0-.07-.01-.1-.04-.11-.08-.21-.16-.31-.25-.1-.08-.21-.17-.32-.25-.03-.03-.07-.05-.1-.08-.1-.08-.2-.14-.3-.2,0,0,0,0,0,0-.02-.02-.04-.04-.04-.06s.01-.05.04-.08l1.12-1.64s0,0,0-.01c.03-.04.07-.06.11-.05h.01s0,0,.01.01l.05.02s.02.02.03.02c0,0,.02,0,.03.02,0,0,.02,0,.03.01,0,0,.02.01.03.02.02,0,.04.02.06.04.03.02.06.04.09.05.03.02.06.04.09.06l.03.02s.09.07.12.1c.04.03.08.07.12.11l.09.1.07.08s.06.09.08.14c0,.01.02.04.03.06l.02.06s0,0,0,.01,0,.01,0,.02c0,.01,0,.02,0,.03,0,.02,0,.03,0,.04,0,.01,0,.03,0,.04,0,0,0,.02,0,.03,0,.01,0,.02,0,.03v.1s0,.02,0,.03c0,.01,0,.02,0,.03ZM72.55,24.29c-.03.12-.07.26-.12.44-.05.18-.11.35-.18.5-.29.68-.54,1.17-.74,1.47-.2.3-.37.5-.51.6-.14.11-.34.2-.6.29-.26.09-.54.17-.83.24-.29.07-.51.1-.65.1-.06,0-.09,0-.09,0-.04-.05.16-.2.6-.47.44-.27.81-.51,1.1-.73.29-.22.55-.46.77-.73.23-.26.39-.54.49-.82-.05.02-.12.05-.2.07-.08.02-.16.04-.25.05-.09.01-.17.02-.25.02-.08,0-.15,0-.21,0-.28-.02-.51-.11-.69-.27-.18-.16-.27-.36-.26-.6.01-.12.05-.26.1-.42.05-.16.17-.41.34-.76.17-.35.36-.63.56-.86.2-.23.39-.34.57-.34.3,0,.55.12.75.37.2.25.32.54.36.89,0,.17,0,.35-.01.52-.02.17-.04.32-.07.43ZM66.92,16.18c-.07.11-.14.21-.22.29-.08.09-.16.17-.24.25-.02.03-.06.06-.12.11-.05.04-.11.08-.17.12-.06.04-.11.06-.17.08-.05.02-.09.01-.12-.02-.18-.14-.35-.27-.52-.42-.17-.14-.36-.27-.56-.39-.03-.02-.05-.05-.05-.07,0-.02.02-.05.04-.1l1.17-1.72s.07-.07.1-.07c.03,0,.07.02.11.04.1.06.21.12.31.19.1.07.2.15.29.23.09.08.16.17.23.27.07.1.11.2.14.32.04.14.04.28,0,.42-.04.15-.12.3-.23.46ZM64.89,20.8c.32.01.64.16.94.45.41.38.62.85.62,1.43,0,.28-.04.57-.11.85-.07.33-.19.65-.34.94-.23.41-.47.77-.73,1.06-.26.28-.48.42-.67.42l-.27-.04c-.22-.04-.39-.04-.5,0-.3.11-.63.45-1.01,1-.47.68-.96,1.01-1.47,1.01-.54,0-.95-.23-1.23-.68-.28-.45-.42-.99-.42-1.61,0-.18.06-.73.18-1.66.12-.93.21-1.6.27-2,.06-.4.13-.83.21-1.28.08-.45.15-.82.23-1.09.08-.23.17-.46.27-.7.1-.23.19-.47.3-.7.07-.1.11-.09.13.05-.12.78-.23,1.59-.34,2.43-.1.84-.17,1.44-.21,1.8-.04.36-.05.57-.05.63-.02.39-.04.66-.04.82,0,0,0,0,0,0,0,0,0,0,0,0-.02,1.14.46,1.71,1.44,1.71.4,0,.75-.12,1.04-.36.3-.25.51-.44.66-.57.2-.14.38-.2.53-.2.29.1.51.14.65.13.14-.01.26-.06.37-.13.11-.07.16-.19.16-.37,0-.12-.05-.24-.15-.38-.1-.12-.21-.18-.32-.18-.15.08-.32.13-.52.14-.22,0-.43-.05-.64-.13-.2-.08-.3-.22-.3-.4,0-.13.04-.29.11-.47.08-.21.2-.47.36-.8.16-.32.31-.6.46-.82.14-.22.27-.32.39-.32ZM63.92,19.62c-.07.11-.14.21-.22.29-.08.09-.16.17-.24.25-.02.03-.06.06-.12.11-.05.04-.11.08-.17.12-.06.04-.11.06-.17.08-.05.02-.09.01-.12-.02-.18-.14-.35-.27-.52-.42-.17-.14-.36-.27-.56-.39-.03-.02-.05-.05-.05-.07,0-.02.02-.05.04-.1l1.17-1.72s.07-.07.1-.07c.03,0,.07.02.11.04.1.06.21.12.31.19.1.07.2.15.29.23.09.08.16.17.23.27.07.1.11.2.14.32.04.14.04.28,0,.42-.04.15-.12.3-.23.46ZM58.89,24.29c-.03.12-.07.26-.12.44-.05.18-.11.35-.18.5-.29.68-.54,1.17-.74,1.47-.2.3-.37.5-.51.6-.14.11-.34.2-.6.29-.26.09-.54.17-.83.24-.29.07-.51.1-.65.1-.06,0-.09,0-.09,0-.04-.05.16-.2.6-.47.44-.27.81-.51,1.1-.73.29-.22.55-.46.77-.73.23-.26.39-.54.49-.82-.05.02-.12.05-.2.07-.08.02-.16.04-.25.05-.09.01-.17.02-.25.02-.08,0-.15,0-.21,0-.28-.02-.51-.11-.69-.27-.18-.16-.27-.36-.26-.6.01-.12.05-.26.1-.42.05-.16.17-.41.34-.76.17-.35.36-.63.56-.86.2-.23.39-.34.57-.34.3,0,.55.12.75.37s.32.54.36.89c0,.17,0,.35-.01.52-.02.17-.04.32-.07.43ZM54.39,24.9c-.17.61-.32,1.08-.46,1.4-.14.32-.29.57-.45.74-.16.17-.46.33-.9.48-.44.15-.8.26-1.1.32-.29.06-.48.09-.55.1-.07,0-.12-.02-.14-.04-.02-.02,0-.07.05-.15.09-.13.29-.3.58-.52.3-.22.64-.5,1.05-.82.4-.33.7-.62.9-.87.2-.25.38-.59.53-1.03.15-.43.3-.89.45-1.36.15-.47.25-.8.32-.97.07-.17.13-.25.2-.25.08.01.1.08.07.2-.21,1.24-.4,2.17-.57,2.78ZM50.06,19.92c-.05.13-.11.26-.17.39-.06.13-.11.24-.17.35-.05.1-.1.18-.15.25-.04.06-.08.09-.1.09-.02,0-.04,0-.07-.02-.03-.02-.08-.04-.15-.04-.19,0-.45.06-.81.17-.35.11-.72.32-1.11.63-.39.31-.69.6-.89.87-.21.27-.31.46-.31.56-.02.15.03.28.15.39.11.08.32.18.62.28.3.1.49.18.56.24.24.15.36.44.36.86,0,.63-.13,1.35-.38,2.17-.26.82-.61,1.52-1.07,2.12-.19.28-.42.55-.7.82-.28.27-.58.5-.91.68-.63.42-1.36.63-2.18.63-.93-.01-1.64-.31-2.12-.88-.22-.29-.37-.6-.45-.93-.08-.33-.12-.64-.12-.93.01-.54.09-1.07.22-1.61.13-.54.3-1.07.51-1.6.21-.53.44-1.04.7-1.54.26-.5.53-.98.8-1.44.04-.07.07-.11.07-.12.05-.07.11-.11.15-.11h0s.02.04,0,.08c-.01.04-.04.12-.08.23-.22.44-.43.89-.65,1.34-.22.45-.4.89-.54,1.3-.32.92-.45,1.65-.4,2.18.04.56.27,1,.69,1.33.42.33,1.01.49,1.79.49.64,0,1.27-.13,1.87-.39.45-.19.85-.43,1.19-.71.35-.28.61-.57.8-.87.19-.3.28-.55.28-.76,0-.09-.04-.17-.14-.24-.1-.07-.22-.12-.36-.17-.14-.05-.29-.09-.44-.13-.15-.04-.27-.08-.37-.11-.22-.08-.41-.2-.55-.36-.14-.16-.21-.39-.2-.71,0-.4.14-.89.41-1.45.27-.56.65-1.14,1.14-1.74.43-.47.8-.84,1.1-1.09.3-.25.59-.47.88-.67.28-.19.56-.36.82-.49.11-.06.21-.1.31-.13.13-.03.22-.04.28-.02.06.02.1.06.11.14-.02.08-.06.19-.1.31-.04.12-.09.25-.15.38ZM37.52,19.57c-.04.24-.07.43-.09.57-.03.24-.06.51-.09.81s-.06.61-.08.93c-.02.32-.05.63-.07.93-.02.3-.05.57-.08.81-.08.73-.2,1.33-.36,1.8-.16.47-.35.91-.56,1.31-.22.4-.39.61-.52.63-.03,0-.02-.08.03-.25.06-.16.12-.36.18-.6.06-.24.11-.5.15-.77.04-.27.08-.56.12-.85s.06-.56.09-.82c.03-.24.06-.61.09-1.1.02-.49.06-.9.11-1.24.05-.34.12-.63.22-.87l.76-1.73c.06-.14.11-.21.15-.21.06,0,.08.04.06.13-.03.1-.06.27-.1.51ZM34.24,24.9c-.17.61-.32,1.08-.46,1.4-.14.32-.29.57-.45.74-.16.17-.46.33-.9.48-.44.15-.8.26-1.1.32-.29.06-.48.09-.55.1-.07,0-.12-.02-.14-.04-.02-.02,0-.07.05-.15.09-.13.29-.3.58-.52.3-.22.64-.5,1.05-.82.4-.33.7-.62.9-.87.2-.25.38-.59.53-1.03.15-.43.3-.89.45-1.36.15-.47.25-.8.32-.97s.13-.25.2-.25c.08.01.1.08.07.2-.21,1.24-.4,2.17-.57,2.78ZM31.56,18.36c-.08.12-.17.24-.25.34-.09.11-.18.21-.28.3-.06.07-.12.11-.17.14-.05.03-.09.05-.12.05-.03,0-.06,0-.09,0-.02,0-.05-.02-.07-.04-.17-.13-.34-.26-.5-.4s-.34-.26-.54-.38c-.02-.03-.04-.06-.04-.07s.01-.04.04-.08l1.11-1.65s.07-.06.1-.06c.03,0,.07.02.11.04.1.06.07.12.3.18.1.06.19.14.27.22.08.08.16.17.22.26.06.09.11.19.13.31.04.13.04.27,0,.41-.04.14-.11.29-.22.44ZM29.55,17.95l-.02.08s0,.02,0,.02c0,0,0,.01,0,.02l-.03.08s-.02.04-.03.06c0,.02-.02.04-.03.06,0,0,0,0,0,.01,0,0,0,0,0,.01l-.04.06s-.02.04-.04.06c-.01.02-.03.03-.04.05,0,0-.01.02-.01.02l-.09.13-.04.05s-.02.02-.03.04c0,.01-.02.03-.03.04-.02.03-.04.05-.05.06l-.12.14s-.01.02-.01.02c0,0-.02.02-.03.04-.01.01-.03.03-.04.04l-.04.04s-.03.04-.06.06l-.07.07-.04.03c-.05.04-.1.07-.14.08h-.04s-.05.01-.05.01c-.04,0-.07-.01-.1-.04-.11-.08-.21-.16-.31-.25-.1-.08-.21-.17-.32-.25-.03-.03-.07-.05-.1-.08-.1-.08-.2-.14-.3-.2,0,0,0,0,0,0-.02-.02-.04-.04-.04-.06s.01-.05.04-.08l1.12-1.64s0,0,0-.01c.03-.04.07-.06.11-.05h.01s0,0,.01.01l.05.02s.02.02.03.02c0,0,.02,0,.03.02,0,0,.02,0,.03.01,0,0,.02.01.03.02.02,0,.04.02.06.04.03.02.06.04.09.05.03.02.06.04.09.06l.03.02c.08.06.16.12.24.2l.09.1.07.08s.06.09.08.14c0,.01.02.04.03.06l.02.06s0,0,0,.01,0,.01,0,.02c0,.01,0,.02,0,.03,0,.02,0,.03,0,.04,0,.01,0,.03,0,.04,0,0,0,.02,0,.03,0,.01,0,.02,0,.03v.1s0,.02,0,.03c0,.01,0,.02,0,.03ZM28.07,24.74c.2-.14.38-.2.53-.2.4.16.65.17.78.02.01-.01.16-.22.43-.61.07-.11.12-.17.15-.17.05,0,.07.02.07.07,0,.06,0,.15-.04.28-.03.13-.1.35-.2.64-.1.3-.25.58-.46.83-.21.26-.46.36-.74.31-.22-.04-.39-.04-.5,0-.3.11-.63.45-1.01,1-.47.68-.96,1.01-1.47,1.01-.54,0-.95-.23-1.23-.68-.28-.45-.42-.99-.42-1.61h0c0-.18.06-.73.18-1.66.12-.93.21-1.6.27-2s.13-.83.21-1.28c.08-.45.15-.82.23-1.09.08-.23.17-.46.27-.7.1-.23.19-.47.3-.7.07-.1.11-.09.13.05-.12.78-.23,1.59-.34,2.43-.1.84-.17,1.44-.21,1.8-.04.36-.05.57-.05.63-.02.39-.04.66-.04.82,0,0,0,0,0,0,0,0,0,0,0,0-.02,1.14.46,1.71,1.44,1.71.4,0,.75-.12,1.04-.36.3-.25.51-.44.66-.57ZM22.85,23.92c-.04.11-.07.21-.11.31-.14.32-.3.64-.49.96-.18.32-.39.62-.62.91-.23.29-.48.55-.74.79-.27.24-.56.45-.87.61-.31.17-.64.29-1,.37-.35.08-.73.09-1.12.05-.25-.05-.47-.14-.66-.29-.19-.14-.35-.32-.48-.52-.13-.21-.22-.44-.29-.69-.06-.25-.09-.51-.09-.77,0-.18.06-.73.18-1.66.12-.93.21-1.6.27-2,.06-.4.13-.83.21-1.28s.15-.82.23-1.09c.08-.23.17-.46.27-.7.1-.23.19-.47.3-.7.07-.1.11-.09.13.05-.12.78-.23,1.59-.34,2.43-.1.84-.17,1.44-.21,1.8-.04.36-.05.57-.05.63-.02.39-.04.66-.04.82v.19c0,.21.02.41.07.6.09.3.25.54.48.73.23.19.51.3.83.32.1-.13.21-.27.32-.41.11-.14.21-.28.32-.41.1-.14.19-.27.27-.41.08-.13.14-.26.18-.39,0-.04.02-.08.03-.12.01-.04.02-.09.04-.15.01-.06.03-.15.04-.25.01-.1.03-.23.05-.4.02-.17.04-.37.07-.61.02-.24.05-.54.09-.88.03-.23.08-.5.14-.81s.16-.64.3-.98c.09-.2.17-.4.25-.59.08-.19.16-.38.24-.57.08-.19.16-.38.25-.57.08-.19.17-.39.27-.6.02-.05.05-.07.09-.06.04,0,.06.05.06.12-.06.25-.13.53-.19.82-.06.29-.12.59-.17.9-.05.31-.11.61-.15.91-.05.3-.09.57-.14.82-.04.25-.08.47-.11.67-.03.19-.05.34-.07.43-.02.13-.05.27-.09.42-.04.15-.09.31-.15.49-.05.16-.11.32-.15.46-.05.14-.09.27-.13.39.07-.1.15-.21.25-.34.1-.13.21-.25.33-.37.12-.12.24-.23.37-.33.13-.1.26-.18.38-.23.47-.19.83-.12,1.08.2.07.1.12.2.14.31.02.11.02.22.01.33,0,.11-.03.22-.07.33ZM20.88,24.13c-.18.08-.39.25-.64.52-.25.27-.54.64-.86,1.1.54-.03,1.06-.16,1.57-.4.5-.24.94-.6,1.32-1.08-.56-.26-1.02-.31-1.38-.15ZM15.15,24.44c-.17.32-.35.62-.56.9-.21.28-.46.53-.76.73-.42.29-.89.53-1.39.74-.5.21-1.11.4-1.81.58-.7.18-1.47.32-2.3.41-.83.09-1.63.14-2.41.14-.9,0-1.59-.04-2.07-.11-.78-.12-1.34-.34-1.67-.68-.3-.26-.45-.61-.45-1.06,0-.17.02-.42.05-.75.03-.32.08-.65.14-.97.02-.14.05-.26.07-.37.01-.08.03-.14.06-.18.02-.05.05-.07.08-.08.03,0,.06.01.08.06.03.04.05.12.08.23.02.12.05.24.08.37.08.31.29.53.64.68.88.36,2.22.55,4.03.56.63,0,1.34-.03,2.12-.08.78-.06,1.56-.17,2.34-.33.78-.17,1.43-.36,1.97-.58.53-.22.91-.4,1.14-.55.22-.15.42-.33.6-.54.13-.17.21-.26.23-.27,0,0,.03-.01.05-.01.02,0,.04.02.05.04.02.05,0,.15-.04.31-.07.22-.19.49-.35.81ZM10.04,20.68c-.08.12-.17.24-.25.34-.09.11-.18.21-.28.3-.06.07-.12.11-.17.14-.05.03-.09.05-.12.05-.03,0-.06,0-.09,0-.02,0-.05-.02-.07-.04-.17-.13-.34-.26-.5-.4-.16-.13-.34-.26-.54-.38-.02-.03-.04-.06-.04-.07s.01-.04.04-.08l1.11-1.65s.07-.06.1-.06c.03,0,.07.02.11.04.1.06.2.12.3.18.1.06.19.14.27.21.08.08.16.17.22.26.06.09.11.19.13.31.04.13.04.27,0,.41-.04.14-.11.29-.22.44ZM8.03,20.27l-.02.08s0,.02,0,.02c0,0,0,.01,0,.02l-.03.08s-.02.04-.03.06c0,.02-.02.04-.03.06,0,0,0,0,0,.01,0,0,0,0,0,.01l-.04.06s-.02.04-.04.06c-.01.02-.03.03-.04.05,0,0-.01.02-.01.02l-.09.13-.04.05s-.02.02-.03.04c0,.01-.02.03-.03.04-.02.03-.04.05-.05.06l-.12.14s-.01.02-.01.02c0,0-.02.02-.03.04-.01.01-.03.03-.04.04l-.04.04s-.03.04-.06.06l-.07.07-.04.03c-.05.04-.1.07-.14.08h-.04s-.05.01-.05.01c-.04,0-.07-.01-.1-.04-.11-.08-.21-.16-.31-.25-.1-.08-.21-.17-.32-.25-.03-.03-.07-.05-.1-.08-.1-.08-.2-.14-.3-.2,0,0,0,0,0,0-.02-.02-.04-.04-.04-.06s.01-.05.04-.08l1.12-1.64s0,0,0-.01c.03-.04.07-.06.11-.05h.01s0,0,.01.01l.05.02s.02.02.03.02c0,0,.02,0,.03.02,0,0,.02,0,.03.01,0,0,.02.01.03.02.02,0,.04.02.06.04.03.02.06.04.09.05.03.02.06.04.09.06l.03.02s.09.07.12.1c.04.03-.05.07.12.11l.09.1.07.08s.06.09.08.14c0,.01.02.04.03.06l.02.06s0,0,0,.01,0,.01,0,.02c0,.01,0,.02,0,.03,0,.02,0,.03,0,.04,0,.01,0,.03,0,.04,0,0,0,.02,0,.03,0,.01,0,.02,0,.03v.1s0,.02,0,.03c0,.01,0,.02,0,.03ZM25.7,33.54s.07-.07.1-.07c.03,0,.07.02.11.04.1.06.21.12.31.19.1.07.2.15.29.23.09.08.16.17.23.27.07.1.11.2.14.32.04.14.04.28,0,.42-.04.15-.12.3-.23.46-.07.11-.14.21-.22.29-.08.09-.15.17-.24.25-.02.03-.06.06-.12.11-.05.04-.11.08-.17.12-.06.04-.11.06-.17.08-.05.02-.09.01-.12-.02-.18-.14-.35-.27-.52-.42-.17-.14-.36-.27-.56-.39-.03-.02-.05-.05-.05-.07,0-.02.02-.05.04-.1l1.17-1.72ZM98.51,33.54s.07-.07.1-.07c.03,0,.07.02.11.04.1.06.21.12.31.19.1.07.2.15.29.23.09.08.16.17.23.27.07.1.11.2.14.32.04.14.04.28,0,.42-.04.15-.12.3-.23.46-.07.11-.14.21-.22.29-.08.09-.16.17-.24.25-.02.03-.06.06-.12.11-.05.04-.11.08-.17.12-.06.04-.11.06-.17.08-.05.02-.09.01-.12-.02-.18-.14-.35-.27-.52-.42-.17-.14-.36-.27-.56-.39-.03-.02-.05-.05-.05-.07,0-.02.02-.05.04-.1l1.17-1.72Z"/>
</svg>