<?xml version="1.0" encoding="UTF-8"?>
<svg id="Layer_1" xmlns="http://www.w3.org/2000/svg" version="1.1" viewBox="0 0 184.96 48">
  <!-- Generator: Adobe Illustrator 29.6.1, SVG Export Plug-In . SVG Version: 2.1.1 Build 9)  -->
  <defs>
    <style>
      .st0 {
        fill-rule: evenodd;
      }
    </style>
  </defs>
  <g>
    <g id="emblem_half">
      <path d="M184.25,24.77c0,5.95-3.29,11.41-8.55,14.19,7.16-8.96,5.7-22.02-3.26-29.18-.31-.24-.62-.48-.94-.71,7.43,1.56,12.75,8.11,12.75,15.7Z"/>
      <path d="M176.81,24.12c0,10.58-8.59,19.16-19.18,19.15-2,0-4-.32-5.9-.94.34.02.68.02,1.02.02,11.6,0,21-9.41,21-21.01,0-4.19-1.25-8.28-3.59-11.75,4.23,3.63,6.66,8.94,6.66,14.51v.02h0Z"/>
      <path d="M168.66,5.58c0,1.62-1.31,2.93-2.93,2.93-1.01,0-1.95-.52-2.48-1.37l-.35-.35.35-1.72c.63,1.37,2.26,1.97,3.63,1.34.8-.37,1.38-1.11,1.54-1.97.16.37.24.76.24,1.16v-.02h0Z"/>
      <path d="M165.73,10.32c-.98-.45-1.83-1.13-2.48-1.98l-1.05,16.41,1.05,21.02,1.63-2.24.21-5.17.22-5.39.03-.69v-.26l.06-1.12.14-3.39.11-2.74.03-.79.04-1.01v-12.65h0ZM163.25,13.73h0ZM163.25,31.6h0Z"/>
    </g>
    <g id="emblem_half1">
      <path d="M142.25,24.77c0,5.95,3.29,11.41,8.55,14.19-7.16-8.96-5.7-22.02,3.26-29.18.31-.24.62-.48.94-.71-7.43,1.56-12.75,8.11-12.75,15.7Z"/>
      <path d="M149.69,24.12c0,10.58,8.59,19.16,19.18,19.15,2,0,4-.32,5.9-.94-.34.02-.68.02-1.02.02-11.6,0-21-9.41-21-21.01,0-4.19,1.25-8.28,3.59-11.75-4.23,3.63-6.66,8.94-6.66,14.51v.02h.01Z"/>
      <path d="M157.84,5.58c0,1.62,1.31,2.93,2.93,2.93,1.01,0,1.95-.52,2.48-1.37l.35-.35-.35-1.72c-.63,1.37-2.26,1.97-3.63,1.34-.8-.37-1.38-1.11-1.54-1.97-.16.37-.24.76-.24,1.16v-.02h0Z"/>
      <path d="M160.77,10.32c.98-.45,1.83-1.13,2.48-1.98l1.05,16.41-1.05,21.02-1.63-2.24-.21-5.17-.22-5.39-.03-.69v-.26l-.06-1.12-.14-3.39-.11-2.74-.03-.79-.04-1.01v-12.65h0ZM163.25,13.73h0ZM163.25,31.6h0Z"/>
    </g>
  </g>
  <path class="st0" d="M140.51,25.19c-.07.2-.23.39-.47.6-.2.19-.48.23-.85.12-.21-.04-.4-.03-.56.05-.17.08-.33.21-.48.39-.05.06-.12.14-.2.23-.08.09-.17.19-.25.29-.09.1-.17.2-.26.3-.07.09-.14.16-.19.22,0,.01-.02.02-.02.03-.08.06-.16.12-.25.19-.09.07-.18.13-.28.18-.1.05-.21.08-.33.1-.12.02-.25,0-.4-.04-.47.46-.88.8-1.23,1.03-.36.23-.72.34-1.09.33-.23-.02-.43-.07-.6-.15-.17-.08-.31-.18-.42-.3-.12-.12-.21-.25-.28-.4-.07-.15-.12-.29-.16-.45-.04-.15-.06-.3-.07-.44-.01-.14-.02-.26-.02-.37,0-.16.05-.67.16-1.52.11-.85.19-1.46.25-1.83.06-.37.12-.76.19-1.17.07-.41.14-.75.21-1,.08-.21.16-.42.24-.64.09-.22.18-.43.27-.64.06-.09.1-.08.12.05-.11.71-.21,1.46-.31,2.22-.09.77-.16,1.32-.19,1.65-.03.33-.05.52-.05.58-.02.35-.03.6-.03.75h0c0,.35.05.64.17.88.12.24.29.42.49.55.21.12.45.19.73.2.28,0,.57-.05.88-.16,0-.05,0-.11-.01-.19,0-.07-.02-.15-.05-.22-.02-.07-.06-.13-.09-.19-.04-.06-.09-.09-.14-.12-.17-.05-.37-.03-.61.05-.07,0-.11-.02-.12-.06-.01-.05,0-.1.05-.17.12-.15.25-.28.41-.41.16-.13.34-.24.54-.35.42-.21.89-.2,1.42.03.34.18.47.41.36.69-.05.13-.12.26-.21.39-.08.13-.19.25-.31.38.05,0,.11-.02.17-.04.06-.02.13-.04.2-.07.07-.03.13-.05.2-.08.06-.03.12-.06.18-.08h0c.06-.08.15-.2.27-.37.12-.17.26-.39.42-.65.34-.55.73-.95,1.15-1.22.1-.16.2-.31.3-.45.1-.14.19-.26.28-.37.04-.03.07-.05.09-.06.03,0,.06.02.11.06.17.17.32.34.45.52.13.18.21.36.25.55.04.19.02.38-.05.57ZM131.34,25.88c-.02.11-.06.24-.11.41-.05.17-.1.32-.16.46-.27.62-.49,1.07-.67,1.34-.18.27-.34.45-.47.55-.13.1-.31.19-.55.27-.24.08-.49.15-.76.22-.27.06-.47.09-.6.09-.05,0-.08,0-.08,0-.04-.04.15-.19.55-.43.4-.25.74-.47,1-.67.26-.2.5-.42.71-.66.21-.24.36-.49.45-.75-.05.02-.11.04-.18.06-.07.02-.15.03-.22.05-.08.01-.15.02-.22.02-.07,0-.13,0-.19,0-.25-.02-.47-.1-.63-.25-.17-.15-.25-.33-.24-.55.01-.11.04-.23.09-.38.05-.15.15-.38.31-.69.16-.32.33-.58.51-.78.19-.21.36-.31.52-.31.28,0,.51.11.69.34.18.23.29.5.33.82,0,.16,0,.32-.01.48-.02.16-.04.29-.06.4ZM127.79,19.69c-.06.1-.13.19-.2.27-.07.08-.14.16-.22.23-.02.03-.06.06-.11.1-.05.04-.1.08-.15.11-.05.03-.11.06-.15.07-.05.02-.09,0-.11-.02-.16-.12-.32-.25-.48-.38-.16-.13-.33-.25-.52-.36-.03-.02-.05-.04-.04-.06,0-.02.01-.05.04-.09l1.07-1.57s.06-.06.09-.06c.03,0,.06.01.1.04.09.05.19.11.28.17.09.06.18.13.26.21.08.08.15.16.21.25.06.09.1.19.13.29.04.12.03.25,0,.39-.04.13-.11.27-.21.42ZM126.34,24.49h0c.36.15.6.15.71.02.01-.01.15-.2.4-.56.07-.1.11-.15.14-.15.04,0,.07.02.07.06,0,.05,0,.14-.03.26-.03.12-.09.32-.18.59-.09.27-.23.53-.42.76-.19.24-.42.33-.68.28h0c-.23,0-.42.02-.59.05-.16.03-.32.12-.48.26-.16.13-.33.31-.5.54-.08.12-.16.23-.24.35-.08.11-.16.23-.24.35-.19.25-.41.45-.68.62-.64.46-1.55.81-2.76,1.06-1.19.25-2.51.37-3.97.37-.55,0-1.06-.03-1.54-.08-.55-.04-.95-.15-1.21-.32-.42-.25-.64-.72-.64-1.39,0-.43.04-.87.11-1.32.07-.48.14-.72.23-.72.05,0,.11.15.15.45.03.3.14.53.33.7.19.17.48.3.9.41.41.1,1.01.16,1.8.16.64.01,1.37,0,2.17-.03.8-.03,1.45-.08,1.95-.15.5-.06,1.11-.2,1.84-.42.47-.13.87-.28,1.18-.44.32-.16.56-.33.75-.51.02-.01.11-.12.27-.33.16-.21.29-.36.4-.46.21-.21.47-.35.79-.41h0ZM120.86,22.95c-.08.11-.15.22-.23.31-.08.1-.16.19-.26.27-.06.06-.11.1-.15.13-.04.03-.08.04-.11.05-.03,0-.06,0-.08,0-.02,0-.04-.02-.06-.03-.16-.12-.31-.24-.46-.36-.15-.12-.31-.24-.49-.35-.02-.03-.03-.05-.03-.07s.01-.04.03-.07l1.02-1.51s.06-.06.09-.05c.03,0,.06.01.1.04.09.05.18.11.27.16.09.06.18.12.25.2.08.07.14.15.2.24.06.08.1.18.12.28.04.12.03.25,0,.37-.04.13-.1.26-.2.4ZM119.02,22.57l-.02.08s0,.02,0,.02c0,0,0,.01,0,.02l-.03.08s-.02.03-.02.05c0,.02-.01.03-.02.05,0,0,0,0,0,0,0,0,0,0,0,0l-.03.06s-.02.04-.03.05c-.01.02-.02.03-.03.05,0,0-.01.02-.01.02l-.08.12-.03.05s-.02.02-.02.03c0,.01-.01.02-.02.03-.02.03-.03.05-.05.06l-.11.13s-.01.02-.01.02c0,0-.02.02-.03.03-.01.01-.02.02-.04.03l-.04.04s-.03.04-.05.05l-.07.06-.03.03s-.09.06-.13.08h-.04s-.05.01-.05.01c-.04,0-.07-.01-.09-.04-.1-.07-.19-.15-.29-.23-.09-.08-.19-.15-.29-.23-.03-.03-.06-.05-.09-.07-.09-.07-.19-.13-.27-.19,0,0,0,0,0,0-.02-.02-.03-.04-.03-.06s.01-.04.03-.08l1.03-1.5s0,0,0-.01c.03-.04.06-.05.1-.05h.01s0,0,.01.01l.05.02s.02.01.03.02c0,0,.02,0,.03.02,0,0,.02,0,.03.01,0,0,.02.01.03.02.02,0,.04.02.05.03.03.02.05.03.08.05.03.02.05.03.08.05l.03.02c.07.05.15.11.22.19l.08.09.06.08s.06.09.07.13c0,.01.02.03.03.06l.02.06s0,0,0,.01,0,.01,0,.02c0,.01,0,.02,0,.03,0,.02,0,.03,0,.04,0,.01,0,.02,0,.03,0,0,0,.02,0,.03,0,.01,0,.02,0,.03v.09s0,.02,0,.03c0,.01,0,.02,0,.03ZM110.65,18.65c-.08.16-.19.36-.32.59-.23.41-.5.81-.8,1.21-.72.93-1.53,1.4-2.44,1.4-.6,0-1.05-.23-1.34-.68,0-.01-.01-.02-.02-.04l-.75,1.15c0,.09.04.17.13.26.05.04.13.12.25.24.12.12.21.21.28.29.04.07.05.16.05.25,0,.16-.11.37-.32.63-.21.23-.39.35-.56.35-.04,0-.12-.03-.22-.08-.2-.14-.41-.22-.62-.25-.17,0-.33.02-.49.05-.16.04-.32.1-.49.2-.17.1-.32.23-.46.39-.14.16-.23.29-.25.38,0,0,0,0,0,0-.01.06.03.13.13.19.1.06.29.14.56.24.28.09.45.17.51.22.22.14.33.4.33.79,0,.58-.12,1.24-.35,1.98-.23.75-.56,1.39-.98,1.95-.17.25-.39.51-.64.75-.25.25-.53.46-.83.63-.58.38-1.24.57-1.99.57-.85-.01-1.5-.28-1.95-.81-.2-.27-.34-.55-.42-.85-.08-.3-.11-.58-.11-.85.01-.49.08-.98.2-1.48.12-.49.27-.98.46-1.46.19-.48.4-.95.64-1.41.24-.46.48-.9.73-1.32.04-.06.06-.1.07-.11.05-.08.1-.11.14-.1h0s.01.04,0,.08c-.01.04-.04.11-.08.21-.2.4-.39.81-.59,1.23-.2.42-.36.81-.49,1.19-.29.84-.41,1.51-.36,1.99.04.51.25.92.63,1.22.38.3.93.45,1.64.45.59,0,1.16-.12,1.71-.36.41-.18.78-.39,1.09-.65.32-.26.56-.52.73-.8.17-.28.26-.51.26-.7,0-.09-.04-.16-.13-.22-.09-.06-.2-.11-.33-.15-.13-.04-.26-.08-.4-.12-.14-.03-.25-.07-.34-.1-.21-.07-.37-.18-.5-.33-.13-.14-.19-.36-.18-.65,0-.34.12-.75.36-1.22,0,0,.01-.01.02-.02.19-.34.41-.65.65-.93.25-.28.51-.52.77-.7.27-.19.53-.31.79-.38.04-.08.1-.18.16-.28.06-.11.15-.25.26-.41l.72-1.17c.12-.33.19-.74.23-1.22,0-.03,0-.06,0-.08,0-.02,0-.04,0-.06,0-.04.01-.08.02-.12.04-.4.1-.81.19-1.23.1-.51.18-.84.22-.98.06-.2.14-.43.26-.7.11-.27.24-.62.39-1.07.04-.06.07-.09.1-.09s.04.04.04.13c-.1.49-.18.95-.23,1.39-.06.43-.1.83-.12,1.19,0,.46.07.81.18,1.06.08.18.23.3.44.38.21.08.4.11.58.09.17-.44.36-.88.56-1.33.25-.54.48-.92.69-1.14.34-.38.71-.56,1.13-.53.18,0,.33.04.46.11.13.07.2.17.21.29,0,.12-.03.23-.11.33-.05.06-.11.09-.19.09-.01,0-.1-.01-.24-.04-.15-.03-.29-.04-.42-.04-.34.02-.62.15-.83.41-.18.26-.28.5-.3.72-.02.22.03.4.16.53.13.13.32.2.57.2.32-.01.61-.15.86-.43.12-.12.28-.33.46-.63.19-.29.3-.42.32-.39.07.03.07.14,0,.35-.04.09-.09.21-.15.34ZM94.22,25.9c-.13.31-.23.61-.32.89-.09.28-.15.52-.18.71l.45.41c.29.28.44.49.44.62,0,.12-.02.25-.06.38-.04.13-.1.24-.17.34-.07.1-.16.18-.26.25-.1.06-.21.1-.34.1-.47,0-.7-.35-.7-1.06,0-.45.26-1.27.78-2.48.55-1.3.97-1.92,1.27-1.86-.17.23-.33.49-.49.8-.16.3-.3.61-.43.92ZM90.31,18.45c-.06.1-.13.19-.2.27-.07.08-.14.16-.22.23-.02.03-.06.06-.11.1-.05.04-.1.08-.15.11-.05.03-.11.06-.15.07-.05.02-.08,0-.11-.02-.16-.12-.32-.25-.48-.38-.16-.13-.33-.25-.52-.36-.03-.02-.05-.04-.04-.06,0-.02.01-.05.04-.09l1.07-1.57s.06-.06.09-.06c.03,0,.06.01.1.04.09.05.19.11.28.17.09.06.18.13.26.21.08.08.15.16.21.25.06.09.1.19.13.29.04.12.03.25,0,.39-.04.13-.11.27-.21.42ZM88.45,22.69c.3.01.58.15.87.41.38.34.56.78.56,1.31,0,.26-.03.52-.1.78-.07.31-.17.59-.31.86-.21.38-.43.7-.66.97-.24.26-.44.39-.62.39l-.25-.04c-.2-.03-.35-.03-.46,0-.27.1-.58.41-.93.92-.43.62-.88.93-1.34.93-.5,0-.87-.21-1.13-.62-.25-.41-.38-.91-.38-1.48h0c0-.16.05-.67.16-1.52.11-.85.19-1.46.25-1.83.06-.37.12-.76.19-1.17.07-.41.14-.75.21-1,.08-.21.16-.42.24-.64.09-.22.18-.43.27-.64.06-.09.1-.08.12.05-.11.71-.21,1.46-.31,2.22-.09.77-.16,1.32-.19,1.65-.03.33-.05.52-.05.58-.02.35-.03.6-.03.75,0,0,0,0,0,0,0,0,0,0,0,0-.02,1.04.42,1.56,1.32,1.56.37,0,.69-.11.96-.33.27-.23.47-.4.6-.52.18-.12.35-.18.49-.18.27.09.47.13.59.12.13-.01.24-.05.34-.12.1-.06.14-.18.14-.34,0-.11-.05-.22-.14-.35-.09-.11-.19-.16-.29-.16-.13.08-.29.12-.48.13-.2,0-.4-.05-.59-.12-.18-.08-.27-.2-.27-.37,0-.12.03-.26.1-.43.08-.19.19-.43.33-.73.14-.3.28-.55.42-.75.13-.2.25-.3.36-.3ZM87.56,21.6c-.06.1-.13.19-.2.27-.07.08-.14.16-.22.23-.02.03-.06.06-.11.1-.05.04-.1.08-.15.11-.05.03-.11.06-.15.07-.05.02-.08,0-.11-.02-.16-.12-.32-.25-.48-.38-.16-.13-.33-.25-.52-.36-.03-.02-.05-.04-.04-.06,0-.02.01-.05.04-.09l1.07-1.57s.06-.06.09-.06c.03,0,.06.01.1.04.09.05.19.11.28.17.09.06.18.13.26.21.08.08.15.16.21.25.06.09.1.19.13.29.04.12.03.25,0,.39-.04.13-.11.27-.21.42ZM82.95,25.88c-.02.11-.06.24-.11.41-.05.17-.1.32-.16.46-.27.62-.49,1.07-.67,1.34-.18.27-.34.45-.47.55-.13.1-.31.19-.55.27-.24.08-.49.15-.76.22-.27.06-.47.09-.6.09-.05,0-.08,0-.08,0-.04-.04.15-.19.55-.43.4-.25.74-.47,1-.67.26-.2.5-.42.71-.66.21-.24.36-.49.45-.75-.05.02-.11.04-.18.06-.07.02-.15.03-.22.05-.08.01-.15.02-.22.02-.07,0-.13,0-.19,0-.25-.02-.47-.1-.63-.25-.17-.15-.25-.33-.24-.55.01-.11.04-.23.09-.38.05-.15.15-.38.31-.69.16-.32.33-.58.51-.78.19-.21.36-.31.52-.31.28,0,.51.11.69.34s.29.5.33.82c0,.16,0,.32-.01.48-.02.16-.04.29-.06.4ZM78.83,26.44c-.15.56-.29.99-.42,1.28-.13.29-.26.52-.41.67-.15.15-.42.3-.83.44-.4.14-.73.24-1,.29-.27.06-.44.09-.5.09-.07,0-.11-.02-.13-.04-.02-.02,0-.07.05-.14.08-.12.26-.28.53-.48.27-.2.59-.45.96-.75.37-.3.65-.57.83-.8.18-.23.35-.54.49-.94s.28-.81.41-1.25c.13-.43.23-.73.29-.88.06-.15.12-.23.18-.23.07.01.09.07.07.18-.19,1.14-.37,1.98-.52,2.54ZM74.87,21.88c-.05.12-.1.24-.15.36-.05.12-.11.22-.15.32-.05.09-.09.17-.13.23-.04.06-.07.08-.09.08-.02,0-.04,0-.07-.02-.03-.02-.07-.03-.14-.03-.17,0-.42.05-.74.15-.32.1-.66.29-1.02.57-.36.28-.63.55-.82.79-.19.25-.28.42-.28.51-.02.14.02.26.14.35.1.08.29.16.57.26.27.09.45.17.51.22.22.14.33.4.33.79,0,.58-.12,1.24-.35,1.98-.23.75-.56,1.39-.98,1.95-.17.25-.39.51-.64.75-.26.25-.53.46-.83.63-.58.38-1.24.57-1.99.57-.85-.01-1.5-.28-1.95-.81-.2-.27-.34-.55-.42-.85-.08-.3-.11-.58-.11-.85.01-.49.08-.98.2-1.48.12-.49.27-.98.46-1.46.19-.48.4-.95.64-1.41.24-.46.48-.9.73-1.32.04-.06.06-.1.07-.11.05-.06.1-.1.14-.1h0s.01.04,0,.08c-.01.04-.04.11-.08.21-.2.4-.39.81-.59,1.23-.2.42-.36.81-.49,1.19-.29.84-.41,1.51-.36,1.99.04.51.25.92.63,1.22.38.3.93.45,1.64.45.59,0,1.16-.12,1.71-.36.41-.18.78-.39,1.09-.65.32-.26.56-.52.73-.8.17-.28.26-.51.26-.7,0-.09-.04-.16-.13-.22-.09-.06-.2-.11-.33-.15-.13-.04-.26-.08-.4-.12-.14-.03-.25-.07-.34-.1-.21-.07-.37-.18-.5-.33-.13-.14-.19-.36-.18-.65,0-.37.13-.81.38-1.33.25-.51.6-1.05,1.05-1.6.39-.43.73-.77,1.01-1,.28-.23.54-.43.8-.61.26-.18.51-.33.75-.45.1-.05.19-.09.28-.12.12-.03.2-.04.26-.02.06.02.09.06.1.13-.02.08-.05.17-.09.28-.04.11-.08.23-.13.35ZM63.81,25.88c-.02.11-.06.24-.11.41-.05.17-.1.32-.16.46-.27.62-.49,1.07-.67,1.34-.18.27-.34.45-.47.55-.13.1-.31.19-.55.27-.24.08-.49.15-.76.22-.27.06-.47.09-.6.09-.05,0-.08,0-.08,0-.04-.04.15-.19.55-.43.4-.25.74-.47,1-.67.26-.2.5-.42.71-.66.21-.24.36-.49.45-.75-.05.02-.11.04-.18.06-.07.02-.15.03-.22.05-.08.01-.15.02-.22.02-.07,0-.13,0-.19,0-.25-.02-.47-.1-.63-.25-.17-.15-.25-.33-.24-.55.01-.11.04-.23.09-.38.05-.15.15-.38.31-.69.16-.32.33-.58.51-.78.19-.21.36-.31.52-.31.28,0,.51.11.69.34s.29.5.33.82c0,.16,0,.32-.01.48-.02.16-.04.29-.06.4ZM58.08,21.56c-.04.22-.06.39-.08.52-.03.22-.05.47-.08.74s-.05.56-.07.85c-.02.29-.04.57-.07.85-.02.28-.05.52-.07.74-.07.67-.18,1.22-.33,1.65-.15.43-.32.83-.52,1.2-.2.37-.36.56-.48.58-.03,0-.02-.08.03-.23.06-.15.11-.33.16-.55.05-.22.1-.45.14-.71.04-.25.08-.51.11-.77.03-.26.06-.52.08-.75.03-.22.06-.56.08-1,.02-.45.06-.82.1-1.13.04-.31.11-.57.2-.79l.7-1.58c.06-.13.1-.19.14-.19.06,0,.08.04.05.12-.03.09-.06.25-.09.47ZM56.82,15.89c-.08.11-.15.22-.23.31-.08.1-.16.19-.26.27-.06.06-.11-.02-.15.13-.04.03-.08.04-.11.05-.03,0-.06,0-.08,0-.02,0-.04-.02-.06-.03-.16-.12-.31-.24-.46-.36-.15-.12-.31-.24-.49-.35-.02-.03-.03-.05-.03-.07s.01-.04.03-.07l1.02-1.51s.06-.06.09-.05c.03,0,.06.01.1.04.09.05.18.11.27.16.09.06.18.12.25.2.08.07.14.15.2.24.06.08.1.18.12.28.04.12.03.25,0,.37-.04.13-.1.26-.2.4ZM54.99,15.51l-.02.08s0,.02,0,.02c0,0,0,.01,0,.02l-.03.08s-.02.03-.02.05c0,.02-.01.03-.02.05,0,0,0,0,0,0,0,0,0,0,0,0l-.03.06s-.02.04-.03.05c-.01.02-.02.03-.03.05,0,0-.01.02-.01.02l-.08.12-.03.05s-.02.02-.02.03c0,.01-.01.02-.02.03-.02.03-.03.05-.05.06l-.11.13s-.01.02-.01.02c0,0-.02.02-.03.03-.01.01-.02.02-.04.03l-.04.04s-.03.04-.05.05l-.07.06-.03.03s-.09.06-.13.08h-.04s-.05.01-.05.01c-.04,0-.07-.01-.09-.04-.1-.07-.19-.15-.29-.23-.09-.08-.19-.15-.29-.23-.03-.03-.06-.05-.09-.07-.09-.07-.19-.13-.27-.19,0,0,0,0,0,0-.02-.02-.03-.04-.03-.06s.01-.04.03-.08l1.03-1.5s0,0,0-.01c.03-.04.06-.05.1-.05h.01s0,0,.01.01l.05.02s.02.01.03.02c0,0,.02,0,.03.02,0,0,.02,0,.03.01,0,0,.02.01.03.02.02,0,.04.02.05.03.03.02.05.03.08.05.03.02.05.03.08.05l.03.02c.07.05.15.11.22.19l.08.09.06.08s.06.09.07.13c0,.01.02.03.03.06l.02.06s0,0,0,.01,0,.01,0,.02c0,.01,0,.02,0,.03,0,.02,0,.03,0,.04,0,.01,0,.02,0,.03,0,0,0,.02,0,.03,0,.01,0,.02,0,.03v.09s0,.02,0,.03c0,.01,0,.02,0,.03ZM52.11,18.45l-.02.08s0,.02,0,.02c0,0,0,.01,0,.02l-.03.08s-.02.03-.02.05c0,.02-.01.03-.02.05,0,0,0,0,0,0,0,0,0,0,0,0l-.03.06s-.02.04-.03.05c-.01.02-.02.03-.03.05,0,0-.01.02-.01.02l-.08.12-.03.05s-.02.02-.02.03c0,.01-.01.02-.02.03-.02.03-.03.05-.05.06l-.11.13s-.01.02-.01.02c0,0-.02.02-.03.03-.01.01-.02.02-.04.03l-.04.04s-.03.04-.05.05l-.07.06-.03.03s-.09.06-.13.08h-.04s-.05.01-.05.01c-.04,0-.07-.01-.09-.04-.1-.07-.19-.15-.29-.23-.09-.08-.19-.15-.29-.23-.03-.03-.06-.05-.09-.07-.09-.07-.19-.13-.28-.19,0,0,0,0,0,0-.02-.02-.03-.04-.03-.06s.01-.04.03-.08l1.03-1.5s0,0,0-.01c.03-.04.06-.05.1-.05h.01s0,0,.01.01l.05.02s.02.01.03.02c0,0,.02,0,.03.02,0,0,.02,0,.03.01,0,0,.02.01.03.02.02,0,.04.02.05.03.03.02.05.03.08.05.03.02.05.03.08.05l.03.02c.07.05.15.11.22.19l.08.09.06.08s.06.09.07.13c0,.01.02.03.03.06l.02.06s0,0,0,.01,0,.01,0,.02c0,.01,0,.02,0,.03,0,.02,0,.03,0,.04,0,.01,0,.02,0,.03,0,0,0,.02,0,.03,0,.01,0,.02,0,.03v.09s0,.02,0,.03c0,.01,0,.02,0,.03ZM53.95,18.82c-.08.11-.15.22-.23.31-.08.1-.16.19-.26.27-.06.06-.11.1-.15.13s-.08.04-.11.05-.06,0-.08,0c-.02,0-.04-.02-.06-.03-.16-.12-.31-.24-.46-.36-.15-.12-.31-.24-.49-.35-.02-.03-.03-.05-.03-.07s.01-.04.03-.07l1.02-1.51s.06-.06.09-.05c.03,0,.06.01.1.04.09.05.18.11.27.16.09.06.18.12.25.2.08.07.14.15.2.24.06.08.1.18.12.28.04.12.03.25,0,.37-.04.13-.1.26-.2.4ZM51.21,23.92c.21-.09.38-.13.53-.11.22.03.39.12.52.28.13.16.18.34.16.54-.03.31-.19.68-.49,1.11-.06.09-.13.18-.19.27.04-.03.08-.05.11-.08.35-.27.66-.55.92-.87,0,0,0,0,0,0,.21-.25.35-.4.42-.46.15-.15.28-.22.39-.22.04,0,.14.02.32.05.17.03.3.05.38.05.14,0,.23-.04.29-.13.05-.09.08-.21.08-.35s-.06-.3-.18-.47c-.04-.05-.1-.11-.17-.17-.07.04-.15.08-.23.1-.1.03-.21.05-.34.05-.3,0-.49-.06-.57-.17-.1-.12-.15-.26-.15-.45,0-.06.06-.23.17-.5.05-.13.1-.25.14-.35.04-.1.07-.18.1-.24.13-.27.25-.46.35-.59.15-.17.34-.26.56-.26s.49.16.76.47c.31.38.47.85.47,1.41,0,.2-.04.43-.11.68-.08.28-.16.53-.26.75-.24.53-.45.9-.64,1.11-.18.21-.37.31-.57.31-.08,0-.17-.02-.3-.06-.12-.04-.22-.06-.31-.06-.11,0-.2.02-.26.07-.07.05-.18.14-.33.27-.17.19-.34.35-.49.49-.15.14-.31.26-.48.36-.48.27-.88.46-1.2.58-.32.12-.51.19-.59.21-.17.06-.38.11-.62.15,0-.03-.02-.06-.03-.1-.12,0-.24.01-.36,0-.17,0-.34-.02-.51-.05-.17-.03-.34-.07-.5-.14-.16-.06-.32-.15-.47-.25-.08-.02-.15.01-.22.1-.07.09-.15.2-.23.35-.08.14-.17.3-.26.48-.09.17-.2.34-.32.5-.12.16-.25.29-.39.41-.15.12-.31.19-.49.21-.33.02-.61-.02-.84-.14-.23-.11-.41-.27-.55-.46-.14-.2-.24-.43-.3-.69-.06-.26-.09-.53-.08-.81,0-.16.05-.67.16-1.52.11-.85.19-1.46.25-1.83.06-.37.12-.76.19-1.17.07-.41.14-.75.21-1,.08-.21.16-.42.24-.64.09-.22.18-.43.27-.64.06-.09.1-.08.12.05-.11.71-.21,1.46-.31,2.22-.09.77-.16,1.32-.19,1.65-.03.33-.05.52-.05.58-.02.35-.03.6-.03.75,0,.27.05.51.14.72.09.21.21.38.37.51.15.13.33.23.54.28.21.06.42.07.64.05.09-.02.18-.05.27-.09.08-.04.18-.1.27-.18s.2-.18.32-.3c.11-.12.25-.28.41-.47.11-.13.22-.21.33-.24.11-.03.2-.02.3.01.09.06.18.11.29.15.1.04.21.08.33.1,0,0,.08-.09.23-.24.14-.15.34-.36.59-.64.27-.29.53-.56.79-.81.26-.25.49-.42.7-.51ZM49.27,26.15c.49.06.95.02,1.38-.13.42-.14.81-.39,1.18-.75-.02-.03-.05-.06-.08-.1-.04-.04-.09-.09-.15-.13-.06-.05-.14-.09-.23-.13s-.19-.06-.32-.07c-.26-.03-.52.07-.79.31-.27.23-.6.57-.98,1ZM42.17,28.04c-.09.15-.19.29-.3.41-.11.12-.26.23-.46.32-.2.09-.63.23-1.28.43-.08.02-.14.02-.17,0,0,0,0-.03,0-.06,0-.03.04-.07.09-.12.12-.09.25-.19.42-.31.43-.31.79-.61,1.08-.9.29-.3.44-.52.46-.68.04-.18-.07-.42-.32-.71-.25-.28-.55-.55-.89-.79-.03-.02-.04-.04-.04-.06,0-.02,0-.03.01-.05l.32-.7.44-.95c.04-.08.07-.14.1-.19.03-.05.06-.06.1-.04.19.15.37.31.56.49.19.17.35.37.48.6.13.23.2.52.2.88,0,.42-.07.83-.21,1.22-.14.39-.33.79-.57,1.21ZM36.96,28.04c-.09.15-.19.29-.3.41-.11.12-.26.23-.46.32-.2.09-.63.23-1.28.43-.08.02-.14.02-.17,0,0,0,0-.03,0-.06,0-.03.04-.07.09-.12.12-.09.25-.19.42-.31.43-.31.79-.61,1.08-.9.29-.3.44-.52.46-.68.04-.18-.07-.42-.32-.71-.25-.28-.55-.55-.89-.79-.03-.02-.04-.04-.04-.06,0-.02,0-.03.01-.05l.32-.7.44-.95c.04-.08.07-.14.1-.19.03-.05.06-.06.1-.04.19.15.37.31.56.49.19.17.35.37.48.6.13.23.2.52.2.88,0,.42-.07.83-.21,1.22-.14.39-.33.79-.57,1.21ZM33.97,21.56c-.04.22-.06.39-.08.52-.03.22-.05.47-.08.74s-.05.56-.07.85c-.02.29-.04.57-.07.85-.02.28-.05.52-.07.74-.07.67-.18,1.22-.33,1.65-.15.43-.32.83-.52,1.2-.2.37-.36.56-.48.58-.03,0-.02-.08.03-.23.06-.15.11-.33.16-.55.05-.22.1-.45.14-.71.04-.25.08-.51.11-.77.03-.26.06-.52.08-.75.03-.22.06-.56.08-1,.02-.45.06-.82.1-1.13.04-.31.11-.57.2-.79l.7-1.58c.06-.13.1-.19.14-.19.06,0,.08.04.05.12-.03.09-.06.25-.09.47ZM31.35,15.87c-.06.1-.13.19-.2.27-.07.08-.14.16-.22.23-.02.03-.06.06-.11.1-.05.04-.1.08-.15.11-.05.03-.11.06-.15.07-.05.02-.08,0-.11-.02-.16-.12-.32-.25-.48-.38-.16-.13-.33-.25-.52-.36-.03-.02-.05-.04-.04-.06,0-.02.01-.05.04-.09l1.07-1.57s.06-.06.09-.06c.03,0,.06.01.1.04.09.05.19.11.28.17.09.06.18.13.26.21.08.08.15.16.21.25.06.09.1.19.13.29.04.12.03.25,0,.39-.04.13-.11.27-.21.42ZM29.44,22.49s.1-.09.16-.15c.06-.06.11-.12.17-.18.05-.06.1-.12.14-.18.04-.06.06-.11.07-.15.01-.07.02-.15.02-.23,0-.08,0-.17,0-.25,0-.09,0-.17,0-.25,0-.08.02-.15.04-.22.02-.06.06-.16.13-.28l.68-1.34s.05-.06.08-.03c.03.03.04.06.04.11-.03.14-.05.29-.05.44,0,.15,0,.31-.01.46,0,.15,0,.3-.02.45,0,.15-.03.3-.07.44-.04.19-.1.39-.19.6-.09.21-.2.41-.33.61-.13.2-.26.38-.41.55-.15.17-.29.3-.42.41l-.03.02c-.13.1-.25.17-.37.21-.12.03-.2.05-.23.04-.04.01-.07.03-.11.06-.04.03-.08.05-.13.08-.05.03-.12.05-.2.07-.08.02-.18.03-.3.03-.06.05-.14.1-.22.14-.09.04-.18.08-.27.11-.09.03-.18.06-.27.09-.09.03-.17.05-.24.07l-.03.27c-.12,1.38-.4,2.62-.85,3.7-.3.72-.67,1.4-1.13,2.03-1.09,1.42-2.39,2.12-3.92,2.13-.74-.04-1.37-.28-1.88-.74-.51-.45-.78-1.09-.81-1.92.02-1.32.45-2.76,1.29-4.33l.24-.48s.02,0,.03.04c0,.03.01.07,0,.13,0,.05-.02.12-.03.18-.02.07-.04.14-.07.21l-.03.06c-.1.24-.2.48-.29.73s-.17.49-.24.74c-.07.24-.12.48-.16.72-.04.23-.06.46-.05.67.07.65.35,1.12.83,1.42.48.3,1.04.47,1.69.5.87,0,1.71-.22,2.52-.67.6-.38,1.08-.86,1.44-1.44.55-.8.81-1.91.78-3.33,0-.17,0-.35,0-.52s0-.35-.01-.53c-.03-.21-.02-.37.04-.5.06-.12.17-.19.33-.2.04,0,.1,0,.16,0,.06,0,.12.01.19.02.06,0,.13.02.19.02.06,0,.12,0,.17,0,.23-.03.4-.12.53-.3.11-.13.22-.15.33-.05.3.11.51.01.66-.3.04-.1.11-.11.21-.03.05.02.12.02.21,0ZM27.29,19.31c-.08.11-.15.22-.23.31-.08.1-.16.19-.26.27-.06.06-.11.1-.15.13-.04.03-.08.04-.11.05-.03,0-.06,0-.08,0-.02,0-.04-.02-.06-.03-.16-.12-.31-.24-.46-.36-.15-.12-.31-.24-.49-.35-.02-.03-.03-.05-.03-.07s.01-.04.03-.07l1.02-1.51s.06-.06.09-.05c.03,0,.06.01.1.04.09.05.18.11.27.16.09.06.18.12.25.2.08.07.14.15.2.24.06.08.1.18.12.28.04.12.03.25,0,.37-.04.13-.1.26-.2.4ZM26.37,16.98c-.08.11-.15.22-.23.31-.08.1-.16.19-.26.27-.06.06-.11.1-.15.13-.04.03-.08.04-.11.05-.03,0-.06,0-.08,0-.02,0-.04-.02-.06-.03-.16-.12-.31-.24-.46-.36-.15-.12-.31-.24-.49-.35-.02-.03-.03-.05-.03-.07s.01-.04.03-.07l1.02-1.51s.06-.06.09-.05c.03,0,.06.01.1.04.09.05.18.11.27.16.09.06.18.12.25.2.08.07.14.15.2.24.06.08.1.18.12.28.04.12.03.25,0,.26-.04.25-.1.38-.2.52ZM24.52,17.74h.01s.02.01.03.02c0,0,.02.01.03.01.06.03.12.07.17.11.06.04.12.07.17.11l.07.06s.09.08.13.12c.04.04.08.08.11.13l.04.05.06.1v.03s.03.04.04.06c0,.02.01.04.02.06l.02.06s0,.03,0,.04c0,0,0,.02,0,.03,0,0,0,.02,0,.03s0,.02,0,.02c0,0,0,.01,0,.02,0,.08,0,.16-.03.23,0,0,0,.02,0,.02,0,0,0,.01,0,.02l-.03.08-.02.04s0,.02-.01.03c0,.01,0,.02-.02.03l-.04.08-.08.12-.11.16s-.05.07-.07.1c-.03.03-.05.07-.08.1-.04.04-.07.08-.11.12-.04.04-.07.08-.11.11l-.07.06-.03.03c-.05.04-.1.07-.14.08-.04.01-.07.02-.1,0-.02,0-.03,0-.04-.02-.01,0-.02-.01-.03-.02l-.16-.12-.07-.06-.4-.31-.05-.03c-.09-.07-.19-.13-.28-.19-.03-.02-.04-.04-.04-.06s.01-.05.03-.08l1.03-1.5s.07-.07.11-.06ZM18.14,31.5c-.06.1-.13.19-.2.27-.07.08-.14.16-.22.23-.02.03-.06.06-.11.1-.05.04-.1.08-.15.11-.05.03-.11.06-.15.07-.05.02-.09,0-.11-.02-.16-.12-.32-.25-.48-.38-.16-.13-.33-.25-.52-.36-.03-.02-.05-.04-.04-.06,0-.02.01-.05.04-.09l1.07-1.57s.06-.06.09-.06c.03,0,.06.01.1.04.09.05.19.11.28.17.09.06.18.13.26.21.08.08.15.16.21.25s.1.19.13.29c.04.12.03.25,0,.39-.04.13-.11.27-.21.42ZM17.82,24.91c-.02.13-.05.27-.09.41-.04.14-.09.28-.15.43-.06.14-.12.27-.2.39-.07.12-.16.21-.25.29-.09.08-.19.13-.3.14-.2.04-.42,0-.66-.09-.05,0-.27.18-.66.51-.39.33-.76.46-1.12.39-.2-.03-.35-.03-.46,0-.27.1-.58.41-.93.92-.43.62-.88.93-1.34.93-.5,0-.87-.21-1.13-.62-.25-.41-.38-.91-.38-1.48,0-.16.05-.67.16-1.52.11-.85.19-1.46.25-1.83.06-.37.12-.76.19-1.17.07-.41.14-.75.21-1,.08-.21.16-.42.24-.64.09-.22.18-.43.27-.64.06-.09.1-.08.12.05-.11.71-.21,1.46-.31,2.22-.09.77-.16,1.32-.19,1.65-.03.33-.05.52-.05.58-.02.35-.03.6-.03.75,0,0,0,0,0,0,0,0,0,0,0,0-.02,1.04.42,1.56,1.32,1.56.37,0,.69-.11.96-.33.27-.23.47-.4.6-.52.18-.12.35-.18.49-.18.13,0,.3.06.52.17.22.11.39.16.51.14.1-.02.18-.05.25-.11.07-.06.12-.12.15-.18-.2-.67-.09-1.34.33-2.02l.15-.21s.07-.07.09-.06c.02,0,.04.03.04.06-.02.22,0,.42.08.58.07.16.18.28.33.35.04.02.1.03.18.05.07.02.15.02.23,0,.08-.01.16-.05.24-.11.08-.06.14-.15.19-.29.03-.09.07-.13.12-.13.05,0,.07.07.06.2,0,.1-.01.22-.03.35ZM16.64,19.73c-.06.1-.13.19-.2.27-.07.08-.14.16-.22.23-.02.03-.06.06-.11.1-.05.04-.1.08-.15.11-.05.03-.11.06-.15.07-.05.02-.08,0-.11-.02-.16-.12-.32-.25-.48-.38-.16-.13-.33-.25-.52-.36-.03-.02-.05-.04-.04-.06,0-.02.01-.05.04-.09l1.07-1.57s.06-.06.09-.06c.03,0,.06.01.1.04.09.05.19.11.28.17.09.06.18.13.26.21.08.08.15.16.21.25.06.09.1.19.13.29.04.12.03.25,0,.39-.04.13-.11.27-.21.42ZM9.15,23.42l-.1.97c-.01.11-.02.22-.03.32-.13,1.38-.42,2.62-.86,3.7-.3.72-.67,1.4-1.13,2.03-1.09,1.42-2.39,2.12-3.92,2.12-.73-.03-1.34-.27-1.84-.72-.51-.45-.78-1.09-.81-1.92,0-1.32.42-2.76,1.26-4.33l.25-.48s.04.04.03.15c0,.11-.06.27-.15.47-.1.24-.2.48-.31.73-.1.25-.19.49-.26.74-.08.24-.14.48-.18.72-.04.23-.06.46-.04.67.09.65.38,1.12.86,1.42.49.3,1.05.47,1.7.49.87,0,1.71-.21,2.52-.66.6-.38,1.08-.86,1.44-1.44.59-.78.85-1.85.76-3.2,0-.28.03-.54.09-.77.07-.23.26-.74.57-1.53.07-.18.12-.3.16-.33.04-.04.07-.04.09-.02.02.02.02.09,0,.19l-.1.67ZM5.83,26.75c-.06.09-.12.18-.17.25-.05.07-.11.13-.16.19-.05.06-.11.11-.16.15-.06.05-.12.1-.18.15-.02.02-.04.03-.06.04-.02,0-.03,0-.04,0-.07,0-.11-.02-.13-.06-.04-.05-.1-.11-.18-.18-.08-.07-.18-.15-.3-.25l-.56-.43s-.05-.07-.04-.1c.02-.03.03-.06.04-.07.14-.25.3-.5.46-.76.16-.26.31-.5.45-.72.02-.03.04-.06.05-.08.01-.02.03-.03.04-.03.01,0,.03,0,.05.02.02.01.04.03.08.05.08.06.18.13.29.2.11.08.22.16.34.26.22.19.36.38.41.58.02.12.01.24-.02.36-.04.13-.11.27-.2.42ZM11.59,33.71s0,0,0-.01c.03-.04.06-.05.1-.05h.01s0,0,.01.01l.05.02s.02.01.03.02c0,0,.02,0,.03.02,0,0,.02,0,.03.01,0,0,.02.01.03.02.02,0,.04.02.05.03.03.02.05.03.08.05.03.02.05.03.08.05l.03.02s.08.06.11.09c.04.03.07.06.11.1l.08.09.06.08s.06.09.07.13c0,.01.02.03.03.06l.02.06s0,0,0,.01,0,.01,0,.02c0,.01,0,.02,0,.03,0,.02,0,.03,0,.04,0,.01,0,.02,0,.03,0,0,0,.02,0,.03,0,.01,0,.02,0,.03v.09s0,.02,0,.03c0,.01,0,.02,0,.03l-.02.08s0,.01,0,.02c0,0,0,.01,0,.02l-.03.08s-.02.03-.02.05-.01.03-.02.05c0,0,0,0,0,0,0,0,0,0,0,0l-.03.06s-.02.04-.03.05c-.01.01-.02.03-.03.05,0,0-.01.02-.01.02l-.08.12-.03.05s-.02.02-.02.03c0,.01-.01.02-.02.03-.02.03-.03.05-.05.06l-.11.13s-.01.02-.01.02c0,0-.02.02-.03.03-.01.01-.02.02-.04.03l-.04.04s-.03.04-.05.05l-.07.06-.03.03s-.09.06-.13.08h-.04s-.05.01-.05.01c-.04,0-.07-.01-.09-.04-.1-.07-.19-.15-.29-.23-.09-.08-.19-.15-.29-.23-.03-.03-.06-.05-.09-.07-.09-.07-.19-.13-.28-.19,0,0,0,0,0,0-.02-.02-.03-.04-.03-.06s.01-.04.03-.08l1.03-1.5ZM13.64,33.58s.06-.06.09-.05c.03,0,.06.01.1.04.09.05.18.11.27.16.09.06.18.12.25.2.08.07.14.15.2.24.06.08.1.18.12.28.04.12.03.25,0,.37-.04.13-.1.26-.2.4-.08.11-.15.22-.23.31-.08.1-.16.19-.26.27-.06.06-.11.1-.15.13-.04.03-.08.04-.11.05-.03,0-.06,0-.08,0-.02,0-.04-.02-.06-.03-.16-.12-.31-.24-.46-.36-.15-.12-.31-.24-.49-.35-.02-.03-.03-.05-.03-.07s.01-.04.03-.07l1.02-1.51Z"/>
</svg>