<?xml version="1.0" encoding="UTF-8"?>
<svg id="Layer_1" xmlns="http://www.w3.org/2000/svg" version="1.1" viewBox="0 0 141.83 48">
  <!-- Generator: Adobe Illustrator 29.6.1, SVG Export Plug-In . SVG Version: 2.1.1 Build 9)  -->
  <defs>
    <style>
      .st0 {
        fill-rule: evenodd;
      }
    </style>
  </defs>
  <g>
    <g id="emblem_half">
      <path d="M140.2,23.67c0,5.95-3.29,11.41-8.55,14.19,7.16-8.96,5.7-22.02-3.26-29.18-.31-.24-.62-.48-.94-.71,7.43,1.56,12.75,8.11,12.75,15.7Z"/>
      <path d="M132.76,23.02c0,10.58-8.59,19.16-19.18,19.15-2,0-4-.32-5.9-.94.34.02.68.02,1.02.02,11.6,0,21-9.41,21-21.01,0-4.19-1.25-8.28-3.59-11.75,4.23,3.63,6.66,8.94,6.66,14.51v.02h0Z"/>
      <path d="M124.61,4.48c0,1.62-1.31,2.93-2.93,2.93-1.01,0-1.95-.52-2.48-1.37l-.35-.35.35-1.72c.63,1.37,2.26,1.97,3.63,1.34.8-.37,1.38-1.11,1.54-1.97.16.37.24.76.24,1.16v-.02h0Z"/>
      <path d="M121.68,9.22c-.98-.45-1.83-1.13-2.48-1.98l-1.05,16.41,1.05,21.02,1.63-2.24.21-5.17.22-5.39.03-.69v-.26l.06-1.12.14-3.39.11-2.74.03-.79.04-1.01v-12.65h0ZM119.2,12.63h0ZM119.2,30.5h0Z"/>
    </g>
    <g id="emblem_half1">
      <path d="M98.2,23.67c0,5.95,3.29,11.41,8.55,14.19-7.16-8.96-5.7-22.02,3.26-29.18.31-.24.62-.48.94-.71-7.43,1.56-12.75,8.11-12.75,15.7Z"/>
      <path d="M105.64,23.02c0,10.58,8.59,19.16,19.18,19.15,2,0,4-.32,5.9-.94-.34.02-.68.02-1.02.02-11.6,0-21-9.41-21-21.01,0-4.19,1.25-8.28,3.59-11.75-4.23,3.63-6.66,8.94-6.66,14.51v.02h.01Z"/>
      <path d="M113.79,4.48c0,1.62,1.31,2.93,2.93,2.93,1.01,0,1.95-.52,2.48-1.37l.35-.35-.35-1.72c-.63,1.37-2.26,1.97-3.63,1.34-.8-.37-1.38-1.11-1.54-1.97-.16.37-.24.76-.24,1.16v-.02h0Z"/>
      <path d="M116.72,9.22c.98-.45,1.83-1.13,2.48-1.98l1.05,16.41-1.05,21.02-1.63-2.24-.21-5.17-.22-5.39-.03-.69v-.26l-.06-1.12-.14-3.39-.11-2.74-.03-.79-.04-1.01v-12.65h0ZM119.2,12.63h0ZM119.2,30.5h0Z"/>
    </g>
  </g>
  <path class="st0" d="M94.97,24.08c-.02.17-.04.3-.06.41-.03.11-.06.25-.12.42-.05.17-.11.33-.17.48-.28.65-.51,1.12-.7,1.4-.19.28-.35.47-.49.58-.14.1-.33.19-.58.28-.25.09-.51.16-.79.23-.28.07-.49.1-.62.1-.06,0-.08,0-.08,0-.04-.04.16-.2.58-.45.42-.26.77-.49,1.05-.7.28-.21.52-.44.74-.69.22-.25.37-.51.47-.79-.05.02-.11.04-.19.06-.07.02-.15.04-.23.05-.08.01-.16.02-.23.02-.07,0-.14,0-.2,0-.27-.02-.49-.1-.66-.26s-.26-.34-.25-.57c.01-.11.05-.24.1-.4.05-.15.16-.39.32-.72.16-.33.34-.6.54-.82.19-.22.37-.32.54-.32.29,0,.53.12.72.35.19.24.31.52.34.85,0,.17,0,.33-.01.5ZM91.41,19.59c-.07.1-.13.2-.21.28-.07.08-.15.16-.23.24-.02.03-.06.06-.11.1-.05.04-.1.08-.16.11-.06.04-.11.06-.16.08-.05.02-.09.01-.11-.02-.17-.13-.33-.26-.5-.4-.16-.13-.34-.26-.54-.38-.03-.02-.05-.04-.05-.06,0-.02.02-.05.04-.09l1.12-1.64s.07-.07.1-.06c.03,0,.07.01.1.04.1.05.2.11.29.18.1.07.19.14.27.22.08.08.16.16.22.26.06.09.11.19.14.31.04.13.04.26,0,.4-.04.14-.11.28-.22.44ZM90.15,24.69c.15-.42.29-.85.43-1.3.14-.45.24-.76.3-.92.06-.16.13-.24.19-.24.07.01.1.08.07.19-.2,1.18-.38,2.07-.54,2.65-.16.58-.31,1.03-.44,1.34-.13.31-.27.54-.43.7-.16.16-.44.32-.86.46-.42.15-.77.25-1.05.31-.28.06-.45.09-.52.09-.07,0-.11-.02-.13-.04-.02-.02,0-.07.05-.14.09-.12.27-.29.56-.5.28-.21.62-.47,1-.79.38-.31.67-.59.86-.83.19-.24.36-.57.51-.98ZM86.22,19.98c-.04.23-.07.41-.08.54-.03.23-.06.49-.08.77s-.05.58-.08.89-.05.6-.07.89c-.02.29-.05.55-.08.77-.07.7-.19,1.27-.34,1.72-.15.45-.33.87-.54,1.25-.21.38-.37.58-.5.6-.03,0-.02-.08.03-.24.06-.15.12-.34.17-.57.05-.23.1-.47.14-.74.04-.26.08-.53.11-.81s.06-.54-.04-.78c.16-.23.18-.58.21-1.05.02-.46.06-.86.1-1.18.05-.32.12-.6.21-.83l.73-1.65c.06-.13.11-.2.15-.2.06,0,.08.04.06.13-.03.09-.06.26-.1.49ZM83.08,25.07c-.16.58-.31,1.03-.44,1.34-.13.31-.27.54-.43.7-.16.16-.44.32-.86.46-.42.15-.77.25-1.05.31-.28.06-.45.09-.52.09-.07,0-.11-.02-.13-.04-.02-.02,0-.07.05-.14.09-.12.27-.29.56-.5.28-.21.62-.47,1-.79.38-.31.67-.59.86-.83.19-.24.36-.57.51-.98.15-.42.29-.85.43-1.3.14-.45.24-.76.3-.92.06-.16.13-.24.19-.24.07.01.1.08.07.19-.2,1.18-.38,2.07-.54,2.65ZM78.73,24.63c-.16.3-.34.59-.54.86-.2.27-.44.5-.73.7-.41.27-.85.51-1.33.71-.48.2-1.06.38-1.73.56-.67.17-1.4.3-2.19.39-.79.09-1.56.13-2.3.13-.86,0-1.52-.03-1.97-.1-.75-.11-1.28-.33-1.6-.65-.28-.25-.43-.58-.43-1.01,0-.17.02-.4.05-.71.03-.31.08-.62.13-.93.02-.13.04-.25.06-.35.01-.07.03-.13.06-.17.02-.04.05-.07.08-.08.03,0,.05.01.08.05s.05.12.07.22c.02.11.04.23.08.35.07.29.28.51.61.65.84.35,2.12.53,3.85.54.6,0,1.28-.03,2.02-.08.75-.05,1.49-.16,2.24-.32.74-.16,1.37-.34,1.88-.55.51-.21.87-.38,1.08-.53.21-.14.41-.31.57-.51.13-.16.2-.25.22-.26,0,0,.03-.01.05-.01.02,0,.04.01.05.04.02.05,0,.15-.04.3-.07.21-.18.47-.34.77ZM73.86,21.04c-.08.12-.16.23-.24.33-.08.1-.17.2-.27.29-.06.06-.11.11-.16.13-.05.03-.09.04-.12.05-.03,0-.06,0-.08,0-.02,0-.04-.02-.06-.03-.16-.13-.32-.25-.48-.38-.16-.13-.33-.25-.51-.36-.02-.03-.04-.05-.04-.07s.01-.04.04-.08l1.06-1.58s.06-.06.09-.06c.03,0,.06.01.1.04.09.05.19.11.28.17.1.06.18.13.26.21.08.08.15.16.21.25.06.09.1.19.13.29.04.13.04.26,0,.39-.04.13-.11.27-.21.42ZM71.94,20.65l-.02.08s0,.02,0,.02c0,0,0,.01,0,.02l-.03.08s-.02.04-.02.05c0,.02-.02.04-.02.05,0,0,0,0,0,.01,0,0,0,0,0,.01l-.04.06s-.02.04-.04.06c-.01.02-.03.03-.03.05,0,0-.01.02-.01.02l-.08.12-.04.05s-.02.02-.02.03c0,.01-.02.02-.02.03-.02.03-.04.05-.05.06l-.11.13s-.01.02-.01.02c0,0-.02.02-.03.03-.01.01-.02.02-.04.03l-.04.04s-.03.04-.06.05l-.07.07-.04.03c-.05.04-.1.07-.13.08h-.04s-.05.01-.05.01c-.04,0-.07-.01-.1-.04-.1-.08-.2-.15-.3-.24-.1-.08-.2-.16-.3-.24-.03-.03-.07-.05-.1-.07-.1-.07-.19-.14-.29-.2,0,0,0,0,0,0-.02-.02-.04-.04-.04-.06s.01-.04.04-.08l1.07-1.57s0,0,0-.01c.03-.04.07-.06.1-.05h.01s0,0,.01.01l.05.02s.02.01.03.02c0,0,.02,0,.03.02,0,0,.02,0,.03.01,0,0,.02.01.03.02.02,0,.04.02.06.03.03.02.06.03.08.05.03.02.06.03.08.06l.03.02s.08.06.12.09c.04.03.07.07.11.1l.08.09.06.08s.06.09.08.13c0,.01.02.03.03.06l.02.06s0,0,0,.01,0,.01,0,.02c0,.01,0,.02,0,.03,0,.02,0,.03,0,.04,0,.01,0,.02,0,.03,0,0,0,.02,0,.03,0,.01,0,.02,0,.03v.09s0,.02,0,.03c0,.01,0,.02,0,.03ZM66.91,14.11c-.2.29-.43.55-.67.78-.45.44-.87.76-1.27.97-.4.21-.88.32-1.44.35-.25,0-.47,0-.66-.02-.19-.01-.45,0-.77,0-.32.02-.63.08-.9.2-.28.12-.52.24-.73.38-.03,0-.06.01-.09.01-.03,0-.05-.01-.06-.03-.01-.02.01-.09.08-.22.08-.18.24-.4.46-.65.22-.25.51-.51.87-.77.36-.26.7-.44,1.02-.53.32-.1.72-.14,1.2-.12.24.02.47.03.69.02.22-.01.45-.05.68-.12.23-.07.46-.17.7-.3.11-.13.49-.31.76-.54.06-.04.12-.1.18-.16.06-.06.12-.12.18-.18.06-.06.11-.11.16-.14.05-.04.08-.06.1-.06.04,0,.07.03.08.1,0,.07-.01.16-.07.26-.11.22-.27.47-.47.76ZM58.16,22.6c-.13.08-.26.12-.41.12-.13,0-.23-.02-.32-.04-.14-.01-.24-.02-.3-.02-.12,0-.23.01-.33.04-.34.14-.67.51-.99,1.12-.08.16-.15.29-.21.38-.06.09-.09.16-.11.2-.12.19-.23.35-.33.48,0,.02,0,.03-.01.05-.05.17-.11.33-.17.48-.28.65-.51,1.12-.7,1.4-.19.28-.35.47-.49.58-.14.1-.33.19-.58.28-.25.09-.51.16-.79.23-.28.07-.49.1-.62.1-.06,0-.08,0-.08,0-.04-.04.16-.2.58-.45.42-.26.77-.49,1.05-.7.28-.21.52-.44.74-.69.18-.21.32-.43.41-.66-.04.02-.09.04-.13.05v-.12s0,0,0,0c-.07.02-.15.04-.23.05-.08.01-.16.02-.23.02-.07,0-.14,0-.2,0-.27-.02-.49-.1-.66-.26-.18-.15-.26-.34-.25-.57.01-.11.05-.24.1-.4.05-.15.16-.39.32-.72.16-.33.34-.6.54-.82.19-.22.37-.32.54-.32.29,0,.53.12.72.35.13.17.23.36.29.57.23-.15.41-.35.55-.6.13-.24.33-.59.6-1.05.07-.1.19-.26.36-.46.21-.23.4-.41.56-.53.05-.05.17-.22.38-.52.04-.07.12-.18.24-.33.11,0,.29.15.55.49.24.34.36.65.36.95,0,.28-.07.54-.22.79-.15.26-.33.44-.52.56ZM51.59,19.59c-.07.1-.13.2-.21.28-.07.08-.15.16-.23.24-.02.03-.06.06-.11.1-.05.04-.11.08-.16.11-.06.04-.11.06-.16.08-.05.02-.09.01-.11-.02-.17-.13-.33-.26-.5-.4-.16-.13-.34-.26-.54-.38-.03-.02-.05-.04-.05-.06,0-.02.02-.05.04-.09l1.12-1.64s.07-.07.1-.06c.03,0,.07.01.11.04.1.05.2.11.29.18.1.07.19.14.27.22.08.08.16.16.22.26.06.09.11.19.14.31.04.13.04.26,0,.4-.04.14-.11.28-.22.44ZM50.33,24.69c.15-.42.29-.85.43-1.3.14-.45.24-.76.3-.92.06-.16.13-.24.19-.24.07.01.1.08.07.19-.2,1.18-.38,2.07-.54,2.65-.16.58-.31,1.03-.44,1.34-.13.31-.27.54-.43.7-.16.16-.44.32-.86.46-.42.15-.77.25-1.05.31-.28.06-.45.09-.52.09-.07,0-.11-.02-.13-.04-.02-.02,0-.07.05-.14.09-.12.27-.29.56-.5.28-.21.62-.47,1-.79.38-.31.67-.59.86-.83.19-.24.36-.57.51-.98ZM46.65,17.44c-.08.12-.16.23-.24.33-.08.1-.17.2-.27.29-.06.06-.11.11-.16.13-.05.03-.09.04-.12.05-.03,0-.06,0-.08,0-.02,0-.04-.02-.06-.03-.16-.13-.32-.25-.48-.38-.16-.13-.33-.25-.51-.36-.02-.03-.04-.05-.04-.07s.01-.04.04-.08l1.06-1.58s.06-.06.09-.06c.03,0,.06.01.1.04.09.05.19.11.28.17.1.06.18.13.26.21.08.08.15.16.21.25s.1.19.13.29c.04.13.04.26,0,.39-.04.13-.11.27-.21.42ZM45.69,15.01c-.08.12-.16.23-.24.33-.08.1-.17.2-.27.29-.06.06-.11.11-.16.13-.05.03-.09.04-.12.05-.03,0-.06,0-.08,0-.02,0-.04-.02-.06-.03-.16-.13-.32-.25-.48-.38-.16-.13-.33-.25-.51-.36-.02-.03-.04-.05-.04-.07s.01-.04.04-.08l1.06-1.58s.06-.06.09-.06c.03,0,.06.01.1.04.09.05.19.11.28.17.1.06.18.13.26.21.08.08.15.16.21.25.06.09.1.19.13.29.04.13.04.26,0,.39-.04.13-.11.27-.21.42ZM43.76,15.81h.01s.02.01.04.02c0,0,.02.01.03.01.06.04.12.07.18.11.06.04.12.08.18.12l.08.06c.05.04.1.08.14.12.04.04.08.09.12.13l.04.05.06.11v.03s.03.04.04.06c0,.02.02.04.02.06l.02.06s0,.03,0,.04c0,0,0,.02,0,.03,0,0,0,.02,0,.03s0,.02,0,.02c0,0,0,.01,0,.02,0,.09,0,.16-.03.24,0,0,0,.02,0,.02,0,0,0,.01,0,.02l-.03.08-.02.04s0,.02-.01.03c0,.01,0,.02-.02.03l-.04.08-.08.13-.12.17s-.05.07-.08.1-.06.07-.08.1c-.04.04-.07.08-.11.12s-.08.08-.12.11l-.07.07-.04.03c-.06.04-.1.07-.14.09-.04.01-.07.02-.1,0-.02,0-.03-.01-.05-.02-.01,0-.02-.01-.03-.02l-.17-.13-.07-.06-.41-.32-.05-.03c-.1-.07-.19-.14-.29-.2-.03-.02-.04-.04-.04-.06s.01-.05.04-.08l1.07-1.57s.07-.07.11-.06ZM43.39,23.43c0-.19,0-.39,0-.58s0-.39-.01-.58c0-.1,0-.18.02-.26.06-.34.28-.5.65-.46.1.01.21.02.31.01.1,0,.18-.01.23-.02.17-.03.33-.09.48-.18.15-.09.27-.21.38-.37,0,0,.01-.02.03-.03.03-.02.06-.02.08-.01.07.02.13.04.19.04s.11,0,.17-.04c.06-.04.12-.1.19-.19.07-.09.15-.22.23-.4.07-.16.13-.23.18-.2.04.01.05.11.02.28-.07.38-.18.69-.32.95-.14.26-.29.44-.44.55-.15.11-.34.16-.58.16-.11.17-.25.31-.42.43-.17.12-.4.2-.69.24-.01.09-.03.18-.04.27-.13,1.44-.42,2.73-.88,3.86-.31.75-.7,1.46-1.18,2.12-1.13,1.48-2.5,2.22-4.09,2.22-.77-.04-1.43-.3-1.96-.77-.53-.47-.81-1.14-.84-2,.02-1.37.47-2.88,1.35-4.52l.25-.5s.03,0,.04.04c0,.03.01.08,0,.13,0,.06-.02.12-.04.19-.02.07-.04.15-.08.22l-.04.07c-.11.25-.21.51-.3.76-.1.26-.18.51-.25.77-.07.25-.13.5-.17.75-.04.24-.06.48-.06.7.07.67.36,1.17.86,1.48.5.32,1.09.49,1.76.52.91,0,1.78-.23,2.62-.7.63-.4,1.13-.9,1.5-1.5.57-.84.85-2,.82-3.47ZM33.26,24.49c-.03.11-.06.25-.12.42-.05.17-.11.33-.17.48-.28.65-.51,1.12-.7,1.4-.19.28-.35.47-.49.58-.14.1-.33.19-.58.28-.25.09-.51.16-.79.23-.28.07-.49.1-.62.1-.06,0-.08,0-.08,0-.04-.04.15-.2.58-.45.42-.26.77-.49,1.05-.7s.52-.44.74-.69.37-.51.47-.79c-.05.02-.11.04-.19.06-.07.02-.15.04-.23.05-.08.01-.16.02-.23.02-.07,0-.14,0-.2,0-.27-.02-.49-.1-.66-.26s-.26-.34-.25-.57c.01-.11.05-.24.1-.4.05-.15.16-.39.32-.72.16-.33.34-.6.54-.82.19-.22.37-.32.54-.32.29,0,.53.12.72.35.19.24.31.52.34.85,0,.17,0,.33-.01.5-.02.17-.04.3-.06.41ZM27.66,31.59c-.08.12-.16.23-.24.33-.08.1-.17.2-.27.29-.06.06-.11.11-.16.13-.05.03-.09.04-.12.05-.03,0-.06,0-.08,0-.02,0-.04-.02-.06-.03-.16-.13-.32-.25-.48-.38-.16-.13-.33-.25-.51-.36-.02-.03-.04-.06-.04-.07s.01-.04.04-.08l1.06-1.58s.06-.06.09-.06c.03,0,.06.01.1.04.09.05.19.11.28.17.1.06.18.13.26.21.08.08.15.16.21.25.06.09.1.19.13.29.04.13.04.26,0,.39-.04.13-.11.27-.21.42ZM27.53,22.08c-.04.11-.08.24-.12.39-.07.26-.17.5-.28.7-.11.2-.23.37-.35.49-.12.12-.26.22-.41.32-.15.1-.31.18-.48.24-.17.07-.32.14-.44.23-.12.08-.22.17-.3.27-.12.13-.23.3-.31.52s-.18.46-.28.7c-.1.25-.2.49-.32.72-.11.24-.26.43-.43.58-.24.24-.59.41-1.06.49l-1.28.21s-.08,0-.14.01c-.05,0-.09,0-.12,0-.11-.03-.14-.1-.1-.21.04-.11.15-.21.33-.32.36-.23.65-.41.86-.56.21-.14.39-.26.52-.35.14-.09.24-.16.33-.22.08-.06.17-.12.26-.2.38-.27.64-.56.78-.86.08-.16.16-.31.23-.46.07-.15.14-.29.22-.44.08-.14.16-.29.25-.43.09-.14.19-.28.31-.43.12-.14.28-.28.49-.42.21-.14.45-.27.74-.41.34-.17.55-.38.65-.65.06-.13.12-.24.2-.36.08-.11.16-.17.24-.18.09.01.12.11.07.29-.02.09-.05.19-.09.31ZM21.46,24.49c-.03.11-.06.25-.12.42-.05.17-.11.33-.17.48-.28.65-.51,1.12-.7,1.4-.19.28-.35.47-.49.58-.14.1-.33.19-.58.28-.25.09-.51.16-.79.23-.28.07-.49.1-.62.1-.06,0-.08,0-.08,0-.04-.04.15-.2.58-.45.42-.26.77-.49,1.05-.7.28-.21.52-.44.74-.69.22-.25.37-.51.47-.79-.05.02-.11.04-.19.06-.07.02-.15.04-.23.05-.08.01-.16.02-.23.02-.07,0-.14,0-.2,0-.27-.02-.49-.1-.66-.26s-.26-.34-.25-.57c.01-.11.05-.24.1-.4.05-.15.16-.39.32-.72.16-.33.34-.6.54-.82.19-.22.37-.32.54-.32.29,0,.53.12.72.35.19.24.31.52.34.85,0,.17,0,.33-.01.5-.02.17-.04.3-.06.41ZM17.16,25.07c-.16.58-.31,1.03-.44,1.34-.13.31-.27.54-.43.7-.16.16-.44.32-.86.46-.42.15-.77.25-1.05.31-.28.06-.45.09-.52.09-.07,0-.11-.02-.13-.04-.02-.02,0-.07.05-.14.09-.12.27-.29.56-.5.28-.21.62-.47,1-.79.38-.31.67-.59.86-.83.19-.24.36-.57.51-.98.15-.42.29-.85.43-1.3.14-.45.24-.76.3-.92.06-.16.13-.24.19-.24.07.01.1.08.07.19-.2,1.18-.38,2.07-.54,2.65ZM13.03,17.44c-.08.12-.16.23-.24.33-.08.1-.17.2-.27.29-.06.06-.11.11-.16.13-.05.03-.09.04-.12.05-.03,0-.06,0-.08,0-.02,0-.04-.02-.06-.03-.16-.13-.32-.25-.48-.38-.16-.13-.33-.25-.51-.36-.02-.03-.04-.05-.04-.07s.01-.04.04-.08l1.06-1.58s.06-.06.09-.06c.03,0,.06.01.1.04.09.05.19.11.28.17.1.06.18.13.26.21.08.08.15.16.21.25s.1.19.13.29c.04.13.04.26,0,.39-.04.13-.11.27-.21.42ZM12.07,15.01c-.08.12-.16.23-.24.33-.08.1-.17.2-.27.29-.06.06-.11.11-.16.13-.05.03-.09.04-.12.05-.03,0-.06,0-.08,0-.02,0-.04-.02-.06-.03-.16-.13-.32-.25-.48-.38-.16-.13-.33-.25-.51-.36-.02-.03-.03-.05-.03-.07s.01-.04.03-.08l1.06-1.58s.06-.06.09-.06c.03,0,.06.01.1.04.09.05.19.11.28.17.1.06.18.13.26.21.08.08.15.16.21.25.06.09.1.19.13.29.04.13.04.26,0,.39-.04.13-.11.27-.21.42ZM10.13,15.81h.01s.02.01.04.02c0,0,.02.01.03.01.06.04.12.07.18.11.06.04.12.08.18.12l.08.06c.05.04.1.08.14.12.04.04.08.09.12.13l.04.05.06.11v.03s.03.04.04.06c0,.02.02.04.02.06l.02.06s0,.03,0,.04c0,0,0,.02,0,.03,0,0,0,.02,0,.03s0,.02,0,.02c0,0,0,.01,0,.02,0,.09,0,.16-.03.24,0,0,0,.02,0,.02,0,0,0,.01,0,.02l-.03.08-.02.04s0,.02-.01.03c0,.01,0,.02-.02.03l-.04.08-.08.13-.12.17s-.05.07-.08.1c-.03.03-.06.07-.08.1-.04.04-.07.08-.11.12-.04.04-.08.08-.12.11l-.07.07-.04.03c-.06.04-.1.07-.14.09-.04.01-.07.02-.1,0-.02,0-.03-.01-.05-.02-.01,0-.02-.01-.03-.02l-.17-.13-.07-.06-.41-.32-.05-.03c-.1-.07-.19-.14-.29-.2-.03-.02-.04-.04-.04-.06s.01-.05.04-.08l1.07-1.57s.07-.07.11-.06ZM9.77,23.43c0-.19,0-.39,0-.58s0-.39-.01-.58c0-.1,0-.18.02-.26.06-.34.28-.5.65-.46.1.01.21.02.31.01.1,0,.18-.01.23-.02.17-.03.33-.09.48-.18.15-.09.27-.21.38-.37,0,0,.01-.02.03-.03.03-.02.06-.02.08-.01.07.02.13.04.19.04.06,0,.11,0,.17-.04.06-.04.12-.1.19-.19.07-.09.15-.22.23-.4.07-.16.13-.23.18-.2.04.01.05.11.02.28-.07.38-.18.69-.32.95-.14.26-.29.44-.44.55-.15.11-.34.16-.58.16-.11.17-.25.31-.42.43-.17.12-.4.2-.69.24-.01.09-.03.18-.04.27-.13,1.44-.42,2.73-.88,3.86-.31.75-.7,1.46-1.18,2.12-1.13,1.48-2.5,2.22-4.09,2.22-.77-.04-1.43-.3-1.96-.77-.53-.47-.81-1.14-.84-2,.02-1.37.47-2.88,1.35-4.52l.25-.5s.03,0,.04.04c0,.03.01.08,0,.13,0,.06-.02.12-.04.19-.02.07-.04.15-.08.22l-.04.07c-.11.25-.21.51-.3.76-.1.26-.18.51-.25.77-.07.25-.13.5-.17.75-.04.24-.06.48-.06.7.07.67.36,1.17.86,1.48.5.32,1.09.49,1.76.52.91,0,1.78-.23,2.62-.7.63-.4,1.13-.9,1.5-1.5.57-.84.85-2,.82-3.47ZM24.65,30.02l.02-.03.02-.02s.05-.02.08-.01c0,0,0,0,.01,0h.02s.03.03.03.03l.11.06.06.03s.06.04.08.05c.03.02.06.04.08.06l.03.02.15.12.12.12.04.05s.08.11.13.19c0,.01.02.03.02.04,0,.01.01.03.02.04l.02.06.02.07v.09s.02.01.02.02c0,0,0,0,0,.02v.2s-.03.04-.03.04c0,.03-.02.05-.02.08,0,.03-.02.05-.03.08v.04s-.03.04-.03.04l-.04.07-.08.13s-.02.02-.02.03c0,.01-.02.02-.02.04,0,.02-.02.03-.03.05-.01.02-.02.03-.04.05-.02.03-.03.05-.05.06,0,0-.02.02-.02.03,0,.01-.02.02-.02.03l-.06.07-.05.06-.08.09s-.03.03-.05.05c-.02.01-.03.03-.05.05-.08.08-.14.13-.19.15,0,0-.02.01-.02.02,0,0-.02,0-.02.01-.04.01-.07.02-.09.01-.04,0-.07-.01-.1-.04l-.05-.04s-.08-.06-.12-.09l-.07-.05c-.07-.05-.13-.11-.2-.16-.07-.06-.14-.11-.21-.16l-.05-.04s-.09-.07-.14-.1c-.05-.03-.1-.06-.15-.09-.03-.02-.04-.04-.04-.06s.01-.05.03-.08l1.07-1.57ZM25.58,32.49s.06-.06.09-.06c.03,0,.06.01.1.04.09.05.19.11.28.17.1.06.18.13.26.21.08.08.15.16.21.25.06.09.1.19.13.29.04.13.04.26,0,.39-.04.13-.11.27-.21.42-.08.12-.16.23-.24.33-.08.1-.17.2-.27.29-.06.06-.11.11-.16.13-.05.03-.09.04-.12.05-.03,0-.06,0-.08,0-.02,0-.04-.02-.06-.03-.16-.13-.32-.25-.48-.38-.16-.13-.33-.25-.51-.36-.02-.03-.04-.06-.04-.07s.01-.04.04-.08l1.06-1.58ZM61.36,26.6c.05-.23.1-.47.14-.74.04-.26.08-.53.11-.81.03-.28.06-.54.08-.78.03-.23.06-.58.08-1.05.02-.46.06-.86.11-1.18.05-.32.12-.6.21-.83l.73-1.65c.06-.13.11-.2.15-.2.06,0,.08.04.06.13-.03.09-.06.26-.1.49-.04.23-.07.41-.08.54-.03.23-.06.49-.08.77s-.05.58-.08.89c-.02.3-.05.6-.07.89-.02.29-.05.55-.08.77-.07.7-.19,1.27-.34,1.72-.15.45-.33.87-.54,1.25-.21.38-.37.58-.5.6-.03,0-.02-.08.03-.24.06-.15.12-.34.17-.57Z"/>
</svg>