<?xml version="1.0" encoding="UTF-8"?>
<svg id="Layer_1" xmlns="http://www.w3.org/2000/svg" version="1.1" viewBox="0 0 154.69 48">
  <!-- Generator: Adobe Illustrator 29.6.1, SVG Export Plug-In . SVG Version: 2.1.1 Build 9)  -->
  <defs>
    <style>
      .st0 {
        fill-rule: evenodd;
      }
    </style>
  </defs>
  <g>
    <g id="emblem_half">
      <path d="M151.24,23.7c0,5.95-3.29,11.41-8.55,14.19,7.16-8.96,5.7-22.02-3.26-29.18-.31-.24-.62-.48-.94-.71,7.43,1.56,12.75,8.11,12.75,15.7Z"/>
      <path d="M143.79,23.05c0,10.58-8.59,19.16-19.18,19.15-2,0-4-.32-5.9-.94.34.02.68.02,1.02.02,11.6,0,21-9.41,21-21.01,0-4.19-1.25-8.28-3.59-11.75,4.23,3.63,6.66,8.94,6.66,14.51v.02h0Z"/>
      <path d="M135.65,4.51c0,1.62-1.31,2.93-2.93,2.93-1.01,0-1.95-.52-2.48-1.37l-.35-.35.35-1.72c.63,1.37,2.26,1.97,3.63,1.34.8-.37,1.38-1.11,1.54-1.97.16.37.24.76.24,1.16v-.02h0Z"/>
      <path d="M132.71,9.25c-.98-.45-1.83-1.13-2.48-1.98l-1.05,16.41,1.05,21.02,1.63-2.24.21-5.17.22-5.39.03-.69v-.26l.06-1.12.14-3.39.11-2.74.03-.79.04-1.01v-12.65h0ZM130.24,12.66h0ZM130.24,30.53h0Z"/>
    </g>
    <g id="emblem_half1">
      <path d="M109.24,23.7c0,5.95,3.29,11.41,8.55,14.19-7.16-8.96-5.7-22.02,3.26-29.18.31-.24.62-.48.94-.71-7.43,1.56-12.75,8.11-12.75,15.7Z"/>
      <path d="M116.68,23.05c0,10.58,8.59,19.16,19.18,19.15,2,0,4-.32,5.9-.94-.34.02-.68.02-1.02.02-11.6,0-21-9.41-21-21.01,0-4.19,1.25-8.28,3.59-11.75-4.23,3.63-6.66,8.94-6.66,14.51v.02h.01Z"/>
      <path d="M124.82,4.51c0,1.62,1.31,2.93,2.93,2.93,1.01,0,1.95-.52,2.48-1.37l.35-.35-.35-1.72c-.63,1.37-2.26,1.97-3.63,1.34-.8-.37-1.38-1.11-1.54-1.97-.16.37-.24.76-.24,1.16v-.02h0Z"/>
      <path d="M127.76,9.25c.98-.45,1.83-1.13,2.48-1.98l1.05,16.41-1.05,21.02-1.63-2.24-.21-5.17-.22-5.39-.03-.69v-.26l-.06-1.12-.14-3.39-.11-2.74-.03-.79-.04-1.01v-12.65h0ZM130.24,12.66h0ZM130.24,30.53h0Z"/>
    </g>
  </g>
  <path class="st0" d="M104.64,25.12c-.01.14-.03.26-.05.35-.02.09-.05.22-.1.36-.04.15-.09.29-.14.41-.24.56-.44.96-.6,1.2-.16.24-.3.41-.42.49-.12.09-.28.17-.49.24-.21.07-.44.14-.68.19-.24.06-.42.08-.53.08-.05,0-.07,0-.07,0-.03-.04.13-.17.49-.39.36-.22.66-.42.9-.6.24-.18.45-.38.63-.59.19-.22.32-.44.4-.67-.04.02-.1.04-.16.05-.06.02-.13.03-.2.04-.07,0-.14.02-.2.02-.06,0-.12,0-.17,0-.23-.02-.42-.09-.57-.22-.15-.13-.22-.29-.21-.49.01-.1.04-.21.08-.34.04-.13.14-.34.28-.62.14-.28.29-.52.46-.7.17-.18.32-.28.46-.28.25,0,.45.1.62.3.16.2.26.44.29.73,0,.14,0,.28,0,.43ZM101.59,21.27c-.06.09-.11.17-.18.24-.06.07-.13.14-.19.2-.02.02-.05.05-.1.09-.04.03-.09.07-.14.1-.05.03-.09.05-.14.07-.04.01-.08,0-.1-.01-.14-.11-.29-.22-.43-.34-.14-.12-.29-.22-.46-.32-.03-.02-.04-.04-.04-.05,0-.02.01-.04.03-.08l.96-1.41s.06-.06.08-.05c.03,0,.06.01.09.03.08.05.17.1.25.16.08.06.16.12.23.19.07.07.13.14.19.22.05.08.09.17.12.26.03.11.03.23,0,.35-.03.12-.1.24-.19.37ZM100.51,25.64c.13-.36.25-.73.37-1.12s.21-.65.26-.79c.05-.14.11-.21.16-.2.06.01.08.07.06.16-.17,1.01-.33,1.77-.46,2.27-.14.5-.26.88-.37,1.14-.11.26-.23.46-.37.6-.13.14-.38.27-.74.39-.36.12-.66.21-.9.26-.24.05-.39.08-.45.08-.06,0-.1-.01-.11-.03-.02-.02,0-.06.04-.12.08-.1.23-.25.48-.43.24-.18.53-.41.86-.67.33-.27.58-.51.74-.71.16-.21.31-.49.43-.84ZM97.14,21.61c-.03.2-.06.35-.07.46-.02.2-.05.42-.07.66-.02.25-.05.5-.07.76-.02.26-.04.51-.06.76-.02.25-.04.47-.07.66-.06.6-.16,1.09-.29,1.47-.13.39-.29.74-.46,1.07-.18.33-.32.5-.43.52-.03,0-.02-.07.02-.21.05-.13.1-.29.15-.49.05-.2.09-.41.12-.63.04-.22.07-.46.1-.69.03-.24.05-.46.07-.67.03-.2.05-.5.07-.9.02-.4.05-.73.09-1.01.04-.28.1-.51.18-.71l.62-1.41c.05-.12.09-.17.13-.17.05,0,.07.04.05.11-.02.08-.05.22-.08.42ZM94.46,25.96c-.14.5-.26.88-.37,1.14-.11.26-.23.46-.37.6-.13.14-.38.27-.74.39-.36.12-.66.21-.9.26-.24.05-.39.08-.45.08-.06,0-.1-.01-.11-.03-.02-.02,0-.06.04-.12.08-.1.23-.25.48-.43.24-.18.53-.41.86-.67.33-.27.58-.51.74-.71.16-.21.31-.49.43-.84.13-.36.25-.73.37-1.12.12-.39.21-.65.26-.79.05-.14.11-.21.16-.2.06.01.08.07.06.16-.17,1.01-.33,1.77-.46,2.27ZM90.74,25.58c-.14.26-.29.5-.46.73-.17.23-.38.43-.62.6-.35.23-.73.44-1.14.61-.41.17-.9.33-1.48.48-.58.15-1.2.26-1.88.34-.68.08-1.33.12-1.97.12-.74,0-1.3-.03-1.69-.09-.64-.1-1.09-.28-1.37-.55-.24-.21-.37-.5-.37-.86,0-.14.01-.35.04-.61.03-.27.07-.53.11-.8.02-.11.04-.21.05-.3.01-.06.03-.11.05-.15.02-.04.04-.06.07-.07.02,0,.05,0,.07.05.02.04.04.1.06.19.02.1.04.2.07.3.06.25.24.44.52.56.72.3,1.82.45,3.3.46.52,0,1.09-.02,1.73-.07.64-.05,1.28-.14,1.91-.27.64-.14,1.17-.29,1.61-.47.44-.18.74-.33.93-.45.18-.12.35-.27.49-.44.11-.14.17-.21.19-.22,0,0,.02-.01.04,0,.02,0,.03.01.04.03.02.04,0,.13-.03.25-.06.18-.15.4-.29.66ZM86.56,22.51c-.07.1-.14.19-.21.28-.07.09-.15.17-.23.24-.05.05-.1.09-.14.12-.04.02-.07.04-.1.04-.03,0-.05,0-.07,0-.02,0-.04-.02-.05-.03-.14-.11-.28-.22-.41-.33-.13-.11-.28-.21-.44-.31-.02-.03-.03-.05-.03-.06s0-.04.03-.07l.91-1.35s.05-.05.08-.05c.03,0,.05.01.09.03.08.05.16.1.24.15.08.05.16.11.22.18.07.07.13.14.18.21.05.07.09.16.11.25.03.11.03.22,0,.33-.03.12-.09.23-.18.36ZM84.92,22.18l-.02.07s0,.01,0,.02c0,0,0,0,0,.02l-.02.07s-.01.03-.02.05c0,.02-.01.03-.02.05,0,0,0,0,0,0,0,0,0,0,0,0l-.03.05s-.02.04-.03.05c-.01.01-.02.03-.03.04,0,0-.01.01-.01.02l-.07.1-.03.04s-.01.02-.02.03c0,.01-.01.02-.02.03-.02.02-.03.04-.04.05l-.1.12s-.01.01-.01.02c0,0-.02.02-.03.03,0,.01-.02.02-.03.03l-.04.03s-.03.03-.05.05l-.06.06-.03.02s-.08.06-.11.07h-.04s-.04.01-.04.01c-.03,0-.06-.01-.08-.03-.09-.07-.17-.13-.25-.2-.08-.07-.17-.14-.26-.2-.03-.02-.06-.04-.08-.06-.08-.06-.17-.12-.25-.17,0,0,0,0,0,0-.02-.02-.03-.04-.03-.05s0-.04.03-.07l.92-1.34s0,0,0-.01c.03-.03.06-.05.09-.04h.01s0,0,.01.01l.04.02s.02.01.02.01c0,0,.02,0,.02.01,0,0,.02,0,.02.01,0,0,.02,0,.02.02.02,0,.03.02.05.03.02.02.05.03.07.04.02.01.05.03.07.05l.02.02s.07.05.1.08c.03.03.06.06.1.09l.07.08.05.07s.05.08.07.12c0,.01.02.03.02.05l.02.05s0,0,0,.01,0,0,0,.02c0,.01,0,.02,0,.02,0,.02,0,.03,0,.03,0,.01,0,.02,0,.03,0,0,0,.02,0,.03,0,0,0,.02,0,.03v.08s0,.02,0,.03c0,0,0,.02,0,.03ZM77.89,22.5c-.07.15-.17.32-.28.52-.21.37-.45.73-.71,1.08-.64.83-1.37,1.25-2.18,1.25-.54,0-.94-.2-1.2-.61-.03-.04-.05-.08-.07-.13-.09.15-.13.23-.13.23-.13.18-.28.36-.44.54-.19.21-.35.37-.47.47-.02.01-.03.03-.05.04-.04.13-.08.24-.13.35-.24.56-.44.96-.6,1.2-.16.24-.3.41-.42.49-.12.09-.28.17-.49.24-.21.07-.44.14-.68.19-.24.06-.42.08-.53.08-.05,0-.07,0-.07,0-.03-.04.13-.17.49-.39.36-.22.66-.42.9-.6.24-.18.45-.38.63-.59.19-.22.32-.44.4-.67-.04.02-.1.04-.16.05-.06.02-.13.03-.2.04-.07,0-.14.02-.2.02s-.12,0-.17,0c-.23-.02-.42-.09-.57-.22s-.22-.29-.21-.49c.01-.1.04-.21.08-.34.04-.13.14-.34.28-.62.14-.28.29-.52.46-.7.17-.18.32-.28.46-.28.25,0,.45.1.62.3.16.2.26.44.29.73,0,.02,0,.04,0,.06.32-.32.53-.71.63-1.19.04-.18.08-.37.1-.54.02-.17.06-.49.1-.95.04-.46.09-.85.15-1.16s.14-.59.25-.82l.53-1.22s.07.01.07.1c0,.05-.04.19-.09.42-.05.23-.11.66-.18,1.27-.07.6-.11,1.1-.12,1.49,0,.42.06.74.16.97.08.16.21.27.39.34.18.07.36.1.52.08.16-.39.32-.79.5-1.19.22-.48.43-.82.62-1.02.3-.34.64-.5,1.01-.47.16,0,.3.03.41.1.12.07.18.15.19.26,0,.11-.03.2-.1.3-.04.06-.1.08-.17.08-.01,0-.08-.01-.22-.04-.13-.02-.26-.04-.37-.04-.31.02-.56.14-.74.36-.16.23-.25.44-.27.64-.02.2.03.35.15.47.12.12.29.18.51.18.29-.01.54-.14.77-.38.11-.11.25-.3.41-.56.17-.26.26-.38.29-.35.06.02.06.13,0,.32-.03.08-.08.19-.14.31ZM68.65,24.83c-.09.17-.19.32-.3.46-.11.14-.24.24-.37.31-.13.07-.3.13-.51.16-.5.06-.94.16-1.31.31-.38.15-.7.32-.96.5-.26.19-.48.38-.64.58-.16.2-.27.38-.34.53-.17.37-.29.71-.37,1.05-.08.33-.16.8-.25,1.4-.09.6-.17,1.29-.22,2.06-.06.77-.1,1.4-.12,1.87-.01.42-.03.72-.05.91,0,.03-.02.05-.03.05-.01,0-.03,0-.03-.03-.04-.53-.06-1.09-.07-1.69,0-.6.03-1.4.09-2.4.06-1,.22-1.93.47-2.79.08-.27.19-.57.33-.9.14-.33.32-.64.55-.94.22-.3.5-.58.84-.85.34-.27.72-.5,1.14-.68l.53-.94c.11-.22.19-.34.26-.38.06-.04.17-.05.31-.03.41.08.72.17.93.26.21.09.33.22.36.39,0,.12-.02.24-.06.35-.04.11-.1.25-.19.42ZM61.07,25.48c-.11.28-.21.54-.29.79-.08.25-.13.46-.16.63l.4.37c.26.25.39.43.39.55,0,.11-.02.22-.05.34-.04.11-.09.22-.15.31-.06.09-.14.16-.23.22-.09.06-.19.09-.3.09-.42,0-.62-.32-.62-.95,0-.4.23-1.14.7-2.21.49-1.16.87-1.72,1.14-1.67-.15.2-.3.44-.44.71-.14.27-.27.54-.38.82ZM57.3,14.54c-.07.1-.14.19-.21.28-.07.09-.15.17-.23.24-.05.05-.1.09-.14.12-.04.02-.07.04-.1.04-.03,0-.05,0-.07,0-.02,0-.04-.02-.05-.03-.14-.11-.28-.22-.41-.33-.13-.11-.28-.21-.44-.31-.02-.03-.03-.05-.03-.06s0-.04.03-.07l.91-1.35s.05-.05.08-.05c.03,0,.05.01.09.03.08.05.16.1.24.15.08.05.16.11.22.18.07.07.13.14.18.21.05.07.09.16.11.25.03.11.03.22,0,.33-.03.12-.09.23-.18.36ZM55.66,14.21l-.02.07s0,.01,0,.02c0,0,0,0,0,.02l-.02.07s-.01.03-.02.05c0,.02-.01.03-.02.05,0,0,0,0,0,0,0,0,0,0,0,0l-.03.05s-.02.04-.03.05c-.01.01-.02.03-.03.04,0,0-.01.01-.01.02l-.07.1-.03.04s-.01.02-.02.03c0,.01-.01.02-.02.03-.02.02-.03.04-.04.05l-.1.12s-.01.01-.01.02c0,0-.02.02-.03.03-.01.01-.02.02-.03.03l-.04.03s-.03.03-.05.05l-.06.06-.03.02s-.08.06-.11.07h-.04s-.04.01-.04.01c-.03,0-.06-.01-.08-.03-.09-.07-.17-.13-.25-.2-.08-.07-.17-.14-.26-.2-.03-.02-.06-.04-.08-.06-.08-.06-.17-.12-.25-.17,0,0,0,0,0,0-.02-.02-.03-.04-.03-.05s0-.04.03-.07l.92-1.34s0,0,0-.01c.03-.03.06-.05.09-.04h.01s0,0,.01.01l.04.02s.02.01.02.01c0,0,.02,0,.02.01,0,0,.02,0,.02.01,0,0,.02,0,.02.02.02,0,.03.02.05.03.02.02.05.03.07.04.02.01.05.03.07.05l.02.02c.06-.06.13.1.2.17l.07.08.05.07s.05.08.07.12c0,.01.02.03.02.05l.02.05s0,0,0,.01,0,0,0,.02c0,.01,0,.02,0,.02,0,.02,0,.03,0,.03,0,.01,0,.02,0,.03,0,0,0,.02,0,.03,0,0,0,.02,0,.03v.08s0,.02,0,.03c0,0,0,.02,0,.03ZM55.96,19.33c.46-.2.87-.43,1.25-.69.04-.03.08-.05.1-.03.02.01.03.04,0,.08-.11.19-.22.37-.35.56-.12.18-.27.37-.44.56-.12.13-.24.23-.37.31-.13.07-.3.17-.52.28-.58.28-1.18.57-1.79.87-.61.31-1.05.6-1.31.88,0,0,0,0,0,0,0,0,0,0,0,0-.04.02-.07.05-.1.07s-.05.06-.07.11c0,.03.05.05.14.06.09,0,.21,0,.35,0,.14,0,.38,0,.7-.03.33-.02.56-.04.68-.18.13.08.25.05.37.02.02-.01.04,0,.05.03.01.04.02.08.02.13,0,.07-.02.16-.05.25-.08.18-.14.29-.2.32-.2.13-.37.26-.5.39-.13.13-.29.28-.47.44-.19.17-.41.35-.67.57-.26.21-.55.44-.87.69-.17.15-.31.24-.43.28-.13.05-.25.09-.36.1-.11.02-.22.03-.32.03-.04,0-.14,0-.31-.02-.17-.01-.23-.02-.2-.02-.18,0-.37.06-.56.17,0,.01-.16.12-.44.33l-.35.27c-.06.05-.13.08-.2.09-.05.01-.11.02-.17.02-.05,0-.15-.03-.29-.1-.1-.05-.21-.07-.33-.07,0,0,0,0,0,0h0c-.14,0-.31.09-.51.26l-.65.54c-.12.08-.24.15-.39.22-.14.07-.3.11-.48.13-.21.23-.41.42-.61.58-.19.16-.38.28-.55.38-.18.1-.34.16-.51.2-.16.04-.32.05-.48.05-.24-.01-.45-.08-.61-.19-.16-.12-.29-.27-.39-.44-.1-.18-.16-.38-.2-.59-.04-.21-.06-.43-.06-.64,0,0,0,0,0,0,0,0,0,0,0,0,0,0,0,0,0,0,0,0,0,0,0,0,0-.16.05-.61.15-1.35.1-.76.17-1.31.22-1.63.05-.33.11-.68.17-1.05.06-.37.13-.67.19-.89.07-.19.14-.38.22-.57s.16-.38.24-.57c.06-.08.09-.07.11.04-.1.64-.19,1.3-.28,1.99-.08.69-.14,1.18-.17,1.47-.03.3-.04.47-.04.52-.02.32-.03.54-.03.67h0c0,.21.01.4.04.57.03.17.08.32.15.44.08.12.18.22.31.28.13.07.3.1.5.11.11-.28.24-.56.37-.82.14-.26.32-.53.56-.81.09-.1.2-.19.34-.26.13-.07.26-.1.39-.1s.24.04.35.12.17.21.21.4c.03.19.03.39,0,.61-.04.22-.1.42-.17.6h.01c.06,0,.12-.02.2-.05.08-.03.16-.07.24-.1.11-.06.21-.14.31-.22.07-.06.15-.13.23-.21l.09-.09s0,0,0,0c0,0,0,0,0,0l.41-.5c.1-.12.22-.17.35-.14.13.03.29.08.5.13.2.05.38.08.53.08.13-.03.2-.07.2-.12-.06-.06-.09-.1-.09-.12-.01-.07-.01-.13,0-.17.02-.09.08-.24.18-.45.07-.16.19-.37.36-.63.14-.24.28-.43.41-.55.22-.26.43-.39.62-.39s.34.08.46.24c.12.15.19.35.19.58,0,.08,0,.15-.02.22-.04.16-.08.29-.11.39-.04.1-.07.2-.11.3.15,0,.36-.07.63-.2.29-.14.82-.57,1.58-1.3-.4.03-.95.03-1.67-.02-.16-.01-.22-.09-.17-.25.01-.05.06-.13.14-.26.08-.12.18-.27.31-.44.02-.02.09-.09.19-.2.1-.11.18-.19.23-.22,0,0,0,0,0,0,0,0,0,0,0,0,.15-.15.41-.38.76-.67.36-.29.78-.58,1.26-.87.48-.29.95-.53,1.41-.73ZM45.92,25.56c-.13-.07-.27-.08-.41-.05-.14.03-.27.1-.4.22-.12.11-.2.25-.23.42.13.11.27.18.43.21.16.03.3.02.43-.02.03,0,.07-.02.12-.05.05-.03.09-.07.13-.1.04-.04.08-.08.12-.12.04-.04.06-.08.08-.11-.04-.19-.13-.32-.26-.39ZM50.95,23.82c-.08-.11-.21-.16-.37-.16-.23,0-.41.09-.55.28-.06.08-.12.18-.16.3,0,.07.06.14.18.21.13.08.27.12.41.12s.28-.05.42-.16c.14-.09.21-.17.21-.24,0-.12-.05-.23-.14-.35ZM52.9,18.38c-.07.1-.14.19-.21.28-.07.09-.15.17-.23.24-.05.05-.1.09-.14.12-.04.02-.07.04-.1.04-.03,0-.05,0-.07,0-.02,0-.04-.02-.05-.03-.14-.11-.28-.22-.41-.33-.13-.11-.28-.21-.44-.31-.02-.03-.03-.05-.03-.06s.01-.04.03-.07l.91-1.35s.05-.05.08-.05c.03,0,.05.01.09.03.08.05.16.1.24.15.08.05.16.11.22.18.07.07.13.14.18.21.05.07.09.16.11.25.03.11.03.22,0,.33-.03.12-.09.13-.18.36ZM51.26,18.05l-.02.07s0,.01,0,.02c0,0,0,0,0,.02l-.02.07s-.01.03-.02.05c0,.02-.01.03-.02.05,0,0,0,0,0,0,0,0,0,0,0,0l-.03.05s-.02.04-.03.05c-.01.01-.02.03-.03.04,0,0-.01.01-.01.02l-.07.1-.03.04s-.01.02-.02.03c0,.01-.01.02-.02.03-.02.02-.03.04-.04.05l-.1.12s-.01.01-.01.02c0,0-.02.02-.03.03-.01.01-.02.02-.03.03l-.04.03s-.03.03-.05.05l-.06.06-.03.02s-.08.06-.11.07h-.04s-.04.01-.04.01c-.03,0-.06-.01-.08-.03-.09-.07-.17-.13-.25-.2-.08-.07-.17-.14-.26-.2-.03-.02-.06-.04-.08-.06-.08-.06-.17-.12-.25-.17,0,0,0,0,0,0-.02-.02-.03-.04-.03-.05s0-.04.03-.07l.92-1.34s0,0,0-.01c.03-.03.06-.05.09-.04h.01s0,0,.01.01l.04.02s.02.01.02.01c0,0,.02,0,.02.01,0,0,.02,0,.02.01,0,0,.02,0,.02.02.02,0,.03.02.05.03.02.02.05.03.07.04.02.01.05.03.07.05l.02.02c.06.05.13.1.2.17l.07.08.05.07s.05.08.07.12c0,.01.02.03.02.05l.02.05s0,0,0,.01,0,0,0,.02c0,.01,0,.02,0,.02,0,.02,0,.03,0,.03,0,.01,0,.02,0,.03,0,0,0,.02,0,.03,0,0,0,.02,0,.03v.08s0,.02,0,.03c0,0,0,.02,0,.03ZM47.37,21.72c-.07.1-.14.19-.21.28-.07.09-.15.17-.23.24-.05.05-.1.09-.14.12-.04.02-.07.04-.1.04-.03,0-.05,0-.07,0-.02,0-.04-.02-.05-.03-.14-.11-.28-.22-.41-.33-.13-.11-.28-.21-.44-.31-.02-.03-.03-.05-.03-.06s0-.04.03-.07l.91-1.35s.05-.05.08-.05c.03,0,.05.01.09.03.08.05.16.1.24.15.08.05.16.11.22.18.07.07.13.14.18.21.05.07.09.16.11.25.03.11.03.22,0,.33-.03.12-.09.23-.18.36ZM45.73,21.39l-.02.07s0,.01,0,.02c0,0,0,0,0,.02l-.02.07s-.01.03-.02.05c0,.02-.01.03-.02.05,0,0,0,0,0,0,0,0,0,0,0,0l-.03.05s-.02.04-.03.05c-.01.01-.02.03-.03.04,0,0-.01.01-.01.02l-.07.1-.03.04s-.01.02-.02.03c0,.01-.01.02-.02.03-.02.02-.03.04-.04.05l-.1.12s-.01.01-.01.02c0,0-.02.02-.03.03,0,.01-.02.02-.03-.08l-.04.14s-.03.03-.05.05l-.06.06-.03.02s-.08.06-.11.07h-.04s-.04.01-.04.01c-.03,0-.06-.01-.08-.03-.09-.07-.17-.13-.25-.2-.08-.07-.17-.14-.26-.2-.03-.02-.06-.04-.08-.06-.08-.06-.17-.12-.25-.17,0,0,0,0,0,0-.02-.02-.03-.04-.03-.05s0-.04.03-.07l.92-1.34s0,0,0-.01c.03-.03.06-.05.09-.04h.01s0,0,.01.01l.04.02s.02.01.02.01c0,0,.02,0,.02.01,0,0,.02,0,.02.01,0,0,.02,0,.02.02.02,0,.03.02.05.03.02.02.05.03.07.04.02.01.05.03.07.05l.02.02s.07.05.1.08c.03.03.06.06.1.09l.07.08.05.07s.05.08.07.12c0,.01.02.03.02.05l.02.05s0,0,0,.01,0,0,0,.02c0,.01,0,.02,0,.02,0,.02,0,.03,0,.03,0,.01,0,.02,0,.03,0,0,0,.02,0,.03,0,0,0,.02,0,.03v.08s0,.02,0,.03c0,0,0,.02,0,.03ZM41.5,25.58c-.14.26-.29.5-.46.73-.17.23-.38.43-.62.6-.35.23-.73.44-1.14.61-.41.17-.9.33-1.48.48-.58.15-1.2.26-1.88.34-.68.08-1.33.12-1.97.12-.74,0-1.3-.03-1.69-.09-.64-.1-1.09-.28-1.37-.55-.24-.21-.37-.5-.37-.86,0-.14.01-.35.04-.61.03-.27.07-.53.11-.8.02-.11.04-.21.05-.3.01-.06.03-.11.05-.15.02-.04.04-.06.07-.07.02,0,.05,0,.07.05.02.04.04.1.06.19.02.1.04.2.07.3.06.25.24.44.52.56.72.3,1.82.45,3.3.46.52,0,1.09-.02,1.73-.07.64-.05,1.28-.14,1.91-.27.64-.14,1.17-.29,1.61-.47.44-.18.75-.33.93-.45.18-.12.35-.27.49-.44.11-.14.17-.21.19-.22,0,0,.02-.01.04,0,.02,0,.03.01.04.03.02.04,0,.13-.03.25-.06.18-.15.4-.29.66ZM37.32,22.51c-.07.1-.14.19-.21.28-.07.09-.15.17-.23.24-.05.05-.1.09-.14.12-.04.02-.07.04-.1.04-.03,0-.05,0-.07,0-.02,0-.04-.02-.05-.03-.14-.11-.28-.22-.41-.33-.13-.11-.28-.21-.44-.31-.02-.03-.03-.05-.03-.06s0-.04.03-.07l.91-1.35s.05-.05.08-.05c.03,0,.05.01.09.03.08.05.16.1.24.15.08.05.16.11.22.18.07.07.13.14.18.21.05.07.09.16.11.25.03.11.03.22,0,.33-.03.12-.09.23-.18.36ZM35.68,22.18l-.02.07s0,.01,0,.02c0,0,0,0,0,.02l-.02.07s-.01.03-.02.05c0,.02-.01.03-.02.05,0,0,0,0,0,0,0,0,0,0,0,0l-.03.05s-.02.04-.03.05c-.01.01-.02.03-.03.04,0,0-.01.01-.01.02l-.07.1-.03.04s-.01.02-.02.03c0,.01-.01.02-.02.03-.02.02-.03.04-.04.05l-.1.12s-.01.01-.01.02c0,0-.02.02-.03.03-.01.01-.02.02-.03.03l-.04.03s-.03.03-.05.05l-.06.06-.03.02s-.08.06-.11.07h-.04s-.04.01-.04.01c-.03,0-.06-.01-.08-.03-.09-.07-.17-.13-.25-.2-.08-.07-.17-.14-.26-.2-.03-.02-.06-.04-.08-.06-.08-.06-.17-.12-.25-.17,0,0,0,0,0,0-.02-.02-.03-.04-.03-.05s0-.04.03-.07l.92-1.34s0,0,0-.01c.03-.03.06-.05.09-.04h.01s0,0,.01.01l.04.02s.02.01.02.01c0,0,.02,0,.02.01,0,0,.02,0,.02.01,0,0,.02,0,.02.02.02,0,.03.02.05.03.02.02.05.03.07.04.02.01.05.03.07.05l.02.02s.07.05.1.08c.03.03.06.06.1.09l.07.08.05.07s.05.08.07.12c0,.01.02.03.02.05l.02.05s0,0,0,.01,0,0,0,.02c0,.01,0,.02,0,.02,0,.02,0,.03,0,.03,0,.01,0,.02,0,.03,0,0,0,.02,0,.03,0,0,0,.02,0,.03v.08s0,.02,0,.03c0,0,0,.02,0,.03ZM28.89,25.47c-.02.09-.06.22-.1.36-.04.15-.09.29-.14.41-.24.56-.44.96-.6,1.2-.16.24-.3.41-.42.49-.12.09-.28.17-.49.24-.21.07-.44.14-.68.19-.24.06-.42.08-.53.08-.05,0-.07,0-.07,0-.03-.04.13-.17.49-.39.36-.22.66-.42.9-.6.24-.18.45-.38.63-.59.19-.22.32-.44.4-.67-.04.02-.1.04-.16.05-.06.02-.13.03-.2.04-.07,0-.14.02-.2.02-.06,0-.12,0-.17,0-.23-.02-.42-.09-.57-.22s-.22-.29-.21-.49c.01-.1.04-.21.08-.34.04-.13.14-.34.28-.62.14-.28.29-.52.46-.7.17-.18.32-.28.46-.28.25,0,.45.1.62.3s.26.44.29.73c0,.14,0,.28,0,.43-.01.14-.03.26-.05.35ZM24.28,18.83c-.06.09-.11.17-.18.24-.06.07-.13.14-.19.2-.02.02-.05.05-.1.09-.04.03-.09.07-.14.1-.05.03-.09.05-.14.07-.04.01-.08,0-.1-.01-.14-.11-.29-.22-.43-.34-.14-.12-.29-.22-.46-.32-.03-.02-.04-.04-.04-.05,0-.02.01-.04.03-.08l.96-1.41s.06-.06.08-.05c.03,0,.06.01.09.03.08.05.17.1.25.16s.16.12.23.19c.07.07.13.14.19.22.05.08.09.17.12.26.03.11.03.23,0,.35-.03.12-.1.24-.19.37ZM22.62,22.61c.26.01.52.13.77.37.34.31.5.7.5,1.17,0,.23-.03.46-.09.7-.06.27-.15.53-.28.77-.19.34-.39.63-.59.87-.21.23-.4.35-.55.35l-.22-.03h0c-.18-.03-.32-.03-.41,0-.24.09-.52.37-.83.82-.38.55-.78.83-1.2.83-.44,0-.78-.19-1.01-.55-.23-.37-.34-.81-.34-1.32,0-.15.05-.6.15-1.36.1-.76.17-1.31.22-1.63.05-.33.11-.68.17-1.05.06-.37.13-.67.19-.89.07-.19.14-.38.22-.57s.16-.38.24-.57c.06-.08.09-.07.11.04-.1.64-.19,1.3-.28,1.99-.08.69-.14,1.18-.17,1.47-.03.3-.04.47-.04.52-.02.32-.03.54-.03.67,0,0,0,0,0,0,0,0,0,0,0,0-.02.93.38,1.39,1.18,1.39.33,0,.61-.1.85-.3.24-.2.42-.36.54-.46.16-.11.31-.17.44-.16h0c.24.08.42.12.53.1.11-.01.21-.05.3-.1.09-.06.13-.16.13-.31,0-.1-.04-.2-.13-.31-.08-.1-.17-.14-.26-.14-.12.07-.26.11-.43.12-.18,0-.36-.04-.53-.11-.16-.07-.25-.18-.25-.33,0-.11.03-.24.09-.39.07-.17.17-.39.29-.65.13-.27.25-.49.38-.67.12-.18.22-.27.32-.27ZM21.83,21.65c-.06.09-.11.17-.18.24-.06.07-.13.14-.19.2-.02.02-.05.05-.1.09-.04.03-.09.07-.14,0-.05.14-.09.16-.14.17-.04.01-.08,0-.1-.01-.14-.11-.29-.22-.43-.34-.14-.12-.29-.22-.46-.32-.03-.02-.04-.04-.04-.05,0-.02.01-.04.03-.08l.96-1.41s.06-.06.08-.05c.03,0,.06.01.09.03.08.05.17.1.25.16s.16.12.23.19c.07.07.13.14.19.22s.09.17.12.26c.03.11.03.23,0,.35-.03.12-.1.24-.19.37ZM17.71,25.47c-.02.09-.05.22-.1.36-.04.15-.09.29-.14.41-.24.56-.44.96-.6,1.2-.16.24-.3.41-.42.49-.12.09-.28.17-.49.24-.21.07-.44.14-.68.19-.24.06-.42.08-.53.08-.05,0-.07,0-.07,0-.03-.04.13-.17.49-.39.36-.22.66-.42.9-.6.24-.18.45-.38.63-.59.19-.22.32-.44.4-.67-.04.02-.1.04-.16.05-.06.02-.13.03-.2.04-.07,0-.14.02-.2.02-.06,0-.12,0-.17,0-.23-.02-.42-.09-.57-.22-.15-.13-.22-.29-.21-.49.01-.1.04-.21.08-.34.04-.13.14-.34.28-.62.14-.28.29-.52.46-.7.17-.18.32-.28.46-.28.25,0,.45.1.62.3.16.2.26.44.29.73,0,.14,0,.28,0,.43-.01.14-.03.26-.05.35ZM14.03,25.96c-.14.5-.26.88-.37,1.14-.11.26-.23.46-.37.6-.13.14-.38.27-.74.39-.36.12-.66.21-.9.26-.24.05-.39.08-.45.08-.06,0-.1-.01-.11-.03-.02-.02,0-.06.04-.12.08-.1.23-.25.48-.43.24-.18.53-.41.86-.67.33-.27.58-.51.74-.71.16-.21.31-.49.43-.84.13-.36.25-.73.37-1.12.12-.39.21-.65.26-.79.05-.14.11-.21.16-.2.06.01.08.07.06.16-.17,1.01-.33,1.77-.46,2.27ZM10.5,21.89c-.04.11-.09.21-.14.32-.05.11-.09.2-.14.28-.04.08-.08.15-.12.2-.04.05-.06.08-.08.07-.02,0-.04,0-.06-.02-.02-.02-.07-.03-.13-.03-.15,0-.37.05-.66.14-.29.09-.59.26-.91.51-.32.25-.56.49-.73.71-.17.22-.25.37-.25.46-.02.12.02.23.13.32.09.07.26.15.51.23.25.08.4.15.46.2.2.13.29.36.29.7,0,.52-.1,1.11-.31,1.77-.21.67-.5,1.25-.87,1.74-.16.23-.35.45-.58.67-.23.22-.48.41-.74.56-.52.34-1.11.51-1.78.51-.76-.01-1.34-.25-1.74-.72-.18-.24-.3-.49-.37-.76-.07-.27-.1-.52-.1-.76.01-.44.07-.88.18-1.32.11-.44.25-.88.41-1.31.17-.43.36-.85.57-1.26.21-.41.43-.8.66-1.18.04-.06.06-.09.06-.1.04-.06.09-.09.13-.09h0s.01.03,0,.07c-.01.03-.03.1-.07.18-.18.36-.35.73-.53,1.1-.18.37-.32.73-.44,1.06-.26.75-.37,1.35-.32,1.78.04.46.22.82.57,1.09.34.27.83.4,1.47.4.53,0,1.04-.11,1.53-.32.37-.16.69-.35.98-.58.28-.23.5-.47.66-.71.15-.25.23-.45.23-.62,0-.18-.04-.14-.12-.2-.08-.05-.18-.1-.3-.14-.12-.04-.24-.07-.36-.1-.12-.03-.22-.06-.3-.09-.18-.07-.33-.16-.45-.29-.11-.13-.17-.32-.16-.58,0-.33.11-.73.34-1.18.22-.46.54-.93.93-1.43.35-.39.65-.68.9-.89.25-.21.49-.39.72-.55.23-.16.45-.29.67-.4.09-.05.17-.08.25-.11.1-.03.18-.03.23-.02.05.01.08.05.09.12-.02.07-.05.15-.08.25s-.08.2-.12.31ZM45.62,29.69s0,0,0-.01c.03-.03.06-.05.09-.04h.01s0,0,.01.01l.04.02s.02.01.02.01c0,0,.02,0,.02.01,0,0,.02,0,.02.01s.02,0,.02.02c.02,0,.03.02.05.03.02.02.05.03.07.04s.05.03.07.05l.02.02s.07.05.1.08c.03.03.06.06.1.09l.07.08.05.07s.05.08.07.12c0,.01.02.03.02.05l.02.05s0,0,0,.01,0,0,0,.02c0,.01,0,.02,0,.02,0,.02,0,.03,0,.03,0,.01,0,.02,0,.03,0,0,0,.02,0,.03,0,0,0,.02,0,.03v.08s0,.02,0,.03c0,0,0,.02,0,.03l-.02.07s0,.01,0,.02c0,0,0,0,0,.02l-.02.07s-.01.03-.02.05c0,.02-.01.03-.02.05,0,0,0,0,0,0,0,0,0,0,0,0l-.03.05s-.02.04-.03.05c-.01.01-.02.03-.03.04,0,0-.01.01-.01.02l-.07.1-.03.04s-.01.02-.02.03c0,.01-.01.02-.02.03-.02.02-.03.04-.04.05l-.1.12s-.01.01-.01.02c0,0-.02.02-.03.03,0,.01-.02.02-.03.03l-.04.03s-.03.03-.05.05l-.06.06-.03.02s-.08.06-.11.07h-.04s-.04.01-.04.01c-.03,0-.06-.01-.08-.03-.09-.07-.17-.13-.25-.2-.08-.07-.17-.14-.26-.2-.03-.02-.06-.04-.08-.06-.08-.06-.17-.12-.25-.17,0,0,0,0,0,0-.02-.02-.03-.04-.03-.05s.01-.04.03-.07l.92-1.34ZM47.45,29.57s.05-.05.08-.05c.03,0,.05.01.09.03.08.05.16.1.24.15.08.05.16.11.22.18.07.07.13.14.18.21.05.07.09.16.11.25.03.11.03.22,0,.33-.03.12-.09.23-.18.36-.07.1-.14.19-.21.28-.07.09-.15.17-.23.24-.05.05-.1.09-.14.12-.04.02-.07.04-.1.04-.03,0-.05,0-.07,0-.02,0-.04-.02-.05-.03-.14-.11-.28-.22-.41-.33-.13-.11-.28-.21-.44-.31-.02-.03-.03-.05-.03-.06s.01-.04.03-.07l.91-1.35Z"/>
</svg>