<?xml version="1.0" encoding="UTF-8"?>
<svg xmlns="http://www.w3.org/2000/svg" width="150.4877mm" height="138.9906mm" viewBox="0 0 426.5794 393.9892">
  <g id="a" data-name="Shape 1" isolation="isolate">
    <g id="b" data-name="Shape 1">
      <path d="M245.509,272.2669c-6.9913-3.1922-14.3268-5.7601-21.9756-7.6619-12.6077-3.135-33.1926-4.6023-56.2069-2.3939-7.4081.7109-14.8298,1.7806-22.2914,3.2424-7.3665,1.443-14.6982,3.2478-22.0825,5.4122-11.1551,25.9019-22.6801,51.8038-33.8351,77.7058,17.4139-13.7946,37.1283-24.2101,58.0558-30.7509,18.3159-5.7244,40.2508-9.0106,65.6365-6.629,16.6503,1.562,33.8837,6.1561,44.3738,17.6771,3.8636,4.2432,6.03,8.3378,7.2109,12.1531,1.9744,6.38,1.6895,13.6768-.9246,20.9918-6.0015,16.7936-22.9041,24.6005-22.7415,24.8585.1777.2823,20.5519-8.2737,34.9443-30.1985,2.8125-4.2843,5.2212-8.7657,7.1794-13.4573-12.4477-23.6498-24.8953-47.2996-37.3431-70.9493Z" fill="#7e888e" fill-rule="evenodd"/>
    </g>
  </g>
  <g id="c" data-name="Shape 4" isolation="isolate">
    <g id="d" data-name="Shape 4">
      <path d="M231.5633.1841c-4.1815,4.1157-11.2288,11.3516-17.0897,19.1501-2.3083,3.0715-3.7802,5.3621-4.2939,6.1718-2.3666,3.7297-4.4515,7.6328-6.2448,11.6895,1.4049,3.9767,2.4551,8.0274,3.1433,12.1531.868,5.2046.2957,9.329.9244,14.5469.6722,5.5783,2.9479,12.1759,5.2667,17.4248,9.8803,22.3654,117.6659,222.8058,158.5944,298.7954,5.5194,1.698,14.7701,3.7775,26.1888,2.7105,13.4252-1.2545,23.3231-6.2487,28.5268-9.3683L231.5633.1841Z" fill="#7e888e" fill-rule="evenodd"/>
    </g>
  </g>
  <g id="e" data-name="Shape 3" isolation="isolate">
    <g id="f" data-name="Shape 3">
      <path d="M215.1724,85.3858c-.5369-1.1373-1.1567-2.4867-1.1567-2.4868-.6007-1.3079-.9224-2.0083-1.3019-2.8915-.218-.5071-.7535-1.7693-1.3735-3.4307-.8158-2.186-1.3525-3.9242-1.6047-4.767-.3972-1.3271-.6436-2.2947-.7773-2.8411-.1552-.6342-.2716-1.1638-.3151-1.3639-.0704-.3237-.1931-.8871-.298-1.4667-.1107-.6106-.2418-1.4606-.3337-2.5139-.2311,2.0276-.5706,4.6888-1.0679,7.7961,0,0-1.0109,6.7552-2.7109,13.4998-3.2334,12.8285-13.9571,37.1024-25.7547,58.9491,27.48,53.2445,101.6602,198.3254,116.0538,221.2746,1.2789,2.0393,2.6934,3.9977,4.2523,5.8924,9.48,11.5214,23.0869,18.617,36.2389,21.4577,13.9003,3.0026,28.3561,1.4364,41.3591-4.2783-8.2242-15.4312-159.7886-299.8198-161.2096-302.8298Z" fill="#1f8ea8" fill-rule="evenodd"/>
    </g>
  </g>
  <g id="g" data-name="Shape 2" isolation="isolate">
    <g id="h" data-name="Shape 2">
      <path d="M204.1198,37.3797C198.7661,22.0233,188.0211,9.1702,174.1674,0,116.1115,129.6325,58.0558,259.265,0,388.8977c16.5876,5.8205,34.7318,5.5475,51.0297-1.1049,13.761-5.6166,25.3402-15.431,33.2807-27.9889,31.2466-71.5679,62.4932-143.1359,93.7399-214.7039,9.0063-16.8114,17.9814-35.1482,23.6659-50.8219,3.8038-10.4871,6.0517-19.513,6.2864-30.1985.2301-10.4811-1.2864-19.2523-3.8828-26.6999Z" fill="#0bb5dd" fill-rule="evenodd"/>
    </g>
  </g>
</svg>